<svg width="415" height="342" viewBox="0 0 415 342" fill="none" xmlns="http://www.w3.org/2000/svg">
<g clip-path="url(#clip0_8408_33200)">
<path d="M254.029 342C229.275 342 206.768 334.672 189.094 319.379C187.775 318.256 186.506 317.083 185.285 315.862C127.332 349.035 69.1342 350.892 32.8095 319.379C5.22417 295.39 -5.51701 256.842 2.68535 210.672C10.0577 169.046 32.37 125.172 65.4724 87.1612C137.975 4.00634 237.185 -24.3308 291.379 22.6209L259.253 59.5081C224.1 29.0212 148.375 66.4946 102.383 119.26C74.993 150.675 56.6842 186.146 50.8253 219.222C47.8959 235.736 45.7965 265.978 64.8865 282.492C84.7089 299.69 121.717 295.879 160.483 273.747C140.954 210.135 178.548 134.797 212.236 96.0043C230.057 75.5332 251.637 66.1038 273.021 69.4261C299.679 73.5789 319.404 97.3235 321.015 127.077C321.796 141.49 318.525 156.538 311.006 173.101C297.628 202.66 279.515 230.899 258.716 254.79C248.707 266.272 238.015 276.922 226.737 286.498C263.842 309.217 334.392 272.818 378.089 222.691L415 254.741C366.177 310.78 305.196 341.951 254.029 341.951V342ZM264.624 117.648C260.669 117.648 254.908 121.508 249.244 128.055C226.102 154.633 202.129 201.536 204.229 241.061C210.332 235.296 216.191 229.189 221.805 222.74C239.577 202.366 255.005 178.231 266.43 152.972C270.629 143.738 272.484 136.116 272.142 129.716C271.898 125.123 269.652 118.381 265.454 117.746C265.209 117.746 264.917 117.697 264.624 117.697V117.648Z" fill="black"/>
</g>
<defs>
<clipPath id="clip0_8408_33200">
<rect width="415" height="342" fill="white"/>
</clipPath>
</defs>
</svg>
