<svg width="516" height="448" viewBox="0 0 516 448" fill="none" xmlns="http://www.w3.org/2000/svg">
<path d="M71.988 404.072C71.988 407.905 71.5016 411.177 70.531 413.885C69.4059 417.207 67.6284 419.775 65.1997 421.589C62.7699 423.404 59.715 424.311 56.0338 424.311C54.2428 424.311 52.5823 423.953 51.048 423.237C49.5137 422.522 48.1841 421.525 47.0589 420.248C46.9556 420.145 46.8669 420.12 46.7907 420.172C46.7145 420.223 46.6759 420.3 46.6759 420.401V422.931C46.6759 423.442 46.4191 423.697 45.9088 423.697H40.0796C39.5682 423.697 39.3125 423.442 39.3125 422.931V370.801C39.3125 370.291 39.5682 370.035 40.0796 370.035H45.9088C46.4191 370.035 46.6759 370.291 46.6759 370.801V387.897C46.6759 388 46.7145 388.077 46.7907 388.128C46.8679 388.179 46.9556 388.154 47.0589 388.051C48.183 386.774 49.5252 385.789 51.0856 385.099C52.6449 384.41 54.2939 384.065 56.0328 384.065C59.8684 384.065 63.0131 385.011 65.4669 386.901C67.9217 388.792 69.6856 391.424 70.7596 394.797C71.5768 397.404 71.987 400.497 71.987 404.073L71.988 404.072ZM64.5474 404.225C64.5474 400.035 63.7291 396.663 62.0926 394.106C60.6084 391.652 58.3342 390.426 55.2656 390.426C52.4007 390.426 50.2287 391.729 48.7456 394.335C47.4148 396.687 46.751 399.958 46.751 404.148C46.751 408.338 47.3647 411.559 48.5921 413.807C50.1264 416.568 52.3756 417.947 55.3418 417.947C58.7172 417.947 61.1449 416.541 62.629 413.73C63.9065 411.329 64.5463 408.16 64.5463 404.224L64.5474 404.225Z" fill="black"/>
<path d="M113.024 406.372C113.024 406.883 112.768 407.139 112.257 407.139H87.7885C87.5839 407.139 87.4816 407.242 87.4816 407.445C87.4816 409.183 87.6351 410.512 87.9419 411.431C88.5034 413.476 89.6411 415.073 91.3548 416.222C93.0676 417.372 95.2281 417.948 97.8363 417.948C101.62 417.948 104.535 416.389 106.581 413.271C106.836 412.761 107.168 412.684 107.577 413.041L111.949 415.954C112.306 416.261 112.384 416.594 112.18 416.95C110.748 419.25 108.715 421.064 106.082 422.393C103.447 423.721 100.47 424.387 97.1454 424.387C93.412 424.387 90.2673 423.57 87.7112 421.933C85.1541 420.299 83.2358 417.974 81.9583 414.957C80.7309 411.942 80.1172 408.287 80.1172 403.995C80.1172 400.265 80.3979 397.428 80.9605 395.485C81.8811 391.958 83.7222 389.174 86.4828 387.128C89.2445 385.085 92.5927 384.062 96.5306 384.062C101.695 384.062 105.556 385.353 108.113 387.933C110.669 390.514 112.228 394.308 112.792 399.316C112.995 401.413 113.072 403.762 113.022 406.369L113.024 406.372ZM91.0866 392.075C89.6546 393.174 88.6819 394.643 88.1715 396.483C87.8135 397.608 87.5829 399.039 87.4816 400.777C87.4816 400.981 87.5839 401.083 87.7885 401.083H105.354C105.558 401.083 105.661 400.981 105.661 400.777C105.558 399.09 105.404 397.838 105.201 397.02C104.689 395.027 103.679 393.431 102.171 392.229C100.662 391.029 98.7829 390.428 96.5327 390.428C94.2825 390.428 92.5175 390.978 91.0866 392.076V392.075Z" fill="black"/>
<path d="M144.36 385.712C146.687 386.811 148.476 388.345 149.729 390.311C150.982 392.279 151.608 394.516 151.608 397.018V422.93C151.608 423.441 151.351 423.696 150.841 423.696H145.012C144.5 423.696 144.244 423.441 144.244 422.93V420.169C144.244 419.914 144.116 419.863 143.861 420.016C142.531 421.396 140.909 422.457 138.99 423.198C137.073 423.938 134.937 424.31 132.585 424.31C128.801 424.31 125.668 423.351 123.189 421.435C120.708 419.519 119.469 416.619 119.469 412.734C119.469 408.849 120.861 405.618 123.649 403.343C126.436 401.07 130.334 399.932 135.347 399.932H143.938C144.141 399.932 144.244 399.83 144.244 399.625V397.556C144.244 395.308 143.592 393.557 142.288 392.304C140.985 391.053 139.002 390.427 136.343 390.427C134.196 390.427 132.443 390.848 131.089 391.692C129.734 392.535 128.903 393.673 128.597 395.103C128.444 395.614 128.137 395.845 127.677 395.793L121.463 394.95C120.952 394.848 120.721 394.643 120.773 394.336C121.183 391.322 122.793 388.855 125.606 386.939C128.418 385.022 131.946 384.064 136.191 384.064C139.31 384.064 142.033 384.613 144.36 385.712ZM141.254 415.954C143.249 414.524 144.245 412.709 144.245 410.511V405.988C144.245 405.785 144.142 405.681 143.939 405.681H136.729C133.71 405.681 131.308 406.27 129.519 407.444C127.728 408.621 126.834 410.256 126.834 412.35C126.834 414.241 127.512 415.673 128.867 416.644C130.222 417.615 131.999 418.1 134.199 418.1C136.908 418.1 139.261 417.384 141.255 415.953L141.254 415.954Z" fill="black"/>
<path d="M167.256 421.359C164.494 419.391 162.602 416.721 161.58 413.347C160.813 410.997 160.43 407.904 160.43 404.072C160.43 400.545 160.813 397.454 161.58 394.796C162.602 391.526 164.506 388.919 167.294 386.977C170.081 385.036 173.393 384.064 177.227 384.064C181.062 384.064 184.411 385.035 187.275 386.977C190.138 388.919 192.004 391.373 192.875 394.336C193.181 395.154 193.385 395.998 193.488 396.866C193.488 397.276 193.259 397.53 192.798 397.633L187.045 398.476H186.892C186.534 398.476 186.278 398.245 186.125 397.786L185.894 396.559C185.484 394.823 184.487 393.366 182.903 392.19C181.318 391.015 179.399 390.427 177.15 390.427C174.901 390.427 173.085 391.015 171.55 392.19C170.016 393.366 169.019 394.925 168.559 396.866C168.099 398.706 167.869 401.133 167.869 404.149C167.869 407.165 168.1 409.515 168.559 411.355C169.07 413.4 170.08 415.009 171.589 416.185C173.097 417.361 174.951 417.948 177.15 417.948C179.349 417.948 181.33 417.36 182.942 416.185C184.552 415.009 185.561 413.477 185.971 411.585C186.022 411.534 186.035 411.47 186.01 411.393C185.984 411.316 185.996 411.253 186.049 411.201V410.894C186.202 410.485 186.483 410.332 186.892 410.434L192.645 411.354C193.054 411.457 193.259 411.661 193.259 411.967V412.274C193.259 412.734 193.13 413.297 192.876 413.961C192.005 417.079 190.139 419.583 187.276 421.473C184.412 423.365 181.063 424.31 177.228 424.31C173.394 424.31 170.018 423.326 167.257 421.359H167.256Z" fill="black"/>
<path d="M207.678 421.436C204.865 419.52 202.896 416.849 201.771 413.425C200.851 410.664 200.391 407.548 200.391 404.072C200.391 400.596 200.825 397.377 201.694 394.873C202.818 391.499 204.788 388.855 207.601 386.939C210.412 385.022 213.762 384.064 217.648 384.064C221.331 384.064 224.539 385.022 227.275 386.939C230.009 388.855 231.965 391.475 233.142 394.796C234.063 397.403 234.523 400.469 234.523 403.996C234.523 407.523 234.063 410.717 233.142 413.425C232.017 416.849 230.074 419.52 227.313 421.436C224.553 423.352 221.304 424.311 217.572 424.311C213.841 424.311 210.489 423.352 207.678 421.436ZM222.942 416.223C224.476 415.074 225.575 413.452 226.24 411.355C226.802 409.414 227.084 407.011 227.084 404.149C227.084 401.287 226.827 398.911 226.316 397.019C225.652 394.925 224.553 393.302 223.018 392.151C221.484 391 219.617 390.426 217.419 390.426C215.221 390.426 213.507 391 211.973 392.151C210.438 393.301 209.338 394.924 208.675 397.019C208.111 398.809 207.831 401.186 207.831 404.149C207.831 407.113 208.112 409.515 208.675 411.355C209.288 413.451 210.374 415.073 211.934 416.223C213.493 417.373 215.373 417.949 217.572 417.949C219.617 417.949 221.408 417.374 222.941 416.223H222.942Z" fill="black"/>
<path d="M271.57 387.781C274.025 390.21 275.253 393.493 275.253 397.633V422.931C275.253 423.442 274.996 423.697 274.485 423.697H268.656C268.145 423.697 267.889 423.442 267.889 422.931V399.089C267.889 396.534 267.147 394.464 265.665 392.879C264.181 391.296 262.213 390.503 259.759 390.503C257.304 390.503 255.387 391.296 253.852 392.879C252.318 394.464 251.551 396.508 251.551 399.012V422.93C251.551 423.441 251.294 423.696 250.784 423.696H244.955C244.443 423.696 244.188 423.441 244.188 422.93V385.443C244.188 384.933 244.443 384.676 244.955 384.676H250.784C251.294 384.676 251.551 384.933 251.551 385.443V388.203C251.551 388.306 251.589 388.382 251.666 388.432C251.742 388.483 251.806 388.458 251.858 388.356C254.056 385.546 257.304 384.14 261.599 384.14C265.894 384.14 269.116 385.354 271.57 387.781Z" fill="black"/>
<path d="M290.978 421.359C288.217 419.391 286.324 416.721 285.303 413.347C284.535 410.997 284.152 407.904 284.152 404.072C284.152 400.545 284.535 397.454 285.303 394.796C286.324 391.526 288.229 388.919 291.017 386.977C293.804 385.036 297.115 384.064 300.95 384.064C304.784 384.064 308.134 385.035 310.998 386.977C313.861 388.919 315.727 391.373 316.597 394.336C316.904 395.154 317.108 395.998 317.211 396.866C317.211 397.276 316.981 397.53 316.521 397.633L310.768 398.476H310.615C310.257 398.476 310.001 398.245 309.847 397.786L309.617 396.559C309.207 394.823 308.21 393.366 306.626 392.19C305.04 391.015 303.122 390.427 300.873 390.427C298.623 390.427 296.807 391.015 295.273 392.19C293.739 393.366 292.742 394.925 292.282 396.866C291.822 398.706 291.592 401.133 291.592 404.149C291.592 407.165 291.823 409.515 292.282 411.355C292.792 413.4 293.803 415.009 295.312 416.185C296.82 417.361 298.674 417.948 300.873 417.948C303.072 417.948 305.053 417.36 306.664 416.185C308.275 415.009 309.284 413.477 309.694 411.585C309.744 411.534 309.758 411.47 309.733 411.393C309.707 411.316 309.719 411.253 309.771 411.201V410.894C309.925 410.485 310.205 410.332 310.615 410.434L316.368 411.354C316.777 411.457 316.981 411.661 316.981 411.967V412.274C316.981 412.734 316.853 413.297 316.598 413.961C315.728 417.079 313.862 419.583 310.999 421.473C308.135 423.365 304.785 424.31 300.951 424.31C297.116 424.31 293.741 423.326 290.979 421.359H290.978Z" fill="black"/>
<path d="M353.031 387.781C355.486 390.21 356.713 393.493 356.713 397.633V422.931C356.713 423.442 356.457 423.697 355.946 423.697H350.117C349.606 423.697 349.35 423.442 349.35 422.931V399.089C349.35 396.534 348.608 394.464 347.126 392.879C345.642 391.296 343.674 390.503 341.22 390.503C338.765 390.503 336.847 391.296 335.313 392.879C333.779 394.464 333.012 396.508 333.012 399.012V422.93C333.012 423.441 332.755 423.696 332.245 423.696H326.416C325.904 423.696 325.648 423.441 325.648 422.93V370.8C325.648 370.29 325.904 370.034 326.416 370.034H332.245C332.755 370.034 333.012 370.29 333.012 370.8V388.203C333.012 388.306 333.05 388.382 333.127 388.432C333.203 388.483 333.266 388.458 333.319 388.356C335.517 385.546 338.765 384.14 343.06 384.14C347.355 384.14 350.576 385.354 353.031 387.781Z" fill="black"/>
<path d="M389.653 385.712C391.98 386.811 393.769 388.345 395.022 390.311C396.275 392.279 396.901 394.516 396.901 397.018V422.93C396.901 423.441 396.644 423.696 396.134 423.696H390.304C389.793 423.696 389.537 423.441 389.537 422.93V420.169C389.537 419.914 389.409 419.863 389.154 420.016C387.824 421.396 386.202 422.457 384.283 423.198C382.366 423.938 380.23 424.31 377.878 424.31C374.094 424.31 370.961 423.351 368.481 421.435C366.001 419.519 364.762 416.619 364.762 412.734C364.762 408.849 366.154 405.618 368.942 403.343C371.728 401.07 375.627 399.932 380.64 399.932H389.231C389.434 399.932 389.537 399.83 389.537 399.625V397.556C389.537 395.308 388.885 393.557 387.581 392.304C386.278 391.053 384.295 390.427 381.636 390.427C379.488 390.427 377.736 390.848 376.382 391.692C375.027 392.535 374.196 393.673 373.89 395.103C373.737 395.614 373.43 395.845 372.969 395.793L366.756 394.95C366.245 394.848 366.014 394.643 366.066 394.336C366.475 391.322 368.086 388.855 370.899 386.939C373.71 385.022 377.239 384.064 381.484 384.064C384.603 384.064 387.326 384.613 389.653 385.712ZM386.547 415.954C388.542 414.524 389.538 412.709 389.538 410.511V405.988C389.538 405.785 389.435 405.681 389.232 405.681H382.022C379.003 405.681 376.601 406.27 374.812 407.444C373.021 408.621 372.127 410.256 372.127 412.35C372.127 414.241 372.805 415.673 374.16 416.644C375.515 417.615 377.291 418.1 379.492 418.1C382.201 418.1 384.554 417.384 386.548 415.953L386.547 415.954Z" fill="black"/>
<path d="M408.33 422.317C407.409 421.397 406.949 420.223 406.949 418.79C406.949 417.358 407.409 416.184 408.33 415.264C409.251 414.344 410.426 413.884 411.859 413.884C413.292 413.884 414.467 414.344 415.388 415.264C416.308 416.184 416.768 417.36 416.768 418.79C416.768 420.221 416.308 421.397 415.388 422.317C414.467 423.237 413.291 423.697 411.859 423.697C410.427 423.697 409.251 423.237 408.33 422.317Z" fill="black"/>
<path d="M428.889 377.163C427.968 376.243 427.508 375.069 427.508 373.637C427.508 372.204 427.968 371.03 428.889 370.11C429.809 369.19 430.984 368.73 432.417 368.73C433.85 368.73 435.026 369.19 435.946 370.11C436.867 371.03 437.327 372.205 437.327 373.637C437.327 375.068 436.867 376.243 435.946 377.163C435.026 378.083 433.849 378.543 432.417 378.543C430.985 378.543 429.809 378.083 428.889 377.163ZM428.582 422.853V385.443C428.582 384.933 428.838 384.676 429.349 384.676H435.178C435.688 384.676 435.945 384.933 435.945 385.443V422.853C435.945 423.365 435.688 423.62 435.178 423.62H429.349C428.838 423.62 428.582 423.365 428.582 422.853Z" fill="black"/>
<path d="M474.91 387.781C477.365 390.21 478.592 393.493 478.592 397.633V422.931C478.592 423.442 478.336 423.697 477.825 423.697H471.996C471.485 423.697 471.229 423.442 471.229 422.931V399.089C471.229 396.534 470.487 394.464 469.005 392.879C467.521 391.296 465.553 390.503 463.098 390.503C460.644 390.503 458.726 391.296 457.192 392.879C455.658 394.464 454.891 396.508 454.891 399.012V422.93C454.891 423.441 454.634 423.696 454.124 423.696H448.294C447.783 423.696 447.527 423.441 447.527 422.93V385.443C447.527 384.933 447.783 384.676 448.294 384.676H454.124C454.634 384.676 454.891 384.933 454.891 385.443V388.203C454.891 388.306 454.929 388.382 455.006 388.432C455.082 388.483 455.145 388.458 455.198 388.356C457.396 385.546 460.644 384.14 464.939 384.14C469.233 384.14 472.455 385.354 474.91 387.781Z" fill="black"/>
<path d="M259.416 6.52784C122.579 6.52784 11.5898 117.383 11.5898 254.132C11.5898 320.691 33.3199 355.625 33.3199 355.625H137.892C137.892 355.625 180.283 277.185 182.303 275.166C186.675 270.797 249.028 302.739 252.946 306.654C253.75 307.457 270.264 355.624 270.264 355.624H483.92C483.92 355.624 507.22 329.496 507.22 254.131C507.22 117.381 396.255 6.52576 259.416 6.52576V6.52784ZM335.945 257.089C282.756 297.901 197.631 278.343 172.438 208.742C165.156 188.624 163.964 168.374 168.559 147.66C171.311 135.251 175.616 133.58 186.193 140.361C208.634 154.748 230.689 168.797 254.698 184.132C257.021 180.026 260.128 176.113 262.209 171.649C263.18 169.565 263.603 166.842 263.226 164.583C261.625 154.989 266.578 146.574 275.493 144.428C284.41 142.282 293.323 147.788 295.522 156.801C297.66 165.562 292.112 173.673 282.915 176.6C280.888 177.246 279.484 177.81 278.935 178.618C278.386 179.425 269.093 193.766 269.093 193.766C269.093 193.766 294.117 210.369 301.977 215.568C313.096 222.923 324.118 230.227 335.336 237.42C346.147 244.351 346.233 249.194 335.945 257.088V257.089ZM277.86 107.014C300.014 105.033 322.087 117.936 330.032 137.508C330.226 137.986 330.41 138.468 330.621 138.937C332.747 143.65 331.995 145.104 326.73 146.432C326.1 146.591 325.47 146.749 324.84 146.908C321.36 147.783 320.807 144.762 318.194 138.997C311.679 124.626 296.515 116.233 280.111 117.917C274.833 118.458 271.177 119.379 270.504 116.703C268.392 108.314 268.759 107.827 277.861 107.013L277.86 107.014ZM351.994 140.081C351.017 140.328 350.039 140.573 349.061 140.82C343.662 142.177 342.768 137.342 338.638 128.097C328.343 105.051 304.678 91.4571 279.205 93.9533C271.009 94.7566 265.339 96.1835 264.26 91.8994C260.88 78.4671 261.443 77.692 275.578 76.4987C309.982 73.5957 344.438 94.4791 357.018 125.857C357.325 126.623 357.616 127.395 357.951 128.148C361.312 135.706 360.159 138.021 351.994 140.08V140.081ZM389.735 130.583C388.253 130.98 386.76 131.335 385.27 131.706C384.443 131.912 383.616 132.12 382.789 132.327C375.759 134.088 374.203 132.95 371.177 126.432C367.389 118.276 364.006 109.64 358.628 102.557C335.233 71.7379 303.947 58.4203 264.736 64.3703C260.012 65.0869 257.142 63.6881 256.013 59.0837C255.294 56.1525 254.499 53.238 253.818 50.2974C252.589 44.9984 254.367 42.354 259.781 41.3881C293.791 35.3254 324.563 42.7035 352.285 62.5052C373.002 77.304 386.562 97.2684 395.009 120.852C396.95 126.271 395.396 129.063 389.736 130.583H389.735Z" fill="black"/>
</svg>
