<svg width="631" height="102" viewBox="0 0 631 102" fill="none" xmlns="http://www.w3.org/2000/svg">
<g clip-path="url(#clip0_8353_20130)">
<path fill-rule="evenodd" clip-rule="evenodd" d="M50.9899 0C79.1363 0 101.98 22.848 101.98 51C101.98 79.152 79.1363 102 50.9899 102C22.8435 102 0 79.152 0 51C0 22.848 22.8435 0 50.9899 0ZM553.489 27.2123C565.514 27.2123 572.913 34.0617 572.913 52.5735V57.5717C572.913 77.5644 563.294 83.8584 549.42 83.6733C546.09 83.6733 541.465 83.3031 538.69 82.5626V101.815H526.111V28.5082H537.765V32.0254C542.575 28.6933 548.31 27.2123 553.489 27.2123ZM75.2611 63.036L50.9899 77.112L26.7187 63.036L21.4158 66.096V73.644L50.9899 90.78V83.232L80.564 66.096L75.2611 63.036ZM606.766 27.3975C624.71 27.3975 631 39.0599 631 55.3503V59.608H595.112L595.113 60.9426C595.154 68.6645 596.448 73.4918 609.356 73.4918C615.091 73.4918 621.751 72.9365 628.78 72.196V81.637C624.71 82.5626 617.681 83.8584 608.801 83.8584C589.377 83.8584 582.533 76.4537 582.533 57.5717V54.2396C582.533 36.098 590.672 27.3975 606.766 27.3975ZM491.148 27.3975C508.352 27.3975 512.792 33.3212 512.792 47.02V82.3775H501.322V78.8603C497.992 81.2668 491.888 83.8584 484.303 83.8584C474.314 83.8584 468.579 78.8603 468.579 68.4936V66.4574C468.579 52.0182 478.938 50.167 493.923 50.167H500.027V46.8348C500.027 39.245 498.547 37.7641 488.928 37.7641C483.563 37.7641 478.014 38.1343 472.094 38.8748V30.3593C474.499 29.4338 482.453 27.3975 491.148 27.3975ZM235.862 27.3975C251.586 27.3975 260.096 35.3575 260.096 52.2033V58.8675C260.096 75.8984 251.586 83.8584 235.862 83.8584C220.138 83.8584 211.628 75.8984 211.628 58.8675V52.2033C211.628 35.3575 220.138 27.3975 235.862 27.3975ZM140.592 8.33031V29.9891C144.477 28.1379 149.102 27.3975 153.172 27.3975C167.971 27.3975 174.815 34.9873 174.815 51.2777V58.6824C174.815 76.6388 166.121 83.8584 149.472 83.8584C142.442 83.8584 137.632 83.4882 128.013 82.3775V8.33031H140.592ZM443.79 27.2123C452.115 27.2123 458.035 28.5082 460.439 29.2486V38.8748C453.595 38.3194 448.97 37.9492 446.01 37.9492C438.241 37.9492 433.801 40.3557 433.801 52.0182V58.8675C433.801 70.5299 438.241 73.1216 446.01 73.1216C448.97 73.1216 453.595 72.7514 460.439 72.196V81.8221C457.85 82.5626 451.93 83.8584 443.79 83.6733C428.436 83.6733 421.222 74.9728 421.222 58.8675V52.0182C421.222 35.5427 428.436 27.2123 443.79 27.2123ZM292.469 27.2123C300.793 27.2123 306.713 28.5082 309.118 29.2486V38.8748C302.273 38.3194 297.648 37.9492 294.689 37.9492C286.919 37.9492 282.479 40.3557 282.479 52.0182V58.8675C282.479 70.5299 286.919 73.1216 294.689 73.1216C297.648 73.1216 302.273 72.7514 309.118 72.196V81.8221C306.528 82.5626 300.608 83.8584 292.469 83.6733C277.115 83.6733 269.9 74.9728 269.9 58.8675V52.0182C269.9 35.5427 277.115 27.2123 292.469 27.2123ZM393.288 27.3975C399.393 27.3975 407.532 28.5082 410.122 29.4338V38.1343C404.018 37.5789 398.098 37.2087 393.473 37.2087C386.999 37.2087 384.224 37.7641 384.224 41.6515C384.224 45.1688 386.074 46.0944 392.733 48.686L396.988 50.3521C408.642 54.98 412.527 58.6824 412.712 67.5681C412.712 77.7495 405.868 83.8584 390.883 83.4882C383.484 83.4882 374.974 82.1924 372.569 81.4519V72.5662C375.344 72.7514 383.484 73.8621 390.328 73.8621C398.283 73.8621 400.318 72.196 400.318 68.3085C400.318 64.6062 398.653 63.6806 390.698 60.5336L386.629 58.8675C376.454 54.98 371.829 50.3521 371.829 42.0218C371.829 31.2849 379.044 27.3975 393.288 27.3975ZM332.427 8.14519V52.5735L351.48 28.6933H365.725L345.006 54.4247L366.28 82.3775V82.5626H351.48L332.427 57.0163V82.1924H319.847V8.14519H332.427ZM199.604 8.33031V82.3775H187.025V8.33031H199.604ZM500.582 58.127H493.923C484.673 58.127 480.788 59.2378 480.788 66.2722V68.4936C480.788 73.4918 483.933 74.7877 488.373 74.7877C493.368 74.7877 498.732 72.5662 500.582 71.4555V58.127ZM550.159 38.3194C546.645 38.3194 543.685 38.8748 538.505 41.0962V72.196C542.205 72.9365 545.535 73.3067 548.495 73.3067C556.079 73.3067 560.519 70.7151 560.519 57.5717V52.7586C560.519 41.6515 557.189 38.3194 550.159 38.3194ZM151.507 37.9492C149.102 37.9492 143.737 38.3194 140.407 39.9855V72.7514C142.442 72.7514 145.772 73.1216 149.657 73.1216C158.351 73.1216 162.236 69.9746 162.236 58.6824V51.0926C162.236 41.2813 159.461 37.9492 151.507 37.9492ZM236.047 38.1343C228.092 38.1343 224.393 41.8367 224.393 52.2033V58.8675C224.393 69.2341 227.907 73.1216 236.047 73.1216C244.186 73.1216 247.701 69.2341 247.701 58.8675V52.2033C247.701 42.0218 244.186 38.1343 236.047 38.1343ZM75.2611 44.268L50.9899 58.344L26.7187 44.268L21.6197 47.328L21.4158 54.672L50.9899 71.808V64.26L80.564 47.328L75.2611 44.268ZM50.9899 11.22L21.6197 28.356L21.4158 35.904L50.9899 53.04V45.492L80.564 28.356L50.9899 11.22ZM606.766 37.3938C596.592 37.3938 595.112 44.2432 595.112 50.3521V51.2777H618.421V50.3521C618.421 44.2432 617.126 37.3938 606.766 37.3938Z" fill="black"/>
</g>
<defs>
<clipPath id="clip0_8353_20130">
<rect width="631" height="102" fill="white"/>
</clipPath>
</defs>
</svg>
