<svg width="658" height="172" viewBox="0 0 658 172" fill="none" xmlns="http://www.w3.org/2000/svg">
<path d="M209.589 88.5699C213.209 91.0599 215.939 94.3899 217.789 98.5799C219.629 102.77 220.559 107.38 220.559 112.42C220.559 117.46 219.639 122.08 217.789 126.26C215.939 130.45 213.209 133.79 209.589 136.27C205.969 138.75 201.639 140 196.599 140C190.989 140 185.919 138.47 181.369 135.42L181.159 138.93H168.809V59.0699H182.009V89.6299C186.339 86.4399 191.199 84.84 196.599 84.84C201.629 84.85 205.959 86.0899 209.589 88.5699ZM203.779 124.56C205.949 121.51 207.029 117.46 207.029 112.42C207.029 107.38 205.949 103.34 203.779 100.28C201.609 97.2299 198.579 95.7 194.679 95.7C190.209 95.7 186.869 97.1899 184.669 100.17C182.469 103.15 181.369 107.23 181.369 112.41C181.369 117.59 182.469 121.68 184.669 124.66C186.869 127.64 190.209 129.13 194.679 129.13C198.579 129.14 201.619 127.62 203.779 124.56Z" fill="black"/>
<path d="M233.121 136.12C230.851 133.53 229.711 130.18 229.711 126.06V59.09H242.911V120.63C242.911 123.47 243.071 125.48 243.391 126.65C243.711 127.82 244.281 128.53 245.091 128.78C245.901 129.03 247.311 129.15 249.301 129.15L248.131 140.01H243.341C238.791 140 235.391 138.71 233.121 136.12Z" fill="black"/>
<path d="M266.76 136.28C262.64 133.8 259.48 130.46 257.28 126.27C255.08 122.08 253.98 117.47 253.98 112.43C253.98 107.39 255.08 102.74 257.28 98.48C259.48 94.22 262.64 90.85 266.76 88.36C270.88 85.88 275.74 84.63 281.35 84.63C286.96 84.63 291.82 85.87 295.94 88.36C300.06 90.85 303.22 94.21 305.42 98.48C307.62 102.74 308.72 107.39 308.72 112.43C308.72 117.47 307.62 122.09 305.42 126.27C303.22 130.46 300.06 133.8 295.94 136.28C291.82 138.76 286.96 140.01 281.35 140.01C275.74 140.01 270.88 138.76 266.76 136.28ZM291.52 124.56C293.97 121.51 295.19 117.46 295.19 112.42C295.19 107.31 293.97 103.21 291.52 100.12C289.07 97.03 285.68 95.49 281.35 95.49C277.02 95.49 273.63 97.03 271.18 100.12C268.73 103.21 267.5 107.31 267.5 112.42C267.5 117.46 268.73 121.51 271.18 124.56C273.63 127.61 277.02 129.14 281.35 129.14C285.68 129.14 289.07 127.62 291.52 124.56Z" fill="black"/>
<path d="M327.4 136.33C323.17 133.88 320 130.56 317.87 126.38C315.74 122.19 314.68 117.54 314.68 112.43C314.68 107.25 315.75 102.55 317.87 98.32C320 94.1 323.19 90.76 327.45 88.31C331.71 85.86 336.89 84.63 343 84.63C348.47 84.63 353.22 85.77 357.27 88.04L356.2 98.69C352.37 96.7 348.39 95.71 344.28 95.71C339.24 95.71 335.3 97.24 332.46 100.29C329.62 103.34 328.2 107.39 328.2 112.43C328.2 117.26 329.66 121.25 332.57 124.41C335.48 127.57 339.35 129.15 344.18 129.15C348.22 129.15 352.27 127.98 356.32 125.64L357.49 136.82C355.57 137.81 353.32 138.59 350.73 139.16C348.14 139.73 345.42 140.01 342.59 140.01C336.68 140 331.62 138.78 327.4 136.33Z" fill="black"/>
<path d="M366.211 59.08H379.411V107.53L395.911 85.7H410.821L391.441 111.25L411.251 138.93H396.341L379.411 115.29V138.93H366.211V59.08Z" fill="black"/>
<path d="M423.758 139.04C420.948 138.4 418.058 137.41 415.078 136.06L416.248 124.77C419.228 126.55 422.018 127.88 424.608 128.76C427.198 129.65 429.878 130.09 432.648 130.09C438.038 130.09 440.738 128.32 440.738 124.77C440.738 122.85 440.028 121.38 438.608 120.35C437.188 119.32 434.628 118.1 430.938 116.68C425.688 114.76 421.818 112.58 419.328 110.13C416.838 107.68 415.598 104.36 415.598 100.17C415.598 95.56 417.368 91.81 420.918 88.94C424.468 86.07 429.258 84.63 435.288 84.63C441.318 84.63 446.828 86.01 451.798 88.78L450.628 100.07C447.928 98.23 445.388 96.81 443.018 95.81C440.638 94.82 438.138 94.32 435.508 94.32C433.238 94.32 431.478 94.78 430.238 95.71C428.998 96.63 428.378 97.94 428.378 99.65C428.378 101 428.748 102.1 429.498 102.95C430.238 103.8 431.288 104.57 432.638 105.24C433.988 105.92 436.218 106.86 439.348 108.06C444.528 110.05 448.258 112.23 450.528 114.61C452.798 116.99 453.938 120.17 453.938 124.14C453.938 129.18 452.128 133.09 448.508 135.85C444.888 138.62 439.738 140 433.068 140C429.668 140 426.558 139.68 423.758 139.04Z" fill="black"/>
<path d="M504.898 91.4C508.198 95.76 509.848 101.74 509.848 109.34V138.94H496.648V110.3C496.648 105.26 495.828 101.57 494.198 99.22C492.568 96.88 489.978 95.71 486.428 95.71C482.238 95.71 478.798 97.24 476.098 100.29V138.94H462.898V59.08H476.098V89.11C478.228 87.76 480.388 86.72 482.588 85.97C484.788 85.22 487.198 84.85 489.828 84.85C496.568 84.85 501.598 87.03 504.898 91.4Z" fill="black"/>
<path d="M522.139 135.69C519.189 132.81 517.719 128.93 517.719 124.03C517.719 119.42 519.389 115.71 522.719 112.9C526.049 110.1 529.999 108.11 534.539 106.94C539.079 105.77 543.449 105.11 547.639 104.97C547.499 101.85 546.699 99.61 545.249 98.26C543.789 96.91 541.399 96.24 538.059 96.24C535.719 96.24 533.429 96.56 531.189 97.2C528.949 97.84 526.379 98.87 523.469 100.29L522.299 89.53C528.759 86.41 535.219 84.85 541.679 84.85C547.919 84.85 552.699 86.55 555.999 89.96C559.299 93.37 560.949 98.8 560.949 106.25V120.62C560.949 123.32 561.069 125.25 561.319 126.42C561.569 127.59 561.989 128.34 562.599 128.66C563.199 128.98 564.209 129.14 565.629 129.14H567.329L566.159 140H561.369C558.459 140 556.009 139.45 554.019 138.35C552.029 137.25 550.509 135.74 549.439 133.82C547.739 135.74 545.409 137.25 542.469 138.35C539.529 139.45 536.419 140 533.149 140C528.759 140 525.089 138.56 522.139 135.69ZM543.279 128.88C544.979 128.21 546.469 127.27 547.749 126.06V113.92C543.489 114.13 539.729 115.06 536.459 116.69C533.189 118.32 531.559 120.59 531.559 123.5C531.559 125.7 532.129 127.32 533.259 128.35C534.389 129.38 536.199 129.89 538.689 129.89C540.049 129.89 541.579 129.55 543.279 128.88Z" fill="black"/>
<path d="M574.691 85.7H587.041L587.361 91.34C588.921 89.57 590.931 88 593.381 86.66C595.831 85.31 598.401 84.63 601.101 84.63C601.951 84.63 602.731 84.7 603.441 84.84L602.481 97.83C601.131 97.48 599.601 97.3 597.901 97.3C595.701 97.3 593.671 97.82 591.831 98.84C589.981 99.87 588.671 101.13 587.891 102.62V138.93H574.691V85.7Z" fill="black"/>
<path d="M657.42 59.0799V138.94H644.96L644.75 135.53C642.69 137.02 640.54 138.14 638.31 138.88C636.08 139.62 633.43 140 630.38 140C625.2 140 620.74 138.76 617.02 136.27C613.29 133.79 610.47 130.45 608.56 126.26C606.64 122.07 605.68 117.46 605.68 112.42C605.68 107.38 606.64 102.77 608.56 98.5799C610.48 94.3899 613.3 91.0599 617.02 88.5699C620.75 86.0899 625.2 84.84 630.38 84.84C635.56 84.84 640.18 86.2599 644.22 89.0999V59.0699H657.42V59.0799ZM641.72 124.67C643.81 121.69 644.86 117.61 644.86 112.42C644.86 107.24 643.81 103.16 641.72 100.18C639.63 97.1999 636.48 95.7099 632.3 95.7099C628.18 95.7099 624.97 97.2399 622.66 100.29C620.35 103.34 619.2 107.39 619.2 112.43C619.2 117.47 620.35 121.52 622.66 124.57C624.97 127.62 628.18 129.15 632.3 129.15C636.48 129.14 639.62 127.65 641.72 124.67Z" fill="black"/>
<path d="M35.1562 86.5101L58.6462 100.07L82.1462 86.5101L58.6462 72.9501L35.1562 86.5101Z" fill="black"/>
<path d="M61.707 106.59V133.72L85.197 120.15V93.03L61.707 106.59Z" fill="black"/>
<path d="M55.5681 106.59V133.72L32.0781 120.15V93.03L55.5681 106.59Z" fill="black"/>
<path d="M117.22 70.25H117.18H117.19L87.91 53.35L58.61 36.43L46.1 44.18L32.06 52.8V75.8L58.78 59.78L77.85 70.79L97.05 81.87L97.11 81.84L97.08 81.87V104.11V126.32L77.84 137.43L58.59 148.55L58.57 148.59V148.52L39.37 137.43L20.13 126.32V117.36V79.69V78.94V55.59V54.89V49.32V37.38V37.37V30.79V24.8V24.52V12.57V0L0 11.63V24.2V36.15V42.41V66.51V91.06V137.95L29.3 154.87L58.57 171.77V171.73L58.59 171.8L87.91 154.87L117.22 137.95V104.11V70.25Z" fill="black"/>
</svg>
