<svg width="564" height="120" viewBox="0 0 564 120" fill="none" xmlns="http://www.w3.org/2000/svg">
<g clip-path="url(#clip0_8353_19976)">
<path d="M143.657 119.085H126.719V73.413H142.635C152.145 73.413 156.11 78.2905 156.11 84.0646C156.11 87.9558 154.406 91.1297 150.799 92.887C157.51 94.6623 160.309 99.3425 160.309 104.883C160.309 112.433 155.375 119.068 143.675 119.068L143.657 119.085ZM131.276 77.6629V91.847H142.617C148.951 91.847 151.445 88.1889 151.445 84.5308C151.445 80.8727 149.615 77.6449 142.617 77.6449H131.276V77.6629ZM131.276 95.8099V114.818H143.962C152.127 114.818 155.536 110.12 155.536 105.081C155.536 100.042 153.042 95.8278 143.962 95.8278H131.276V95.8099Z" fill="black"/>
<path d="M171.576 100.813V119.085H167V73.413H183.095C193.09 73.413 198.886 79.205 198.886 87.0592C198.886 92.9588 195.71 97.7107 189.986 99.737L198.706 119.103H193.7L185.41 100.705C184.674 100.759 183.939 100.831 183.149 100.831H171.576V100.813ZM171.576 77.6629V96.5451H183.149C191.08 96.5451 194.113 92.098 194.113 87.0412C194.113 81.9845 191.134 77.6629 183.382 77.6629H171.558H171.576Z" fill="black"/>
<path d="M206.547 119.085V73.413H211.122V119.085H206.547Z" fill="black"/>
<path d="M243.189 120C229.605 120 219.539 109.653 219.539 96.312C219.539 82.9707 229.587 72.5523 243.189 72.5523C253.919 72.5523 262.568 79.1871 265.618 89.2469H260.737C257.938 81.9307 251.712 76.9456 243.189 76.9456C232.153 76.9456 224.294 85.1584 224.294 96.312C224.294 107.466 232.153 115.625 243.189 115.625C251.837 115.625 258.243 110.442 260.863 102.839H265.618C262.514 113.132 254.098 120.018 243.189 120.018V120Z" fill="black"/>
<path d="M283.401 96.5631H277.802V119.103H273.227V73.431H277.802V92.3132H283.042L298.706 73.431H304.376L287.366 94.0705L305.292 119.103H299.621L283.401 96.5631Z" fill="black"/>
<path d="M329.552 119.085V77.6629H317.781V73.3951H345.935V77.6629H334.11V119.085H329.534H329.552Z" fill="black"/>
<path d="M368.97 120C355.315 120 345.195 109.653 345.195 96.312C345.195 82.9707 355.315 72.5523 368.97 72.5523C382.625 72.5523 392.746 82.899 392.746 96.312C392.746 109.725 382.697 120 368.97 120ZM368.97 115.607C380.06 115.607 387.991 107.376 387.991 96.2941C387.991 85.2122 380.06 76.9277 368.97 76.9277C357.881 76.9277 349.95 85.1405 349.95 96.2941C349.95 107.448 357.881 115.607 368.97 115.607Z" fill="black"/>
<path d="M423.216 97.6569L417.241 119.103H406.995L395.422 73.431H400.231L410.71 114.854H413.581L420.704 90.3048V84.0287H425.711V90.3048L432.834 114.854H435.705L446.13 73.431H450.939L439.419 119.103H429.174L423.198 97.6569H423.216Z" fill="black"/>
<path d="M486.486 119.085H458.027V73.413H485.517V77.6808H462.603V92.2953H484.548V96.5631H462.603V114.836H486.486V119.103V119.085Z" fill="black"/>
<path d="M498.361 100.813V119.085H493.785V73.413H509.88C519.875 73.413 525.671 79.205 525.671 87.0592C525.671 92.9588 522.495 97.7107 516.771 99.737L525.491 119.103H520.485L512.195 100.705C511.46 100.759 510.724 100.831 509.934 100.831H498.361V100.813ZM498.361 77.6629V96.5451H509.934C517.865 96.5451 520.898 92.098 520.898 87.0412C520.898 81.9845 517.919 77.6629 510.168 77.6629H498.343H498.361Z" fill="black"/>
<path d="M529.691 119.085V114.585H547.671C555.835 114.585 559.244 109.886 559.244 104.848C559.244 99.8087 556.75 95.5947 547.671 95.5947H542.18C535.164 95.5947 529.996 91.1476 529.996 84.6922C529.996 78.2367 535.182 73.431 542.557 73.431H561.093V77.9319H542.324C537.21 77.9319 534.769 80.9803 534.769 84.6922C534.769 88.171 537.21 91.0938 542.324 91.0938H547.689C559.208 91.0938 564.017 97.4955 564.017 104.794C564.017 112.092 559.083 119.103 547.384 119.103H529.709L529.691 119.085Z" fill="black"/>
<path d="M75.1126 98.9659H39.082V119.085H75.1126V98.9659Z" fill="black"/>
<path d="M36.0305 98.9659H0V119.085H36.0305V98.9659Z" fill="black"/>
<path d="M36.0305 52.4865H0V72.6061H36.0305V52.4865Z" fill="black"/>
<path d="M55.5696 75.7263H19.5391V95.8458H55.5696V75.7263Z" fill="black"/>
<path d="M75.1112 75.7263H58.6211V95.8458H75.1112V75.7263Z" fill="black"/>
<path d="M16.4901 75.7263H0V95.8458H16.4901V75.7263Z" fill="black"/>
<path d="M123.126 20.801C123.126 20.801 119.233 23.0604 116.021 23.939C116.021 23.939 122.983 20.1913 123.126 11.3867C123.126 11.3867 119.304 15.6186 115.967 16.6408C115.967 16.6408 123.126 10.5619 120.399 0C120.399 0 96.4983 25.786 92.8916 28.0454C89.2671 30.3048 85.786 37.1907 89.8951 42.2295C89.8951 42.2295 82.4485 35.3437 90.5769 27.7585C98.7053 20.1733 98.49 16.6408 96.5162 12.6778C96.5162 12.6778 95.637 18.0753 94.3989 19.4381C94.3989 19.4381 94.8834 13.0185 90.4334 8.93007C90.4334 8.93007 90.7743 14.7221 89.8233 17.3939C89.8233 17.3939 90.5052 8.73282 83.3457 6.06097C83.3457 6.06097 85.804 12.3371 85.1939 16.569C85.1939 16.569 85.2657 5.91751 75.0199 4.35744C75.0199 4.35744 78.501 9.75493 79.5955 15.2779C80.6901 20.801 79.7391 23.8135 83.6149 28.8524C83.6149 28.8524 76.2401 27.5613 73.4409 30.5559C70.6417 33.5505 72.3463 39.6294 72.3463 39.6294L71.18 44.5427C71.18 44.5427 74.4637 41.6019 75.8991 41.6736C77.3346 41.7454 76.9937 42.5523 80.2594 42.0861C80.2594 42.0861 81.4078 47.107 84.853 51.2672C84.3685 51.1417 83.8661 51.0699 83.3457 51.0699C82.4844 51.0699 81.659 51.2493 80.9054 51.59L60.9343 41.6736L51.9805 59.6952L84.2608 75.7083L93.2146 57.6868L89.1235 55.6605C89.0517 55.3377 88.962 55.0329 88.8364 54.746C90.4513 55.7143 92.3533 56.4136 94.5783 56.6109C94.5783 56.6109 95.3499 56.5929 95.96 61.9008C96.5701 67.2265 100.051 69.468 100.051 69.468C100.051 69.468 98.3465 64.8954 99.441 60.1255C99.441 60.1255 98.49 68.4459 106.403 70.6336C106.403 70.6336 104.483 66.5451 104.77 63.3353C104.77 63.3353 107.91 73.6999 119.179 71.8709C119.179 71.8709 99.2257 58.1172 96.4983 43.9869C96.4983 43.9869 99.8358 50.4065 111.176 47.3222C111.176 47.3222 104.627 44.2558 102.294 41.5302C102.294 41.5302 111.445 45.5469 119.017 38.8763C119.017 38.8763 113.347 38.679 109.741 37.2983C109.741 37.2983 119.915 36.8141 122.032 29.8565C122.032 29.8565 116.021 31.1476 113.491 30.8069C113.491 30.8069 121.206 29.1034 123.108 20.783L123.126 20.801Z" fill="black"/>
</g>
<defs>
<clipPath id="clip0_8353_19976">
<rect width="564" height="120" fill="white"/>
</clipPath>
</defs>
</svg>
