<svg width="370" height="100" viewBox="0 0 370 100" fill="none" xmlns="http://www.w3.org/2000/svg">
<g clip-path="url(#clip0_8401_33180)">
<path d="M140.325 44.8998C150.176 44.8998 157.844 40.0289 158.717 29.1006H149.614C148.305 34.596 144.814 36.8441 140.325 36.8441C132.656 36.8441 129.601 30.5993 129.601 22.4187C129.601 14.238 132.719 8.05574 140.325 8.05574C144.876 8.05574 148.305 10.3038 149.614 15.7368H158.717C157.844 4.87091 150.176 0 140.325 0C127.98 0 120 8.30552 120 22.4187C120 36.5943 127.98 44.8998 140.325 44.8998Z" fill="black"/>
<path d="M226.002 44.8998C238.596 44.8998 246.825 35.7825 246.825 22.4187C246.825 8.99245 238.596 0 226.002 0C213.408 0 205.178 8.99245 205.178 22.4187C205.178 35.7825 213.408 44.8998 226.002 44.8998ZM226.002 36.8441C218.832 36.8441 214.779 31.0989 214.779 22.4187C214.779 13.676 218.832 8.05574 226.002 8.05574C233.171 8.05574 237.224 13.676 237.224 22.4187C237.224 31.0989 233.171 36.8441 226.002 36.8441Z" fill="#1E1E1E"/>
<path d="M310.039 44.8998C320.638 44.8998 327.994 39.342 327.994 27.6643V0.562012H318.58V26.9773C318.58 33.4719 315.401 36.7816 310.039 36.7816C304.677 36.7816 301.435 33.4719 301.435 26.9773V0.562012H292.021V27.6643C292.021 39.342 299.315 44.8998 310.039 44.8998Z" fill="#1E1E1E"/>
<path d="M351.791 44.8998C361.704 44.8998 369.497 40.8407 369.497 31.4111C369.497 24.7917 365.569 20.8575 355.344 18.9216L349.484 17.7976C345.556 17.1106 344.496 14.9874 344.496 12.9891C344.496 10.3038 346.367 7.7435 351.354 7.7435C355.594 7.7435 358.836 9.49203 358.711 13.4262H368.312C368.312 4.49623 361.205 0 351.23 0C341.441 0 334.708 4.24644 334.708 12.6144C334.708 20.5452 340.506 23.6676 347.364 25.0415L353.661 26.228C357.589 26.9773 359.584 28.4761 359.584 31.4736C359.584 35.0331 356.903 37.1563 351.853 37.1563C345.868 37.1563 343.374 33.909 343.187 29.9748H333.523C333.523 39.5918 340.631 44.8998 351.791 44.8998Z" fill="#1E1E1E"/>
<path d="M191.592 1V18.6914H182.41V26.3086H191.592V44H201V1H191.592Z" fill="#1E1E1E"/>
<path d="M174.408 18.6914H174.41V26.3086H174.408V44H165V1H174.408V18.6914Z" fill="#1E1E1E"/>
<path fill-rule="evenodd" clip-rule="evenodd" d="M236.286 99H205.861V56H235.663V63.9857H215.213V73.63H233.792V80.8171H215.213V91.0143H236.286V99Z" fill="#1E1E1E"/>
<path d="M140.824 99.8998C153.418 99.8998 161.647 90.7825 161.647 77.4187C161.647 63.9925 153.418 55 140.824 55C128.23 55 120 63.9925 120 77.4187C120 90.7825 128.23 99.8998 140.824 99.8998ZM140.824 91.8441C133.654 91.8441 129.601 86.0989 129.601 77.4187C129.601 68.676 133.654 63.0557 140.824 63.0557C147.993 63.0557 152.046 68.676 152.046 77.4187C152.046 86.0989 147.993 91.8441 140.824 91.8441Z" fill="#1E1E1E"/>
<path fill-rule="evenodd" clip-rule="evenodd" d="M0.0273438 88.8712L11.1868 99.9801L22.3463 88.8712L11.1868 77.7622L0.0273438 88.8712Z" fill="black"/>
<path fill-rule="evenodd" clip-rule="evenodd" d="M100.464 11.109L89.3039 0L78.1445 11.109L89.3039 22.218L100.464 11.109Z" fill="black"/>
<path fill-rule="evenodd" clip-rule="evenodd" d="M61.405 61.0988L50.2454 72.2079L39.086 61.0988L27.9265 49.9898L39.086 38.8809L50.2454 27.7719L61.405 38.8809L72.5643 49.9898L61.405 61.0988ZM94.8833 49.9896L83.7237 38.8807L72.5643 27.7716L61.4047 16.6626L50.2454 5.55365L39.0858 16.6626L27.9264 27.7716L16.7669 38.8807L5.60742 49.9896L16.7669 61.0985L27.9264 72.2077L39.0858 83.3166L50.2454 94.4255L61.4047 83.3166L72.5643 72.2077L83.7237 61.0985L94.8833 49.9896Z" fill="black"/>
<path fill-rule="evenodd" clip-rule="evenodd" d="M78.1309 88.891L89.2904 100L100.45 88.891L89.2904 77.782L78.1309 88.891Z" fill="black"/>
<path fill-rule="evenodd" clip-rule="evenodd" d="M22.319 11.116L11.1595 0.00701904L0 11.116L11.1595 22.225L22.319 11.116Z" fill="black"/>
<path d="M174.138 56H165V99H174.137V71.2957H174.138V56Z" fill="#1E1E1E"/>
<path d="M182.139 84.1792L191.133 99H201.001V56H191.864V84.2571H191.681L182.139 68.5604V84.1792Z" fill="#1E1E1E"/>
<path d="M277.949 28.4761L287.113 44.2753H277.886L269.737 29.975V21.6069C274.836 21.6009 277.076 19.042 277.076 15.1748C277.076 11.2406 274.831 8.68019 269.719 8.68019H261.739V18.4357H261.737V30.8039H261.739V44.2753H252.387V0.562012H270.031C281.627 0.562012 286.677 6.61943 286.677 15.1748C286.677 21.4195 283.996 26.2904 277.949 28.4761Z" fill="#1E1E1E"/>
</g>
<defs>
<clipPath id="clip0_8401_33180">
<rect width="370" height="100" fill="white"/>
</clipPath>
</defs>
</svg>
