<svg width="395" height="92" viewBox="0 0 395 92" fill="none" xmlns="http://www.w3.org/2000/svg">
<g clip-path="url(#clip0_8353_20280)">
<mask id="mask0_8353_20280" style="mask-type:luminance" maskUnits="userSpaceOnUse" x="0" y="0" width="395" height="92">
<path d="M394.6 0H0V91.6H394.6V0Z" fill="white"/>
</mask>
<g mask="url(#mask0_8353_20280)">
<path d="M393.502 38.8C391.002 38.8 389.302 40.1 388.202 42V39H383.302V54.5H388.202V49.7C388.202 45.7 390.102 43.9 393.502 43.9H394.402L394.602 39C394.202 38.8 393.902 38.8 393.502 38.8ZM378.702 54.5V39H373.802V46.2C373.802 49.2 372.502 50.5 370.602 50.5C369.002 50.5 368.002 49.3 368.002 47.5V39H363.102V48.5C363.102 52.4 365.502 54.9 369.102 54.9C371.002 54.9 372.702 54.2 373.802 53V54.5H378.702ZM360.802 53.8L359.702 49.9C359.102 50.3 358.102 50.5 357.502 50.5C356.202 50.5 355.402 49.9 355.402 48.3V42.9H360.002V39H355.402V34.4H350.502V39H347.702V42.9H350.502V48.8C350.502 52.9 352.802 55 356.702 55C358.302 54.9 359.602 54.4 360.802 53.8ZM340.602 54.5H346.902L339.402 46.4L346.202 39H340.302L335.402 44.3H334.702V32.3H329.802V54.5H334.702V48.9H335.602L340.602 54.5ZM316.502 50.7C314.302 50.7 312.802 49.1 312.802 46.7C312.802 44.3 314.402 42.7 316.502 42.7C318.502 42.7 320.302 44.3 320.302 46.7C320.302 49.1 318.502 50.7 316.502 50.7ZM325.202 54.5V39H320.302V40.2C319.102 39.1 317.502 38.5 315.502 38.5C311.402 38.5 308.002 41.8 308.002 46.7C308.002 51.6 311.502 54.9 315.502 54.9C317.502 54.9 319.102 54.3 320.302 53.2V54.4H325.202V54.5ZM306.502 39H302.202V38C302.202 36.8 303.002 36.1 304.202 36.1C304.602 36.1 305.102 36.2 305.502 36.3L306.502 32.5C305.502 32.1 304.502 31.9 303.502 31.9C299.802 31.9 297.302 34.2 297.302 37.8V39H295.102V42.9H297.302V54.5H302.202V42.9H306.502V39ZM291.902 54.5V39H287.002V46.2C287.002 49.2 285.702 50.5 283.802 50.5C282.202 50.5 281.202 49.3 281.202 47.5V39H276.302V48.5C276.302 52.4 278.702 54.9 282.302 54.9C284.202 54.9 285.902 54.2 287.002 53V54.5H291.902ZM266.302 38.5C264.402 38.5 262.702 39.2 261.602 40.4V39H256.702V54.5H261.602V47.3C261.602 44.3 262.902 43 264.802 43C266.402 43 267.402 44.2 267.402 46V54.4H272.302V45C272.302 41.1 269.902 38.5 266.302 38.5ZM243.402 50.7C241.202 50.7 239.702 49.1 239.702 46.7C239.702 44.3 241.302 42.7 243.402 42.7C245.402 42.7 247.202 44.3 247.202 46.7C247.202 49.1 245.402 50.7 243.402 50.7ZM252.102 54.5V39H247.202V40.2C246.002 39.1 244.402 38.5 242.402 38.5C238.302 38.5 234.902 41.8 234.902 46.7C234.902 51.6 238.402 54.9 242.402 54.9C244.402 54.9 246.002 54.3 247.202 53.2V54.4H252.102V54.5ZM231.402 54.5V33.8H226.402L219.502 46.6L212.602 33.8H207.602V54.4H212.502V44.1L217.902 54.5H221.002L226.402 44.2V54.5H231.402Z" fill="black" fill-opacity="0.7"/>
<path d="M195.599 50.7001C193.599 50.7001 191.799 49.1 191.799 46.7001C191.799 44.3001 193.599 42.7001 195.599 42.7001C197.499 42.7001 199.299 44.3001 199.299 46.7001C199.299 49.2001 197.499 50.7001 195.599 50.7001ZM195.599 38.6C190.899 38.6 186.999 41.9001 186.999 46.7001C186.999 51.6 190.899 54.9001 195.599 54.9001C200.199 54.9001 204.099 51.6 204.099 46.7001C204.099 41.9001 200.199 38.6 195.599 38.6ZM185.599 53.8L184.499 49.9001C183.899 50.3001 182.899 50.5 182.299 50.5C180.999 50.5 180.199 49.9 180.199 48.3V42.9001H184.799V39H180.199V34.4001H175.299V39H172.499V42.9001H175.299V48.8C175.299 52.9 177.599 55 181.499 55C183.099 54.9 184.399 54.4 185.599 53.8ZM162.099 50.7001C160.099 50.7001 158.299 49.1 158.299 46.7001C158.299 44.3001 160.099 42.7001 162.099 42.7001C164.299 42.7001 165.799 44.3001 165.799 46.7001C165.799 49.1 164.199 50.7001 162.099 50.7001ZM163.099 38.5C161.099 38.5 159.499 39.1001 158.299 40.2001V39H153.399V59.7001H158.299V53.2001C159.499 54.3001 161.099 54.9001 163.099 54.9001C167.199 54.9001 170.599 51.6 170.599 46.7001C170.599 41.9001 167.199 38.5 163.099 38.5ZM141.499 59.7001L150.399 39H145.099L141.199 48L137.499 39H132.199L138.599 54L136.099 59.8H141.499V59.7001ZM129.699 38.8C127.199 38.8 125.499 40.1 124.399 42V39H119.499V54.5H124.399V49.7001C124.399 45.7001 126.299 43.9001 129.699 43.9001H130.599L130.799 39C130.399 38.8 130.099 38.8 129.699 38.8ZM115.599 46.7001L110.599 45.7001C109.899 48.8001 107.799 50.3 105.199 50.3C101.899 50.3 99.2992 47.6 99.2992 44.1C99.2992 40.6 101.899 38 105.199 38C107.899 38 109.899 39.4001 110.599 42.4001L115.599 41.2001C114.599 36.3001 110.299 33.3 105.199 33.3C99.0992 33.3 94.1992 38 94.1992 44.1C94.1992 50.2 98.9992 54.9001 105.199 54.9001C110.499 54.9001 114.699 51.9001 115.599 46.7001Z" fill="black"/>
<path d="M18.4016 47.4L1.80156 61.2C1.20156 61.7 1.20156 62.7 1.80156 63.3L35.8016 91.3C36.7016 92 38.0016 91.4 38.0016 90.3V62.8C38.0016 62.4 37.8016 62 37.5016 61.8L20.1016 47.4C19.6016 47 18.9016 47 18.4016 47.4Z" fill="black"/>
<path d="M38.0008 29V1.30003C38.0008 0.200035 36.7008 -0.399965 35.8008 0.300035L1.70078 28.4C1.00078 29 1.00078 29.9 1.70078 30.5L18.5008 44.3C19.0008 44.7 19.7008 44.7 20.2008 44.3L37.5008 30C37.8008 29.7 38.0008 29.4 38.0008 29Z" fill="black"/>
<path d="M21.5992 46.9001L37.7992 60.3001C38.2992 60.7001 38.9992 60.7001 39.4992 60.3001L55.6992 46.9001C56.2992 46.4001 56.2992 45.4001 55.6992 44.8001L39.4992 31.5001C38.9992 31.1001 38.2992 31.1001 37.7992 31.5001L21.5992 44.8001C20.8992 45.4001 20.8992 46.4001 21.5992 46.9001Z" fill="black" fill-opacity="0.2"/>
<path d="M58.9008 44.3L75.7008 30.5C76.3008 30 76.3008 29 75.7008 28.4L41.5008 0.300035C40.6008 -0.399965 39.3008 0.200035 39.3008 1.30003V29C39.3008 29.4 39.5008 29.8 39.8008 30L57.2008 44.3C57.7008 44.7 58.4008 44.7 58.9008 44.3Z" fill="black"/>
<path d="M0 33.7V58.1C0 59.2 1.3 59.8 2.2 59.1L17 46.9C17.6 46.4 17.6 45.4 17 44.8L2.2 32.6C1.3 31.9 0 32.5 0 33.7Z" fill="black"/>
<path d="M39.3008 62.8V90.3C39.3008 91.4 40.6008 92 41.5008 91.3L75.5008 63.3C76.1008 62.8 76.1008 61.8 75.5008 61.2L58.9008 47.4C58.4008 47 57.7008 47 57.2008 47.4L39.8008 61.7C39.5008 62 39.3008 62.4 39.3008 62.8Z" fill="black"/>
</g>
</g>
<defs>
<clipPath id="clip0_8353_20280">
<rect width="395" height="92" fill="white"/>
</clipPath>
</defs>
</svg>
