<svg width="460" height="271" viewBox="0 0 460 271" fill="none" xmlns="http://www.w3.org/2000/svg">
<mask id="mask0_8353_20090" style="mask-type:luminance" maskUnits="userSpaceOnUse" x="0" y="0" width="460" height="271">
<path d="M0 0H460V271H0V0Z" fill="white"/>
</mask>
<g mask="url(#mask0_8353_20090)">
<path d="M73.9089 222.53C77.5849 218.849 79.4222 213.713 79.4222 207.121C79.4222 200.48 77.5849 195.295 73.9089 191.567C70.2337 187.838 64.8889 185.973 57.8746 185.973H48.0015V228.051H57.8746C64.8889 228.051 70.2337 226.211 73.9089 222.53ZM72.2157 184.819C76.2029 186.838 79.2537 189.751 81.3677 193.552C83.4817 197.352 84.539 201.877 84.539 207.121C84.539 212.318 83.4817 216.804 81.3677 220.58C79.2537 224.358 76.2029 227.246 72.2157 229.242C68.2273 231.239 63.4473 232.237 57.8746 232.237H42.957V181.786H57.8746C63.4473 181.786 68.2273 182.798 72.2157 184.819Z" fill="black"/>
<path d="M123.957 204.161C122.659 201.755 120.894 199.903 118.66 198.603C116.426 197.305 113.963 196.655 111.273 196.655C108.486 196.655 105.988 197.281 103.778 198.532C101.568 199.783 99.8263 201.599 98.5532 203.98C97.28 206.363 96.6442 209.189 96.6442 212.461C96.6442 215.685 97.28 218.513 98.5532 220.943C99.8263 223.371 101.568 225.226 103.778 226.5C105.988 227.775 108.486 228.413 111.273 228.413C113.963 228.413 116.426 227.763 118.66 226.464C120.894 225.164 122.659 223.313 123.957 220.906C125.253 218.5 125.902 215.709 125.902 212.534C125.902 209.358 125.253 206.567 123.957 204.161ZM93.9417 201.815C95.5503 198.76 97.7847 196.402 100.643 194.742C103.502 193.082 106.733 192.252 110.337 192.252C114.084 192.252 117.314 193.118 120.029 194.851C122.742 196.582 124.701 198.797 125.902 201.492V192.83H130.947V232.237H125.902V223.504C124.653 226.199 122.671 228.424 119.957 230.18C117.242 231.938 114.012 232.815 110.264 232.815C106.708 232.815 103.502 231.973 100.643 230.288C97.7847 228.605 95.5503 226.222 93.9417 223.144C92.331 220.065 91.5273 216.503 91.5273 212.461C91.5273 208.42 92.331 204.872 93.9417 201.815Z" fill="black"/>
<path d="M149.035 197.088V221.555C149.035 223.963 149.492 225.622 150.404 226.535C151.317 227.45 152.927 227.907 155.233 227.907H159.845V232.238H154.44C150.884 232.238 148.243 231.406 146.513 229.747C144.783 228.087 143.919 225.357 143.919 221.555V197.088H138.441V192.83H143.919V182.941H149.035V192.83H159.845V197.088H149.035Z" fill="black"/>
<path d="M198.257 204.161C196.96 201.755 195.195 199.903 192.961 198.603C190.726 197.305 188.264 196.655 185.574 196.655C182.787 196.655 180.288 197.281 178.079 198.532C175.869 199.783 174.127 201.599 172.855 203.98C171.581 206.363 170.945 209.189 170.945 212.461C170.945 215.685 171.581 218.513 172.855 220.943C174.127 223.371 175.869 225.226 178.079 226.5C180.288 227.775 182.787 228.413 185.574 228.413C188.264 228.413 190.726 227.763 192.961 226.464C195.195 225.164 196.96 223.313 198.257 220.906C199.554 218.5 200.203 215.709 200.203 212.534C200.203 209.358 199.554 206.567 198.257 204.161ZM168.242 201.815C169.851 198.76 172.085 196.402 174.945 194.742C177.802 193.082 181.034 192.252 184.637 192.252C188.384 192.252 191.615 193.118 194.33 194.851C197.043 196.582 199.002 198.797 200.203 201.492V192.83H205.248V232.237H200.203V223.504C198.954 226.199 196.972 228.424 194.257 230.18C191.543 231.938 188.313 232.815 184.565 232.815C181.009 232.815 177.802 231.973 174.945 230.288C172.085 228.605 169.851 226.222 168.242 223.144C166.632 220.065 165.828 216.503 165.828 212.461C165.828 208.42 166.632 204.872 168.242 201.815Z" fill="black"/>
<path d="M254.756 232.238H249.712L221.822 189.798V232.238H216.777V181.786H221.822L249.712 224.154V181.786H254.756V232.238Z" fill="black"/>
<path d="M294.931 202.862C293.705 200.793 292.036 199.23 289.922 198.17C287.807 197.113 285.501 196.582 283.004 196.582C279.257 196.582 276.06 197.786 273.419 200.192C270.776 202.597 269.311 205.99 269.023 210.368H296.696C296.743 207.434 296.156 204.932 294.931 202.862ZM301.668 214.482H269.023C269.166 217.466 269.888 220.015 271.184 222.132C272.482 224.25 274.187 225.85 276.302 226.932C278.415 228.015 280.721 228.557 283.219 228.557C286.486 228.557 289.237 227.763 291.472 226.174C293.705 224.586 295.183 222.446 295.903 219.752H301.236C300.274 223.6 298.22 226.741 295.075 229.17C291.927 231.6 287.976 232.815 283.219 232.815C279.52 232.815 276.204 231.985 273.275 230.325C270.344 228.665 268.05 226.307 266.392 223.252C264.735 220.196 263.906 216.624 263.906 212.534C263.906 208.444 264.722 204.859 266.356 201.779C267.989 198.701 270.271 196.342 273.203 194.706C276.133 193.071 279.472 192.252 283.219 192.252C286.967 192.252 290.246 193.071 293.057 194.706C295.867 196.342 298.029 198.544 299.542 201.31C301.056 204.078 301.812 207.145 301.812 210.513C301.812 212.245 301.765 213.569 301.668 214.482Z" fill="black"/>
<path d="M331.647 232.238L321.486 216.358L311.684 232.238H306.352L319.035 212.534L306.496 192.83H312.189L322.206 208.491L331.935 192.83H337.196L324.657 212.318L337.341 232.238H331.647Z" fill="black"/>
<path d="M378.276 192.83V232.238H373.231V225.309C372.078 227.763 370.3 229.639 367.898 230.938C365.495 232.238 362.805 232.887 359.827 232.887C355.118 232.887 351.275 231.433 348.297 228.521C345.317 225.61 343.828 221.387 343.828 215.853V192.83H348.801V215.277C348.801 219.559 349.87 222.831 352.008 225.091C354.145 227.354 357.064 228.484 360.764 228.484C364.559 228.484 367.585 227.283 369.845 224.875C372.102 222.469 373.231 218.933 373.231 214.265V192.83H378.276Z" fill="black"/>
<path d="M392.292 229.675C389.433 227.582 387.835 224.731 387.5 221.122H392.689C392.929 223.336 393.973 225.128 395.823 226.5C397.673 227.871 400.159 228.557 403.282 228.557C406.02 228.557 408.17 227.907 409.732 226.608C411.293 225.309 412.074 223.698 412.074 221.771C412.074 220.426 411.642 219.317 410.777 218.452C409.912 217.586 408.819 216.9 407.498 216.395C406.176 215.889 404.387 215.349 402.129 214.771C399.198 214.002 396.82 213.231 394.995 212.461C393.168 211.692 391.619 210.549 390.347 209.033C389.073 207.517 388.437 205.485 388.437 202.933C388.437 201.01 389.013 199.23 390.166 197.593C391.319 195.958 392.952 194.659 395.067 193.696C397.18 192.734 399.582 192.252 402.273 192.252C406.5 192.252 409.912 193.323 412.507 195.463C415.101 197.605 416.494 200.553 416.687 204.306H411.642C411.498 201.996 410.597 200.132 408.939 198.712C407.282 197.293 405.012 196.583 402.129 196.583C399.582 196.583 397.517 197.185 395.932 198.387C394.346 199.591 393.553 201.083 393.553 202.862C393.553 204.402 394.022 205.665 394.958 206.652C395.896 207.639 397.06 208.408 398.453 208.961C399.846 209.515 401.721 210.127 404.075 210.801C406.909 211.572 409.167 212.318 410.849 213.038C412.53 213.76 413.972 214.82 415.173 216.214C416.374 217.611 416.998 219.462 417.047 221.771C417.047 223.89 416.471 225.777 415.317 227.437C414.164 229.097 412.554 230.41 410.489 231.372C408.423 232.334 406.045 232.815 403.354 232.815C398.838 232.815 395.15 231.769 392.292 229.675Z" fill="black"/>
<path d="M233.867 165.818L231.766 162.172L284.089 131.917V72.6232L232.816 42.9744L180.493 73.2309L178.391 69.5839L232.816 38.1134L288.293 70.1916V134.348L233.867 165.818Z" fill="black"/>
<path d="M232.817 60.3517L230.715 61.5671L198.672 80.0954L196.57 81.3108V83.741V114.892L176.446 126.524L170.169 122.894L168.067 121.68L165.966 122.894L154.59 129.472L152.488 130.687V133.118V146.273V148.704L154.59 149.919L165.966 156.496L168.067 157.712L170.169 156.496L181.545 149.919L183.646 148.704V146.273V139.02L203.767 127.39L230.715 142.972L232.817 144.188L234.919 142.972L266.963 124.445L269.064 123.229V120.798V83.741V81.3108L266.963 80.0954L234.919 61.5671L232.817 60.3517ZM232.817 65.2127L264.86 83.741V120.798L232.817 139.326L203.767 122.529L179.442 136.588V146.273L168.067 152.85L156.693 146.273V133.118L168.067 126.541L176.445 131.385L200.774 117.324V83.741L232.817 65.2127Z" fill="black"/>
</g>
</svg>
