<svg width="858" height="244" viewBox="0 0 858 244" fill="none" xmlns="http://www.w3.org/2000/svg">
<mask id="mask0_8353_19996" style="mask-type:luminance" maskUnits="userSpaceOnUse" x="0" y="0" width="858" height="244">
<path d="M857.862 0H0V244H857.862V0Z" fill="white"/>
</mask>
<g mask="url(#mask0_8353_19996)">
<path d="M148.849 18.7473C132.347 9.53227 109.174 4.44891 79.9732 4.44891H66.8594V57.1855H87.2775C121.874 57.1855 143.137 80.3817 143.137 122.317C143.137 165.204 121.557 186.815 86.9606 186.815H66.8594V239.551H84.1006C157.421 239.551 203.124 199.519 203.124 122C203.124 74.0215 182.178 37.8037 148.849 18.7473Z" fill="black"/>
<path d="M0 239.551H60.0275V186.815H59.9869V57.1855H60.0275V4.44891H0V239.551Z" fill="black"/>
<path d="M327.219 100.081L324.644 98.9583L310.79 146.506C322.897 152.541 332.297 160.015 332.297 171.28C332.313 174.246 331.74 177.186 330.613 179.929C329.486 182.671 327.827 185.164 325.732 187.261C323.637 189.359 321.147 191.019 318.407 192.148C315.666 193.276 312.73 193.848 309.767 193.834C294.849 193.834 285.327 181.129 285.01 161.748H225.34V166.839C225.34 217.355 258.985 244.041 310.084 244.041C360.865 244.041 391.967 217.355 391.967 171.922C391.967 141.065 378.951 122.317 327.219 100.081Z" fill="black"/>
<path d="M285.008 135.664C291.362 138.226 298.13 140.755 304.508 143.553L318.321 96.1685C298.577 87.2788 288.811 80.8861 288.811 68.621C288.811 58.1372 298.325 50.199 309.44 50.199C321.181 50.199 328.128 56.234 330.703 73.07H390.056C389.739 41.6184 377.674 22.8709 352.6 9.84948C339.741 3.24793 325.475 -0.131902 311.024 5.88032e-05C267.864 5.88032e-05 229.141 29.2313 229.141 69.2636C229.149 99.7635 246.601 120.097 285.008 135.664Z" fill="black"/>
<path d="M538.597 88.9543C538.597 106.116 530.147 116.608 515.62 120.674L545.081 157.738C576.842 148.751 596.049 119.975 596.049 85.4244C596.049 52.0778 578.272 24.4244 552.881 12.9808C540.507 7.58026 521.778 4.40833 497.338 4.40833H483.664V57.1448H500.832C523.363 57.1855 538.597 68.621 538.597 88.9543Z" fill="black"/>
<path d="M569.856 199.95L557.717 184.675L537.648 159.462H537.697L508.049 122.171C505.443 122.473 502.823 122.622 500.2 122.618H477.978V122.455H476.824V4.43262H416.797V239.551H476.824V163.586H478.612L532.887 239.519H601.446L569.872 199.901L569.856 199.95Z" fill="black"/>
<path d="M765.961 4.44891L723.183 151.15L717.934 169.336H717.877L697.402 239.551H748.72L827.427 4.44891H765.961Z" fill="black"/>
<path d="M670.005 4.44891H608.434L686.832 239.551H690.277L714.05 158.023L670.005 4.44891Z" fill="black"/>
</g>
</svg>
