<svg width="613" height="110" viewBox="0 0 613 110" fill="none" xmlns="http://www.w3.org/2000/svg">
<path d="M107.823 43.5229L86.4928 6.67156C85.5381 5.02074 84.1646 3.65046 82.5102 2.69899C80.856 1.74752 78.9796 1.24849 77.0705 1.25225H34.4541C32.0911 1.25857 29.7712 1.88341 27.7256 3.06443C25.68 4.24546 23.9803 5.94138 22.796 7.98304L1.46601 44.8344C0.513284 46.4822 0.0117188 48.3513 0.0117188 50.2537C0.0117188 52.1563 0.513284 54.0254 1.46601 55.6732L22.796 92.5785C23.9812 94.622 25.6826 96.3188 27.7303 97.4999C29.778 98.681 32.1002 99.3048 34.4651 99.3092H77.0705C78.9724 99.3055 80.8397 98.8029 82.4857 97.8519C84.1316 96.9006 85.4985 95.5347 86.4494 93.89L107.779 57.0388C108.977 54.989 109.612 52.6598 109.62 50.2867C109.627 47.9135 109.007 45.5802 107.823 43.5229ZM7.52306 50.4054L9.93287 46.2761L28.9833 13.2723L40.9236 33.9523C41.481 34.8222 42.3524 35.4439 43.3571 35.6881C44.3618 35.9323 45.4221 35.7802 46.3174 35.2635C47.2127 34.7468 47.8738 33.9051 48.163 32.9139C48.4525 31.9226 48.3479 30.8582 47.871 29.9421L38.2535 13.2723C37.4559 12.0923 36.3925 11.1157 35.1482 10.421C33.9037 9.72635 32.5136 9.33309 31.0891 9.27284H74.0964L53.8737 44.2492C53.5165 44.8649 53.0035 45.3759 52.3864 45.7317C51.769 46.0875 51.0693 46.2751 50.3566 46.2761H14.785C13.3179 46.2663 11.8741 46.6428 10.5992 47.3679C9.3243 48.0929 8.26328 49.1408 7.52306 50.4054ZM74.0964 91.2997H35.9414L47.8817 70.598C48.174 70.1413 48.3708 69.6306 48.4601 69.0963C48.549 68.5617 48.5289 68.0149 48.4007 67.4884C48.2721 66.962 48.0385 66.467 47.7132 66.0333C47.3881 65.5999 46.9782 65.2363 46.5085 64.9654C46.0386 64.6941 45.5189 64.5206 44.9801 64.4559C44.4413 64.3909 43.8953 64.4355 43.3744 64.587C42.8535 64.7388 42.3687 64.994 41.9494 65.3378C41.53 65.6816 41.1849 66.1068 40.9346 66.5874L28.9941 87.2894L26.6169 91.4298C27.2734 90.2836 27.6482 88.9982 27.7105 87.6791C27.7728 86.3604 27.5208 85.0454 26.9751 83.8426L9.91115 54.2856H50.3566C51.0689 54.2878 51.7684 54.4758 52.3855 54.8315C53.0026 55.187 53.5156 55.6977 53.8737 56.3125L71.8386 87.3761C72.6315 88.5393 73.6871 89.5007 74.92 90.1821C76.1532 90.8638 77.5295 91.2466 78.9378 91.2997H74.0964ZM100.127 54.2966L81.0544 87.2894L60.7883 52.3132C60.434 51.6962 60.2476 50.9973 60.2476 50.2863C60.2476 49.5751 60.434 48.8765 60.7883 48.2595L81.0544 13.2723L83.4316 9.14279C82.6362 10.5341 82.2568 12.1237 82.3376 13.7236C82.4184 15.3236 82.9563 16.867 83.8874 18.1714C84.5714 19.1252 100.17 46.2651 100.17 46.2651H76.1696C75.1045 46.2651 74.0828 46.6878 73.3296 47.4395C72.5764 48.1916 72.1533 49.2118 72.1533 50.2753C72.1533 51.3389 72.5764 52.3591 73.3296 53.1111C74.0828 53.8632 75.1045 54.2856 76.1696 54.2856H95.3829H95.2744C96.7415 54.2954 98.1854 53.9185 99.4601 53.1938C100.735 52.4687 101.796 51.4209 102.536 50.1562L100.116 54.3073L100.127 54.2966Z" fill="black"/>
<path d="M340.333 28.5407C337.856 28.4875 335.413 29.1256 333.279 30.3833C331.22 31.652 329.377 33.2398 327.818 35.0872L327.601 35.3474H326.331L325.005 29.5162H311.199C310.687 29.5162 310.188 29.6718 309.767 29.9623C309.346 30.2527 309.024 30.6642 308.843 31.142L306.347 37.7859H322.326C322.326 37.7859 317.322 37.7859 317.322 41.8396V63.9939H311.188C310.677 63.9939 310.177 64.1495 309.756 64.4399C309.336 64.7303 309.013 65.142 308.833 65.6197L306.336 72.2637H341.735C342.247 72.265 342.75 72.1091 343.175 71.8165C343.596 71.5236 343.92 71.1087 344.099 70.6272L346.598 63.9829H327.384V44.2134L327.504 44.0292C328.551 42.4292 329.84 40.9998 331.323 39.7911C333.093 38.4459 335.278 37.7633 337.501 37.862C338.205 37.8164 338.906 37.9594 339.538 38.2756C340.166 38.5921 340.701 39.0701 341.081 39.6613C341.798 40.992 342.153 42.4864 342.112 43.9965H351.024C350.949 38.5016 349.94 34.5236 348.126 32.1715C347.217 30.9834 346.035 30.0326 344.677 29.4004C343.319 28.7681 341.829 28.4731 340.333 28.5407Z" fill="black"/>
<path d="M394.564 50.0355C392.366 48.9849 390.069 48.157 387.705 47.5643L380.704 45.754C378.846 45.2816 377.032 44.6619 375.275 43.9007C373.549 43.1313 372.669 42.0473 372.669 40.6491C372.688 39.8382 372.958 39.0528 373.445 38.4035C373.932 37.7542 374.608 37.2736 375.385 37.0291C377.4 36.2774 379.541 35.9276 381.691 35.9992C383.124 36.0027 384.555 36.1551 385.957 36.4546C387.346 36.7488 388.714 37.1435 390.05 37.636C391.329 38.1128 392.577 38.6439 393.74 39.2074C394.652 39.6518 395.488 40.0856 396.224 40.5083L400.361 33.8209C399.638 33.3366 398.845 32.8092 397.984 32.2385C396.717 31.4553 395.372 30.8119 393.967 30.3199C392.143 29.6821 390.27 29.1892 388.365 28.8459C385.897 28.4155 383.395 28.2123 380.886 28.2389C378.396 28.2229 375.913 28.5141 373.496 29.106C371.433 29.5958 369.475 30.4433 367.708 31.6096C366.177 32.6379 364.888 33.9928 363.942 35.5765C363.005 37.2265 362.537 39.1 362.587 40.996C362.493 43.181 363.203 45.3244 364.583 47.0222C366.02 48.6674 367.765 50.0182 369.717 51.0001C371.889 52.0998 374.187 52.9402 376.557 53.5037C379.075 54.1216 381.43 54.7284 383.568 55.3246C385.451 55.8234 387.286 56.491 389.05 57.3191C389.779 57.5756 390.414 58.0438 390.876 58.6639C391.335 59.2837 391.599 60.027 391.634 60.7982C391.669 61.6229 391.452 62.4385 391.015 63.1387C390.578 63.839 389.937 64.3905 389.179 64.7218C386.4 66.044 382.342 66.0333 378.466 65.0794C376.699 64.6501 374.964 64.092 373.279 63.4103C371.748 62.798 370.273 62.0544 368.871 61.1883C367.884 60.5707 367.057 60.0069 366.375 59.4867L361.836 66.5861C364.316 68.5734 367.089 70.1674 370.053 71.3117C374.165 72.8539 378.538 73.59 382.929 73.4794C389.169 73.4794 393.913 72.2329 397.038 69.7834C398.553 68.6079 399.757 67.0862 400.559 65.3469C401.357 63.6073 401.725 61.7015 401.631 59.79C401.719 57.6507 401.011 55.5544 399.644 53.9047C398.226 52.2896 396.5 50.9737 394.564 50.0355Z" fill="black"/>
<path d="M451.088 60.637C450.166 61.3919 449.182 62.0664 448.145 62.6532C446.988 63.3012 445.762 63.8138 444.486 64.1812C443.008 64.6002 441.478 64.8048 439.94 64.7884C438.485 64.8591 437.033 64.5983 435.693 64.0257C434.354 63.453 433.163 62.5831 432.21 61.4825C430.396 59.3148 429.475 55.8464 429.475 51.1535V37.7784H449.566L452.65 29.5086H429.485V16.4263L421.258 18.7675C420.733 18.9181 420.271 19.2354 419.941 19.6714C419.611 20.1075 419.435 20.6386 419.435 21.1845V29.5411H415.515C415.005 29.5412 414.506 29.6967 414.084 29.9872C413.663 30.2776 413.339 30.6891 413.16 31.1669L410.664 37.8111H424.829C424.829 37.8111 419.4 37.8111 419.4 42.0706V51.1101C419.4 58.9028 421.019 64.6473 424.222 68.1701C427.423 71.6927 432.232 73.4593 438.604 73.4593C440.431 73.4517 442.248 73.2481 444.03 72.8524C445.853 72.4576 447.633 71.8954 449.349 71.1722C451.006 70.4767 452.596 69.6391 454.105 68.6686C455.297 67.9159 456.394 67.0164 457.362 65.9915L452.813 59.174L451.088 60.637Z" fill="black"/>
<path d="M502.988 63.311C502.929 62.5884 502.844 61.8081 502.728 60.9699C502.605 59.3947 502.542 57.9747 502.542 56.7103C502.542 55.0412 502.652 53.1118 502.856 50.9765C503.064 48.8413 503.161 46.3377 503.161 43.3897C503.186 41.3097 502.897 39.2379 502.303 37.2441C501.778 35.53 500.851 33.9658 499.6 32.681C498.207 31.3231 496.516 30.3097 494.661 29.722C492.203 28.9518 489.638 28.5857 487.063 28.6382C483.413 28.5672 479.77 28.931 476.208 29.722C473.652 30.3347 471.153 31.1502 468.73 32.1609L471.031 39.7477C472.804 38.995 474.617 38.3331 476.456 37.7643C479.147 36.9471 481.948 36.5489 484.762 36.5829C486.934 36.443 489.091 37.0056 490.917 38.187C492.391 39.2709 493.086 41.1133 493.086 43.6062V45.2537C493.089 45.9049 493.026 46.5548 492.904 47.1938L492.816 47.855H492.174C490.461 47.7394 489.012 47.6203 487.833 47.4974C486.683 47.3783 485.586 47.3239 484.576 47.3239C481.895 47.2987 479.22 47.575 476.598 48.1476C474.467 48.6015 472.433 49.4346 470.597 50.6082C469.016 51.6403 467.736 53.0678 466.884 54.7486C465.985 56.6472 465.548 58.7299 465.602 60.8291C465.526 62.4772 465.812 64.1221 466.441 65.6483C467.067 67.1745 468.022 68.5448 469.239 69.6624C471.672 71.83 475.026 73.0114 479.226 73.0114C482.153 73.1569 485.064 72.5051 487.648 71.1257C489.565 70.0075 491.203 68.4697 492.435 66.6276L492.652 66.2917H494.098L495.258 72.3071H505.148C505.733 72.3071 506.302 72.1025 506.754 71.7285C507.207 71.3545 507.512 70.8343 507.622 70.2586L508.795 64.0373H503.095L502.988 63.311ZM493.023 59.5499L492.935 59.7124C492.121 61.1204 491.011 62.3335 489.678 63.2676C487.667 64.5229 485.306 65.1143 482.939 64.9585C480.505 64.9585 478.78 64.449 477.664 63.3867C477.098 62.8191 476.658 62.1406 476.372 61.3941C476.082 60.648 475.954 59.8501 475.991 59.0515C475.966 57.9791 476.293 56.9285 476.925 56.0598C477.547 55.2382 478.355 54.5738 479.279 54.1197C480.279 53.6105 481.348 53.2457 482.448 53.036C484.869 52.6341 487.336 52.6011 489.766 52.9383C490.961 53.0901 491.838 53.2202 492.448 53.3393L493.033 53.4587V59.5392L493.023 59.5499Z" fill="black"/>
<path d="M543.657 48.9327L560.884 29.5206H549.259L534.777 47.0901H531.042V11.8103H518.581C518.072 11.8103 517.572 11.9659 517.151 12.2564C516.729 12.5468 516.409 12.9583 516.226 13.4361L513.73 20.0802H525.865C525.865 20.0802 520.992 20.0802 520.992 23.6352V72.2464H531.042V53.9399H535.211L550.41 72.2464H558.832C559.347 72.2477 559.85 72.0918 560.271 71.7992C560.696 71.5066 561.02 71.0914 561.199 70.6099L563.695 63.9659H555.836L543.657 48.9327Z" fill="black"/>
<path d="M238.047 29.4997C237.514 29.4994 236.994 29.6682 236.563 29.9818C236.132 30.2954 235.812 30.7376 235.648 31.2447L226.519 56.6289H224.87L212.69 29.5322H203.833C203.321 29.5323 202.822 29.6878 202.401 29.9783C201.98 30.2687 201.658 30.6802 201.477 31.158L198.98 37.802H211.344C211.344 37.802 205.439 37.802 207.686 43.2215L220.18 72.2474H230.644L247.003 29.4888L238.047 29.4997Z" fill="black"/>
<path d="M186.421 32.0644C184.513 30.6869 182.357 29.6896 180.071 29.127C174.813 27.8077 169.289 27.9993 164.136 29.6798C161.431 30.5693 158.94 32.0084 156.82 33.9067C154.707 35.8738 153.051 38.2784 151.968 40.9521C150.708 44.1078 150.095 47.4839 150.166 50.88C150.111 54.1184 150.648 57.3396 151.75 60.3856C152.731 63.0728 154.303 65.506 156.351 67.5058C158.399 69.5056 160.87 71.0207 163.582 71.9397C166.766 73.0155 170.11 73.5397 173.471 73.4894C175.642 73.4894 185.542 73.1211 193.129 67.7016L191.729 60.6348C186.475 63.9512 180.392 65.7241 174.177 65.7508C172.438 65.7737 170.704 65.588 169.01 65.198C167.441 64.828 165.951 64.1781 164.613 63.2796C163.314 62.3952 162.237 61.2229 161.466 59.8545C160.623 58.2802 160.18 56.5237 160.174 54.7388V53.9908H192.131C192.614 51.5231 192.868 49.0157 192.89 46.5014C193 43.4466 192.375 40.4099 191.067 37.6461C189.976 35.4489 188.384 33.5374 186.421 32.0644ZM183.685 47.0109H160.38L160.445 46.2305C160.554 44.7024 161.01 43.2196 161.78 41.8949C162.516 40.6265 163.502 39.5202 164.679 38.6433C165.856 37.7728 167.174 37.1093 168.575 36.6816C170.054 36.2343 171.59 36.0115 173.135 36.0203C176.63 36.0203 179.3 36.9635 181.059 38.8168C182.885 40.8685 183.832 43.5537 183.696 46.2956L183.685 47.0109Z" fill="black"/>
<path d="M289.491 32.0644C287.583 30.6869 285.427 29.6896 283.141 29.127C277.883 27.8077 272.359 27.9993 267.206 29.6798C264.501 30.5693 262.01 32.0084 259.89 33.9067C257.759 35.8654 256.084 38.2665 254.983 40.9411C253.724 44.0968 253.111 47.4729 253.181 50.8694C253.127 54.1078 253.664 57.3286 254.766 60.3749C255.751 63.0665 257.33 65.5025 259.385 67.5026C261.441 69.5027 263.921 71.0154 266.641 71.9287C269.825 73.0048 273.17 73.5287 276.53 73.4788C278.701 73.4788 288.601 73.1101 296.189 67.6909L294.821 60.6458C289.567 63.9619 283.484 65.7348 277.268 65.7615C275.525 65.7712 273.786 65.571 272.09 65.1656C270.522 64.7957 269.032 64.1457 267.694 63.2472C266.386 62.3515 265.304 61.1641 264.536 59.7787C263.693 58.2042 263.25 56.4479 263.244 54.6628V53.9151H295.255C295.738 51.447 295.993 48.94 296.015 46.4254C296.113 43.3796 295.48 40.3549 294.169 37.6027C293.063 35.4181 291.461 33.5214 289.491 32.0644ZM286.756 47.0109H263.45L263.515 46.2305C263.624 44.7024 264.081 43.2196 264.85 41.8949C265.586 40.6265 266.572 39.5202 267.749 38.6433C268.926 37.7728 270.244 37.1093 271.645 36.6816C273.123 36.2343 274.66 36.0115 276.205 36.0203C279.7 36.0203 282.37 36.9635 284.129 38.8168C285.955 40.8685 286.902 43.5537 286.766 46.2956L286.756 47.0109Z" fill="black"/>
<path d="M606.29 32.0644C604.381 30.6869 602.225 29.6896 599.939 29.127C594.68 27.8077 589.157 27.9993 584.005 29.6798C581.298 30.5693 578.808 32.0084 576.686 33.9067C574.555 35.8654 572.883 38.2665 571.779 40.9411C570.522 44.0968 569.909 47.4729 569.978 50.8694C569.924 54.1078 570.462 57.3286 571.562 60.3749C572.549 63.0696 574.127 65.5088 576.187 67.5108C578.242 69.5128 580.726 71.0264 583.448 71.9397C586.633 73.0155 589.977 73.5397 593.338 73.4894C595.51 73.4894 605.409 73.1211 612.998 67.7016L611.596 60.6348C606.343 63.9512 600.26 65.7241 594.045 65.7508C592.301 65.7605 590.562 65.5603 588.865 65.1546C587.296 64.7847 585.809 64.1347 584.47 63.2362C583.172 62.3518 582.093 61.1795 581.323 59.8111C580.481 58.2368 580.037 56.4803 580.031 54.6955V53.9475H612.064C612.545 51.4797 612.8 48.9726 612.822 46.458C612.932 43.4032 612.306 40.3666 610.999 37.6027C609.883 35.4147 608.27 33.5176 606.29 32.0644ZM603.533 47.0109H580.248L580.314 46.2305C580.421 44.7024 580.877 43.2196 581.647 41.8949C582.383 40.6265 583.37 39.5202 584.545 38.6433C585.724 37.7728 587.041 37.1093 588.443 36.6816C589.921 36.2343 591.458 36.0115 593.002 36.0203C596.497 36.0203 599.166 36.9635 600.927 38.8168C602.753 40.8685 603.699 43.5537 603.564 46.2956L603.533 47.0109Z" fill="black"/>
</svg>
