<svg width="871" height="146" viewBox="0 0 871 146" fill="none" xmlns="http://www.w3.org/2000/svg">
<g clip-path="url(#clip0_8353_20025)">
<path fill-rule="evenodd" clip-rule="evenodd" d="M24.5028 0C10.958 0 0 10.9594 0 24.5058V121.494C0 135.041 10.958 146 24.5028 146H121.479C135.024 146 145.982 135.041 145.982 121.494V24.5058C145.982 10.9594 135.024 0 121.479 0H24.5028ZM59.07 92.8022C59.07 100.422 65.278 106.631 72.8969 106.631C80.5158 106.631 86.7238 100.422 86.7238 92.8022C86.7238 89.2745 85.4069 85.982 83.0554 83.395L72.8969 73.2352L64.6195 64.9568L49.4758 49.8112C53.6615 45.625 57.8472 41.4388 62.0329 37.2526L74.2137 25.0702L82.0678 32.9253L65.5601 49.3879L72.8498 56.6314L86.3005 43.4143L90.6743 47.7887L94.6248 51.6926L81.1742 64.9098L91.4738 75.2107C96.0357 80.1024 98.4343 86.2642 98.4343 92.7551C98.4343 106.866 86.9589 118.296 72.8498 118.296C58.7408 118.296 47.2654 106.819 47.2654 92.7551C47.2654 86.3112 49.6639 80.1495 54.0377 75.3988L59.7284 69.7075L68.0057 77.9858L62.4562 83.5361C60.2457 85.9349 58.9289 89.2745 58.9289 92.7551L59.07 92.8022Z" fill="black"/>
<path d="M447.305 48.1179C447.305 66.3679 460.944 80.1495 479.097 80.1495C486.528 80.1495 493.3 77.6095 498.709 72.8589L499.32 72.2944L500.919 78.268H512.912V17.9678H501.343L499.508 24.1295L498.944 23.6121C493.394 18.8144 486.528 16.2274 479.003 16.2274C460.944 16.2274 447.258 29.9149 447.258 48.1179H447.305ZM498.192 48.1179C498.192 58.4658 490.714 65.9916 480.461 65.9916C470.209 65.9916 462.731 58.2777 462.731 48.1179C462.731 37.9581 470.209 30.2442 480.461 30.2442C490.714 30.2442 498.192 37.7229 498.192 48.1179Z" fill="black"/>
<path d="M274.609 17.4033H259.23V78.5973H274.609V17.4033Z" fill="black"/>
<path d="M400.135 16.4155C381.605 16.4155 367.543 30.103 367.543 48.259C367.543 66.4149 381.558 80.1494 400.135 80.1494C418.712 80.1494 432.633 66.4619 432.633 48.259C432.586 30.103 418.618 16.4155 400.135 16.4155ZM417.63 48.259C417.63 58.4658 410.152 66.1797 400.135 66.1797C390.117 66.1797 382.499 58.5128 382.499 48.259C382.499 38.0051 390.117 30.4793 400.135 30.4793C410.058 30.4323 417.63 38.0051 417.63 48.259Z" fill="black"/>
<path d="M334.384 50.1875L310.775 17.4033H297.371V78.5502H312.468V44.9194L336.406 78.0328L336.829 78.5502H349.481V17.4504H334.337V50.1404H334.384V50.1875Z" fill="black"/>
<path d="M194 78.5502H209.191V60.1591H233.694V45.9542H209.191V31.8904H239.29V17.4033H193.953V78.5973L194 78.5502Z" fill="black"/>
<path d="M201.572 139.603C198.844 138.051 196.728 135.887 195.176 133.159C193.624 130.431 192.871 127.327 192.871 123.846C192.871 120.365 193.624 117.261 195.176 114.533C196.728 111.805 198.844 109.641 201.572 108.089C204.299 106.537 207.356 105.737 210.79 105.737C213.47 105.737 215.916 106.254 218.22 107.289C220.525 108.324 222.406 109.735 224.005 111.617C225.604 113.498 226.733 115.662 227.391 118.202H222.923C221.983 115.662 220.431 113.686 218.314 112.228C216.198 110.77 213.658 110.064 210.79 110.064C208.203 110.064 205.898 110.629 203.876 111.805C201.807 112.981 200.208 114.627 199.079 116.696C197.95 118.766 197.339 121.165 197.339 123.799C197.339 126.433 197.903 128.785 199.079 130.901C200.255 133.018 201.807 134.617 203.876 135.793C205.898 136.969 208.25 137.533 210.837 137.533C213.753 137.533 216.339 136.781 218.503 135.276C220.666 133.771 222.218 131.654 223.112 128.926H227.626C226.968 131.513 225.839 133.818 224.24 135.746C222.641 137.722 220.713 139.227 218.409 140.262C216.104 141.296 213.564 141.861 210.837 141.861C207.403 141.861 204.299 141.061 201.619 139.509L201.572 139.603Z" fill="black"/>
<path d="M247.049 139.65C244.274 138.098 242.064 135.934 240.512 133.159C238.913 130.384 238.113 127.28 238.113 123.893C238.113 120.506 238.913 117.402 240.512 114.627C242.111 111.852 244.274 109.688 247.049 108.136C249.824 106.584 252.975 105.784 256.455 105.784C259.935 105.784 263.086 106.584 265.861 108.136C268.636 109.688 270.846 111.852 272.445 114.627C274.044 117.402 274.844 120.506 274.844 123.893C274.844 127.28 274.044 130.384 272.445 133.159C270.846 135.934 268.683 138.098 265.861 139.65C263.039 141.202 259.935 142.002 256.455 142.002C252.975 142.002 249.871 141.202 247.049 139.65ZM263.51 135.887C265.626 134.664 267.272 133.018 268.495 130.948C269.718 128.832 270.282 126.48 270.282 123.893C270.282 121.306 269.671 118.954 268.495 116.838C267.272 114.721 265.626 113.075 263.51 111.899C261.393 110.676 259.042 110.111 256.408 110.111C253.774 110.111 251.47 110.723 249.354 111.899C247.237 113.075 245.591 114.768 244.415 116.838C243.24 118.907 242.628 121.306 242.628 123.893C242.628 126.48 243.24 128.832 244.415 130.948C245.638 133.065 247.284 134.711 249.354 135.887C251.423 137.063 253.821 137.675 256.408 137.675C258.995 137.675 261.393 137.063 263.51 135.887Z" fill="black"/>
<path d="M311.059 133.394V106.349H315.385V141.39H311.67L291.682 114.062V141.39H287.402V106.349H291.353L311.012 133.394H311.059Z" fill="black"/>
<path d="M337.02 140.45C335.092 139.556 333.587 138.239 332.505 136.546C331.424 134.852 330.859 132.83 330.859 130.572H335.327C335.327 132.736 336.127 134.429 337.679 135.652C339.231 136.875 341.253 137.533 343.746 137.533C346.003 137.533 347.884 136.969 349.389 135.84C350.894 134.711 351.647 133.253 351.647 131.466C351.647 130.196 351.27 129.161 350.518 128.408C349.766 127.656 348.778 127.044 347.649 126.668C346.52 126.245 344.968 125.822 342.946 125.351C340.501 124.74 338.525 124.175 337.02 123.564C335.515 122.952 334.199 122.059 333.117 120.789C332.035 119.519 331.518 117.825 331.518 115.615C331.518 112.604 332.6 110.253 334.763 108.465C336.926 106.725 339.795 105.831 343.463 105.831C347.132 105.831 349.954 106.772 352.07 108.653C354.186 110.535 355.221 113.028 355.221 116.226H350.847C350.847 114.345 350.142 112.84 348.778 111.711C347.414 110.629 345.627 110.064 343.463 110.064C341.3 110.064 339.513 110.535 338.102 111.523C336.691 112.51 335.986 113.78 335.986 115.427C335.986 116.649 336.362 117.59 337.067 118.343C337.82 119.095 338.713 119.613 339.842 120.036C340.971 120.412 342.523 120.836 344.498 121.306C346.991 121.918 349.013 122.529 350.565 123.14C352.117 123.752 353.434 124.74 354.563 126.057C355.644 127.374 356.209 129.161 356.209 131.419C356.209 133.677 355.691 135.464 354.61 137.016C353.528 138.568 352.07 139.791 350.189 140.591C348.308 141.39 346.191 141.814 343.84 141.814C341.253 141.814 338.996 141.343 337.067 140.45H337.02Z" fill="black"/>
<path d="M377.042 125.398V137.157H393.079V141.343H372.715V106.302H392.562V110.441H377.089V121.306H391.245V125.351H377.089L377.042 125.398Z" fill="black"/>
<path d="M433.383 133.394V106.349H437.71V141.39H433.994L414.006 114.062V141.39H409.727V106.349H413.677L433.336 133.394H433.383Z" fill="black"/>
<path d="M458.356 140.45C456.428 139.556 454.923 138.239 453.841 136.546C452.76 134.852 452.195 132.83 452.195 130.572H456.663C456.663 132.736 457.463 134.429 459.015 135.652C460.567 136.875 462.589 137.533 465.082 137.533C467.339 137.533 469.22 136.969 470.725 135.84C472.23 134.711 472.983 133.253 472.983 131.466C472.983 130.196 472.606 129.161 471.854 128.408C471.101 127.656 470.114 127.044 468.985 126.668C467.856 126.245 466.304 125.822 464.282 125.351C461.837 124.74 459.861 124.175 458.356 123.564C456.851 122.952 455.534 122.059 454.453 120.789C453.371 119.519 452.854 117.825 452.854 115.615C452.854 112.604 453.935 110.253 456.099 108.465C458.262 106.725 461.131 105.831 464.799 105.831C468.468 105.831 471.29 106.772 473.406 108.653C475.522 110.535 476.557 113.028 476.557 116.226H472.183C472.183 114.345 471.478 112.84 470.114 111.711C468.75 110.629 466.963 110.064 464.799 110.064C462.636 110.064 460.849 110.535 459.438 111.523C458.027 112.51 457.322 113.78 457.322 115.427C457.322 116.649 457.698 117.59 458.403 118.343C459.156 119.095 460.049 119.613 461.178 120.036C462.307 120.412 463.859 120.836 465.834 121.306C468.327 121.918 470.349 122.529 471.901 123.14C473.453 123.752 474.77 124.74 475.899 126.057C476.98 127.374 477.545 129.161 477.545 131.419C477.545 133.677 477.027 135.464 475.946 137.016C474.864 138.568 473.406 139.791 471.525 140.591C469.644 141.39 467.527 141.814 465.176 141.814C462.589 141.814 460.332 141.343 458.403 140.45H458.356Z" fill="black"/>
<path d="M498.284 140.214C496.168 139.039 494.522 137.439 493.346 135.37C492.17 133.3 491.559 130.948 491.559 128.314V106.349H496.026V128.032C496.026 129.914 496.403 131.607 497.202 133.065C498.002 134.523 499.083 135.652 500.541 136.452C501.952 137.251 503.598 137.675 505.385 137.675C507.173 137.675 508.772 137.251 510.183 136.452C511.594 135.652 512.675 134.476 513.475 133.065C514.274 131.607 514.65 129.914 514.65 128.032V106.349H519.118V128.314C519.118 130.948 518.507 133.3 517.331 135.37C516.155 137.439 514.509 139.086 512.44 140.214C510.371 141.343 508.019 141.955 505.385 141.955C502.752 141.955 500.447 141.39 498.331 140.214H498.284Z" fill="black"/>
<path d="M539.298 140.45C537.369 139.556 535.864 138.239 534.783 136.546C533.701 134.852 533.137 132.83 533.137 130.572H537.605C537.605 132.736 538.404 134.429 539.956 135.652C541.508 136.875 543.53 137.533 546.023 137.533C548.28 137.533 550.162 136.969 551.667 135.84C553.172 134.711 553.924 133.253 553.924 131.466C553.924 130.196 553.548 129.161 552.795 128.408C552.043 127.656 551.055 127.044 549.927 126.668C548.798 126.245 547.246 125.822 545.223 125.351C542.778 124.74 540.803 124.175 539.298 123.564C537.793 122.952 536.476 122.059 535.394 120.789C534.312 119.519 533.795 117.825 533.795 115.615C533.795 112.604 534.877 110.253 537.04 108.465C539.204 106.725 542.072 105.831 545.741 105.831C549.409 105.831 552.231 106.772 554.347 108.653C556.464 110.535 557.498 113.028 557.498 116.226H553.125C553.125 114.345 552.419 112.84 551.055 111.711C549.691 110.629 547.904 110.064 545.741 110.064C543.577 110.064 541.79 110.535 540.379 111.523C538.968 112.51 538.263 113.78 538.263 115.427C538.263 116.649 538.639 117.59 539.345 118.343C540.097 119.095 540.991 119.613 542.119 120.036C543.248 120.412 544.8 120.836 546.775 121.306C549.268 121.918 551.29 122.529 552.842 123.14C554.394 123.752 555.711 124.74 556.84 126.057C557.922 127.374 558.486 129.161 558.486 131.419C558.486 133.677 557.969 135.464 556.887 137.016C555.805 138.568 554.347 139.791 552.466 140.591C550.585 141.39 548.469 141.814 546.117 141.814C543.53 141.814 541.273 141.343 539.345 140.45H539.298Z" fill="black"/>
<path d="M597.52 140.45C595.592 139.556 594.087 138.239 593.005 136.546C591.924 134.852 591.359 132.83 591.359 130.572H595.827C595.827 132.736 596.627 134.429 598.179 135.652C599.731 136.875 601.753 137.533 604.246 137.533C606.503 137.533 608.384 136.969 609.889 135.84C611.394 134.711 612.147 133.253 612.147 131.466C612.147 130.196 611.771 129.161 611.018 128.408C610.266 127.656 609.278 127.044 608.149 126.668C607.02 126.245 605.468 125.822 603.446 125.351C601.001 124.74 599.025 124.175 597.52 123.564C596.015 122.952 594.699 122.059 593.617 120.789C592.535 119.519 592.018 117.825 592.018 115.615C592.018 112.604 593.1 110.253 595.263 108.465C597.426 106.725 600.295 105.831 603.963 105.831C607.632 105.831 610.454 106.772 612.57 108.653C614.686 110.535 615.721 113.028 615.721 116.226H611.347C611.347 114.345 610.642 112.84 609.278 111.711C607.914 110.629 606.127 110.064 603.963 110.064C601.8 110.064 600.013 110.535 598.602 111.523C597.191 112.51 596.486 113.78 596.486 115.427C596.486 116.649 596.862 117.59 597.567 118.343C598.32 119.095 599.213 119.613 600.342 120.036C601.471 120.412 603.023 120.836 604.998 121.306C607.491 121.918 609.513 122.529 611.065 123.14C612.617 123.752 613.934 124.74 615.063 126.057C616.144 127.374 616.709 129.161 616.709 131.419C616.709 133.677 616.191 135.464 615.11 137.016C614.028 138.568 612.57 139.791 610.689 140.591C608.808 141.39 606.691 141.814 604.34 141.814C601.753 141.814 599.496 141.343 597.567 140.45H597.52Z" fill="black"/>
<path d="M635.518 125.398V137.157H651.555V141.343H631.191V106.302H651.038V110.441H635.565V121.306H649.721V125.351H635.565L635.518 125.398Z" fill="black"/>
<path d="M686.641 141.39L678.646 127.656H670.651V141.39H666.277V106.349H679.54C681.703 106.349 683.679 106.819 685.419 107.713C687.159 108.653 688.523 109.923 689.51 111.522C690.498 113.122 690.968 115.003 690.968 117.073C690.968 119.519 690.263 121.635 688.852 123.47C687.441 125.304 685.56 126.527 683.255 127.185L691.627 141.39H686.688H686.641ZM670.604 110.488V123.517H679.305C681.421 123.517 683.161 122.905 684.478 121.682C685.795 120.459 686.453 118.907 686.453 117.026C686.453 115.144 685.795 113.545 684.431 112.322C683.114 111.099 681.374 110.488 679.258 110.488H670.557H670.604Z" fill="black"/>
<path d="M717.21 134.758L728.356 106.302H733.153L719.185 141.343H715.14L700.984 106.302H705.828L717.21 134.758Z" fill="black"/>
<path d="M750.839 141.39H746.465V106.349H750.839V141.39Z" fill="black"/>
<path d="M773.177 139.603C770.449 138.051 768.333 135.887 766.781 133.159C765.229 130.431 764.477 127.327 764.477 123.846C764.477 120.365 765.229 117.261 766.781 114.533C768.333 111.805 770.449 109.641 773.177 108.089C775.905 106.537 778.962 105.737 782.395 105.737C785.076 105.737 787.521 106.254 789.826 107.289C792.13 108.324 794.012 109.735 795.611 111.617C797.21 113.498 798.338 115.662 798.997 118.202H794.529C793.588 115.662 792.036 113.686 789.92 112.228C787.804 110.77 785.264 110.064 782.395 110.064C779.808 110.064 777.504 110.629 775.482 111.805C773.412 112.981 771.813 114.627 770.685 116.696C769.556 118.766 768.944 121.165 768.944 123.799C768.944 126.433 769.509 128.785 770.685 130.901C771.86 133.018 773.412 134.617 775.482 135.793C777.504 136.969 779.855 137.533 782.442 137.533C785.358 137.533 787.945 136.781 790.108 135.276C792.271 133.771 793.823 131.654 794.717 128.926H799.232C798.573 131.513 797.445 133.818 795.846 135.746C794.247 137.722 792.318 139.227 790.014 140.262C787.709 141.296 785.17 141.861 782.442 141.861C779.009 141.861 775.905 141.061 773.224 139.509L773.177 139.603Z" fill="black"/>
<path d="M816.491 125.398V137.157H832.528V141.343H812.164V106.302H832.011V110.441H816.538V121.306H830.694V125.351H816.538L816.491 125.398Z" fill="black"/>
<path d="M851.86 140.45C849.932 139.556 848.427 138.239 847.345 136.546C846.264 134.852 845.699 132.83 845.699 130.572H850.167C850.167 132.736 850.967 134.429 852.519 135.652C854.071 136.875 856.093 137.533 858.585 137.533C860.843 137.533 862.724 136.969 864.229 135.84C865.734 134.711 866.487 133.253 866.487 131.466C866.487 130.196 866.11 129.161 865.358 128.408C864.605 127.656 863.618 127.044 862.489 126.668C861.36 126.245 859.808 125.822 857.786 125.351C855.34 124.74 853.365 124.175 851.86 123.564C850.355 122.952 849.038 122.059 847.957 120.789C846.875 119.519 846.358 117.825 846.358 115.615C846.358 112.604 847.439 110.253 849.603 108.465C851.766 106.725 854.635 105.831 858.303 105.831C861.972 105.831 864.793 106.772 866.91 108.653C869.026 110.535 870.061 113.028 870.061 116.226H865.687C865.687 114.345 864.982 112.84 863.618 111.711C862.254 110.629 860.467 110.064 858.303 110.064C856.14 110.064 854.353 110.535 852.942 111.523C851.531 112.51 850.825 113.78 850.825 115.427C850.825 116.649 851.202 117.59 851.907 118.343C852.66 119.095 853.553 119.613 854.682 120.036C855.811 120.412 857.363 120.836 859.338 121.306C861.831 121.918 863.853 122.529 865.405 123.14C866.957 123.752 868.274 124.74 869.402 126.057C870.484 127.374 871.049 129.161 871.049 131.419C871.049 133.677 870.531 135.464 869.449 137.016C868.368 138.568 866.91 139.791 865.029 140.591C863.147 141.39 861.031 141.814 858.68 141.814C856.093 141.814 853.835 141.343 851.907 140.45H851.86Z" fill="black"/>
</g>
<defs>
<clipPath id="clip0_8353_20025">
<rect width="871" height="146" fill="white"/>
</clipPath>
</defs>
</svg>
