<svg width="837" height="292" viewBox="0 0 837 292" fill="none" xmlns="http://www.w3.org/2000/svg">
<g clip-path="url(#clip0_8353_20016)">
<path d="M423.17 73.9855C426.325 74.3797 428.92 75.86 430.956 78.4263C432.966 80.9076 434.048 84.0125 434.014 87.2058V91.3424C434.049 92.6409 433.772 93.9288 433.206 95.0981C432.641 96.2675 431.803 97.2842 430.764 98.0633C429.74 98.8958 428.552 99.5021 427.277 99.8422C426.002 100.182 424.669 100.249 423.367 100.037C420.999 99.7739 419.289 99.6425 418.238 99.6425C412.053 99.6425 408.041 100.661 406.204 102.699C404.366 104.736 403.444 109.307 403.44 116.411V118.584C403.44 119.766 404.032 120.358 405.216 120.358H420.802C423.824 120.358 426.455 121.476 428.693 123.713C430.932 125.95 432.049 128.581 432.046 131.604V134.768C432.046 137.798 430.928 140.428 428.693 142.659C426.458 144.89 423.828 146.003 420.802 146H405.216C404.033 146 403.441 146.591 403.44 147.774V207.753C403.44 210.78 402.322 213.411 400.087 215.647C397.851 217.882 395.221 219 392.196 219H376.218C373.189 219 370.558 217.882 368.325 215.647C366.091 213.411 364.973 210.78 364.972 207.753V147.774C364.972 146.591 364.38 146 363.195 146H354.509C351.486 146 348.855 144.881 346.618 142.644C344.382 140.407 343.264 137.777 343.266 134.753V131.59C343.266 128.566 344.383 125.936 346.618 123.698C348.854 121.461 351.484 120.345 354.509 120.35H363.191C364.375 120.35 364.967 119.759 364.967 118.576V116.403C364.967 101.411 368.454 90.4283 375.429 83.456C382.404 76.4837 393.386 72.9959 408.374 72.9927C413.322 73.0178 418.263 73.3494 423.17 73.9855Z" fill="black"/>
<path d="M511.505 116.8C514.527 116.404 517.157 117.325 519.396 119.562C520.477 120.61 521.332 121.869 521.909 123.26C522.486 124.652 522.771 126.147 522.749 127.653V132.78C522.769 134.223 522.499 135.656 521.956 136.993C521.412 138.331 520.607 139.546 519.586 140.566C517.477 142.737 514.847 144.019 511.695 144.413C501.565 145.731 493.476 149.512 487.429 155.758C481.382 162.003 478.357 169.602 478.354 178.556V207.756C478.354 210.783 477.235 213.414 474.998 215.649C472.762 217.885 470.134 219.002 467.115 219H451.137C448.108 219 445.477 217.882 443.243 215.647C441.01 213.411 439.892 210.78 439.891 207.753V127.653C439.891 124.627 441.008 121.996 443.243 119.759C445.479 117.522 448.11 116.403 451.137 116.403H466.127C469.154 116.403 471.785 117.522 474.02 119.759C476.255 121.996 477.376 124.627 477.38 127.653V135.926C477.376 135.953 477.379 135.98 477.387 136.006C477.395 136.032 477.41 136.055 477.429 136.074C477.448 136.094 477.472 136.108 477.497 136.117C477.523 136.125 477.551 136.127 477.578 136.123C477.653 136.118 477.726 136.098 477.793 136.064C477.86 136.03 477.92 135.983 477.969 135.926C486.253 125.018 497.432 118.643 511.505 116.8Z" fill="black"/>
<path d="M575.029 114.432C608.436 114.432 625.205 132.057 625.336 167.306C625.336 170.465 624.152 173.128 621.784 175.297C619.486 177.443 616.445 178.611 613.302 178.556H561.615C560.43 178.556 559.967 179.144 560.233 180.329C561.417 185.845 564.012 189.725 568.019 191.971C572.025 194.216 578.31 195.333 586.873 195.324C592.265 195.324 598.842 194.534 606.603 192.956C609.361 192.307 611.859 192.866 614.097 194.633C616.336 196.399 617.454 198.734 617.453 201.638V204.802C617.466 208.052 616.389 211.214 614.394 213.781C612.352 216.477 609.757 218.088 606.608 218.613C598.584 220.19 590.034 220.979 580.96 220.981C562.284 220.981 547.915 216.41 537.855 207.269C527.795 198.128 522.766 184.941 522.77 167.71C522.77 150.614 527.241 137.46 536.183 128.249C545.126 119.038 558.074 114.432 575.029 114.432ZM589.036 157.838C590.222 157.838 590.814 157.246 590.812 156.062C590.681 150.013 589.399 145.672 586.965 143.041C584.532 140.41 580.883 139.094 576.016 139.094C570.884 139.094 567.037 140.377 564.476 142.941C561.915 145.506 560.303 149.945 559.641 156.259C559.641 157.315 560.167 157.838 561.218 157.838H589.036Z" fill="black"/>
<path d="M703.397 114.432C715.363 114.432 723.944 117.852 729.14 124.691C734.335 131.531 736.931 143.237 736.926 159.812V207.748C736.926 210.775 735.808 213.407 733.573 215.642C731.338 217.877 728.71 218.997 725.69 219H711.694C708.667 219 706.037 217.882 703.803 215.647C701.57 213.411 700.451 210.78 700.448 207.753V159.816C700.448 153.767 699.593 149.624 697.884 147.387C696.174 145.15 693.084 144.031 688.613 144.031C684.926 144.031 681.539 145.478 678.453 148.373C675.366 151.267 673.825 154.423 673.83 157.843V207.753C673.83 210.78 672.711 213.411 670.474 215.647C668.237 217.882 665.598 219 662.557 219H647.566C644.536 219 641.905 217.882 639.673 215.647C637.441 213.411 636.324 210.78 636.32 207.753V127.653C636.32 124.627 637.438 121.996 639.673 119.759C641.908 117.522 644.539 116.403 647.566 116.403H660.98C662.478 116.377 663.966 116.652 665.356 117.212C666.745 117.772 668.009 118.605 669.07 119.662C670.158 120.695 671.032 121.932 671.641 123.304C672.25 124.675 672.583 126.153 672.62 127.653V129.229C672.617 129.256 672.619 129.283 672.628 129.309C672.637 129.335 672.651 129.358 672.67 129.377C672.689 129.396 672.712 129.41 672.738 129.419C672.763 129.428 672.791 129.43 672.817 129.427C673.078 129.427 673.212 129.361 673.212 129.229C681.364 119.365 691.426 114.432 703.397 114.432Z" fill="black"/>
<path d="M795.26 152.906C810.257 154.88 820.911 158.661 827.222 164.25C833.534 169.839 836.69 177.895 836.692 188.42C836.692 198.803 832.943 206.825 825.446 212.488C817.949 218.152 806.901 220.98 792.302 220.973C781.376 220.955 770.476 219.896 759.751 217.81C756.639 217.177 753.868 215.422 751.965 212.878C749.941 210.29 748.863 207.087 748.909 203.801V198.677C748.909 195.919 750.027 193.749 752.262 192.168C753.295 191.401 754.489 190.878 755.753 190.639C757.017 190.399 758.319 190.449 759.561 190.786C769.425 193.156 778.697 194.34 787.377 194.338C794.61 194.338 798.227 192.233 798.229 188.024C798.229 186.05 797.638 184.617 796.453 183.683C795.268 182.748 792.903 182.04 789.35 181.515C774.752 179.144 764.197 175.066 757.688 169.28C751.179 163.493 747.921 155.733 747.914 146C747.914 136.005 751.762 128.246 759.457 122.72C767.152 117.195 778.758 114.432 794.275 114.432C804.536 114.432 814.006 115.089 822.684 116.403C825.969 116.934 828.633 118.447 830.675 120.944C832.692 123.382 833.776 126.459 833.733 129.624V133.76C833.733 136.518 832.582 138.789 830.281 140.574C827.979 142.358 825.447 142.983 822.684 142.45C814.561 140.861 806.302 140.067 798.025 140.08C793.684 140.08 790.659 140.54 788.949 141.462C787.239 142.383 786.386 143.896 786.389 146C786.389 149.947 789.346 152.249 795.26 152.906Z" fill="black"/>
<path d="M279.388 136.169C283.036 131.923 286.033 127.157 288.281 122.029C296.067 103.867 290.609 84.5681 280.665 68.4059C274.142 57.8015 265.962 48.1849 257.339 39.24C248.477 30.0469 238.604 21.7565 227.389 15.5904C210.525 6.32672 190.873 1.74475 171.668 4.00532C155.251 5.95198 141.137 12.522 128.212 22.4232C120.044 16.2669 111.216 10.7432 101.243 8.39505C87.8097 5.23172 74.4785 8.76735 62.8384 15.7583C46.0619 25.8396 31.3633 41.0163 19.9713 56.8013C11.7254 68.238 5.08293 82.2054 6.34572 96.6545C7.36521 108.303 12.6841 118.462 19.5966 127.536C18.8983 130.456 18.3484 133.376 17.9518 136.281C12.9708 139.681 8.76711 144.098 5.61822 149.241C-3.32357 164.029 -1.19458 183.663 9.18763 197.178C15.3654 205.208 23.6745 210.318 32.8329 212.98C33.7648 220.939 36.7502 228.687 41.5752 235.099C49.8089 246.049 61.7045 251.923 74.515 253.772C74.8994 254.977 75.3325 256.177 75.8362 257.362C86.9848 283.576 118.494 292.672 144.414 285.871C151.602 288.08 159.458 288.735 166.395 288.528C179.142 288.151 191.851 284.391 201.958 276.468C209.107 270.859 213.963 263.481 216.649 255.196C231.343 252.848 245.003 243.674 251.219 229.911C253.779 224.192 255.263 218.051 255.599 211.795C259.013 211.193 262.347 210.199 265.533 208.834C284.395 200.653 292.95 180.31 289.651 160.6C288.225 152.083 284.3 143.503 279.388 136.169ZM211.564 21.5764C232.168 29.6332 248.66 46.0825 262.115 63.1718C271.848 75.5307 281.823 91.7878 279.665 108.074C278.724 115.214 275.317 121.944 270.714 127.412C269.375 129.001 267.351 131.283 265.735 132.59C262.22 135.43 259.037 135.634 254.786 134.615C252.11 133.972 248.93 132.753 246.857 131.853C239.942 128.855 233.382 124.991 227.122 120.813C211.973 110.697 198.184 98.0975 186.914 83.7749C185.836 82.4025 184.797 80.9984 183.78 79.5798C186.331 77.3364 188.68 74.8742 190.802 72.2214C193.77 68.5305 196.312 64.517 198.381 60.2567C201.788 53.183 197.556 50.2241 192.347 56.1492C181.999 67.9193 169.931 77.2316 155.648 81.2539C144.409 84.4173 130.453 84.0863 122.336 77.582C116.718 73.0804 115.302 67.4472 115.319 62.8652C115.353 53.8303 120.896 45.866 126.966 39.7048C138.159 28.346 151.614 20.1919 166.556 17.1259C181.325 14.0915 197.294 15.9968 211.564 21.5764ZM20.5261 191.747C11.796 182.279 9.37012 167.022 15.9737 155.794C18.9372 150.757 23.5164 146.438 28.8523 144.075C33.6066 141.973 38.8281 141.525 43.2078 143.645C48.933 146.409 53.5073 152.723 54.8358 158.858C55.702 162.856 55.0499 166.859 53.8917 170.891C47.5718 174.544 42.2558 179.708 38.4194 185.919C35.7608 190.324 33.9679 195.197 33.137 200.276C28.3417 198.425 24.0295 195.508 20.5261 191.747ZM53.4002 230.298C44.2248 220.302 41.7601 204.261 48.7772 192.472C54.4562 182.916 67.3275 174.816 77.5735 179.962C83.2889 182.831 87.9605 189.026 89.4739 195.204C90.5153 199.456 89.9606 203.672 88.8073 207.921C78.4688 215.708 72.5466 228.222 72.5515 241.119C65.308 239.44 58.5804 235.943 53.4002 230.298ZM128.01 275.76C111.221 276.02 94.1383 269.005 87.0846 252.724C83.2159 243.788 83.8485 233.585 89.053 225.353C93.5081 218.297 101.603 212.8 109.774 212.566C118.577 212.323 127.859 219.399 130.231 228.327C132.378 236.403 128.085 244.92 125.677 252.904C123.299 260.778 122.874 269.224 128.01 275.76ZM275.723 182.427C270.453 195.275 257.035 201.31 243.679 200.407C235.825 199.874 226.504 197.869 218.657 192.185C213.289 188.291 208.527 191.455 213.515 198.139C219.817 206.595 231.202 211.612 243.2 212.447C242.329 221.662 238.706 230.101 231.105 236.145C222.482 243.005 210.51 244.574 199.449 243.056C192.549 242.109 184.568 238.727 179.291 234.938C174.337 231.381 170.327 233.549 173.746 239.267C179.566 249.001 191.089 254.437 203.321 255.605C195.868 270.414 177.863 277.186 160.692 276.183C154.159 275.806 147.156 274.519 141.431 271.2C139.762 270.227 138 268.767 137.232 267.657C136.577 266.656 136.182 265.508 136.083 264.316C135.932 260.571 137.112 257.191 138.494 253.025C139.979 248.565 141.589 244.124 142.37 239.472C144.414 227.305 140.305 216.333 130.867 208.293C122.74 201.375 112.421 198.679 102.117 201.402C102.311 195.769 101.267 190.25 98.6444 185.016C94.7247 177.195 87.5274 170.173 79.1331 167.443C75.2731 166.2 71.1879 165.818 67.1645 166.323C67.7655 159.809 66.7436 153.4 63.5415 147.489C59.5901 140.189 52.8041 133.641 44.7747 131.186C40.3164 129.839 35.59 129.642 31.0348 130.612C33.5774 116.313 40.5849 102.869 53.3418 87.7412C57.6752 82.602 54.9112 79.4922 49.8259 82.3295C38.614 88.5831 29.9715 99.9906 24.4045 112.989C21.8984 108.731 19.9786 104.203 18.9981 99.3239C16.8618 88.6853 21.1684 77.4068 27.2513 67.8536C31.8183 60.685 37.3731 54.2269 43.2419 48.0949C49.5948 41.4592 56.3297 35.006 63.8627 29.7135C69.1889 25.971 74.9092 22.6374 81.194 20.8099C85.7585 19.4813 91.1041 19.0117 95.2575 19.6614C103.898 21.0095 111.65 25.4114 118.83 30.6114C105.864 43.8998 96.586 63.4298 108.508 80.5093C116.861 92.474 132.626 96.4112 146.521 95.2432C156.161 94.439 165.505 91.5213 173.889 86.6973C184.595 101.47 197.848 114.299 212.386 125.295C224.698 134.605 239.562 144.547 255.098 147.195C260.494 148.119 265.889 148.02 270.402 144.847C277.215 156.157 280.908 169.788 275.723 182.427Z" fill="black"/>
</g>
<defs>
<clipPath id="clip0_8353_20016">
<rect width="837" height="292" fill="white"/>
</clipPath>
</defs>
</svg>
