<svg width="743" height="167" viewBox="0 0 743 167" fill="none" xmlns="http://www.w3.org/2000/svg">
<path d="M212.9 82.4156V105.157C212.901 110.94 211.204 116.597 208.021 121.426C204.839 126.255 200.309 130.044 194.995 132.325C189.68 134.605 183.812 135.276 178.12 134.255C172.427 133.234 167.159 130.566 162.968 126.581L173.868 115.11C175.587 116.743 177.698 117.904 179.997 118.48C182.296 119.057 184.706 119.03 186.991 118.402C189.277 117.774 191.362 116.567 193.043 114.896C194.725 113.226 195.947 111.149 196.59 108.867C190.833 111.761 184.289 112.697 177.951 111.533C171.614 110.37 165.829 107.17 161.475 102.42C157.121 97.6708 154.436 91.6303 153.826 85.2158C153.217 78.8014 154.717 72.3632 158.099 66.8787C161.481 61.3942 166.56 57.1628 172.564 54.8268C178.569 52.4909 185.173 52.1779 191.372 53.9354C197.571 55.6929 203.027 59.4249 206.912 64.5649C210.798 69.7049 212.9 75.9723 212.9 82.4156ZM197.106 82.4156C197.108 79.6939 196.303 77.0327 194.792 74.7687C193.282 72.5046 191.134 70.7394 188.62 69.6963C186.106 68.6532 183.339 68.3792 180.67 68.9088C178 69.4384 175.548 70.7479 173.622 72.6717C171.697 74.5954 170.385 77.0469 169.854 79.7161C169.322 82.3853 169.594 85.1523 170.635 87.667C171.676 90.1817 173.439 92.3312 175.702 93.8435C177.965 95.3559 180.625 96.1631 183.347 96.1631C186.993 96.1604 190.49 94.7115 193.069 92.1343C195.648 89.557 197.1 86.0619 197.106 82.4156ZM280.824 52.9471V112.305H265.009L265.093 109.859C261.194 111.829 256.913 112.927 252.548 113.078C248.182 113.229 243.836 112.429 239.81 110.734C236.239 109.231 232.994 107.047 230.259 104.303C227.522 101.561 225.338 98.3177 223.827 94.7506C221.498 89.2406 220.866 83.1611 222.012 77.29C223.158 71.4189 226.029 66.0231 230.259 61.7931C233.001 59.0565 236.243 56.8729 239.81 55.3615C243.838 53.665 248.187 52.8654 252.554 53.0183C256.922 53.1712 261.204 54.2728 265.104 56.2468L265.009 52.9471H280.824ZM263.828 90.1744C265.079 88.0114 265.739 85.5569 265.741 83.0579C265.743 80.5588 265.087 78.1034 263.839 75.9384C262.591 73.7734 260.795 71.9752 258.631 70.7247C256.467 69.4742 254.013 68.8155 251.514 68.8148C249.014 68.8124 246.558 69.4682 244.392 70.7161C242.226 71.964 240.427 73.76 239.176 75.9237C237.924 78.0874 237.265 80.5424 237.263 83.042C237.261 85.5415 237.918 87.9974 239.166 90.1629C240.414 92.3283 242.211 94.1269 244.375 95.3778C246.539 96.6288 248.994 97.288 251.494 97.2892C253.993 97.2903 256.449 96.6334 258.614 95.3845C260.779 94.1356 262.577 92.3386 263.828 90.1744ZM304.311 68.3404V80.8337C304.315 85.2783 306.082 89.5398 309.225 92.6826C312.368 95.8254 316.63 97.5927 321.074 97.5968V113.412C316.795 113.415 312.557 112.574 308.603 110.938C304.649 109.302 301.057 106.903 298.031 103.877C295.005 100.851 292.605 97.2585 290.969 93.3045C289.333 89.3505 288.493 85.1128 288.496 80.8337V39.9682L304.311 34.6969V53.5797H321.074V68.3404L304.311 68.3404ZM331.187 103.954C327.733 100.501 325.184 96.2483 323.766 91.5742C322.348 86.9001 322.105 81.9484 323.058 77.1578C324.011 72.3672 326.13 67.8856 329.229 64.1098C332.328 60.3341 336.31 57.3808 340.822 55.5116C345.335 53.6424 350.239 52.915 355.1 53.3938C359.961 53.8726 364.629 55.5429 368.69 58.2566C372.751 60.9703 376.08 64.6438 378.383 68.9515C380.685 73.2593 381.89 78.0684 381.89 82.9529V90.5965H339.979C341.148 92.4633 342.729 94.0377 344.6 95.1988C346.471 96.3599 348.584 97.0768 350.776 97.2947C352.967 97.5126 355.18 97.2256 357.243 96.4557C359.307 95.6857 361.166 94.4534 362.679 92.8531L373.792 103.354C371.063 106.24 367.783 108.549 364.145 110.146C360.508 111.742 356.588 112.594 352.616 112.65C348.645 112.706 344.702 111.965 341.021 110.472C337.341 108.978 333.997 106.762 331.187 103.954ZM364.409 75.3087C363.113 73.2375 361.313 71.5297 359.176 70.3458C357.039 69.1619 354.637 68.5408 352.194 68.5408C349.751 68.5408 347.349 69.1619 345.212 70.3458C343.075 71.5297 341.275 73.2375 339.979 75.3087H364.409ZM423.085 83.1319L413.934 112.305H400.786L380.533 53.5797H397.117L407.376 84.1126L416.717 53.5797H429.548L439.069 84.1553L449.264 53.5797H465.848L445.595 112.305H432.237L423.085 83.1319ZM524.517 52.9471V112.305H508.702L508.786 109.859C504.887 111.829 500.607 112.927 496.241 113.078C491.875 113.229 487.529 112.429 483.503 110.734C479.932 109.231 476.687 107.047 473.952 104.303C471.215 101.561 469.031 98.3177 467.52 94.7506C465.191 89.2406 464.559 83.1611 465.705 77.29C466.851 71.4188 469.722 66.0231 473.952 61.7931C476.694 59.0564 479.936 56.8729 483.503 55.3615C487.531 53.6649 491.88 52.8654 496.247 53.0182C500.615 53.1711 504.897 54.2728 508.797 56.2468L508.702 52.9471H524.517ZM507.521 90.1743C508.772 88.0113 509.432 85.5569 509.434 83.0578C509.436 80.5588 508.78 78.1033 507.532 75.9383C506.284 73.7733 504.488 71.9751 502.324 70.7246C500.16 69.4742 497.706 68.8155 495.207 68.8148C492.707 68.8124 490.251 69.4682 488.085 70.7161C485.919 71.964 484.12 73.76 482.869 75.9237C481.618 78.0874 480.958 80.5424 480.956 83.042C480.954 85.5415 481.611 87.9974 482.859 90.1629C484.107 92.3283 485.904 94.1269 488.068 95.3778C490.232 96.6288 492.687 97.288 495.187 97.2892C497.686 97.2903 500.142 96.6334 502.307 95.3845C504.472 94.1356 506.27 92.3386 507.521 90.1743ZM552.302 106.685L528.812 53.5797H546.197L560.41 86.8544L573.62 53.5797H590.552L558.48 133.18H541.684L552.302 106.685ZM585.586 102.694C585.593 101.423 585.851 100.166 586.345 98.9949C586.84 97.8239 587.561 96.7622 588.467 95.8708C589.373 94.9795 590.447 94.2762 591.626 93.8013C592.805 93.3264 594.066 93.0893 595.338 93.1037C597.879 93.1063 600.316 94.1177 602.112 95.9159C603.909 97.714 604.917 100.152 604.917 102.693C604.917 105.235 603.909 107.673 602.112 109.471C600.316 111.269 597.879 112.281 595.338 112.283C594.067 112.298 592.805 112.061 591.626 111.586C590.447 111.111 589.374 110.408 588.467 109.517C587.561 108.626 586.84 107.564 586.345 106.393C585.851 105.222 585.593 103.965 585.586 102.694ZM651.624 53.7274V68.4875H634.86V112.305H619.045V53.6746C619.042 49.3954 619.882 45.1576 621.518 41.2036C623.155 37.2495 625.554 33.6569 628.58 30.631C631.606 27.6052 635.198 25.2056 639.152 23.5695C643.107 21.9334 647.344 21.0929 651.624 21.0961V36.911C647.179 36.9151 642.917 38.6825 639.774 41.8254C636.631 44.9683 634.864 49.2299 634.86 53.6746V53.7274L651.624 53.7274ZM742.929 79.1995V112.305H727.114V79.1996C727.114 76.669 726.109 74.242 724.32 72.4526C722.53 70.6632 720.103 69.6579 717.573 69.6579C715.042 69.6579 712.615 70.6632 710.826 72.4526C709.036 74.242 708.031 76.669 708.031 79.1996V112.305H692.216V79.1996C692.217 77.9457 691.971 76.7039 691.493 75.5451C691.014 74.3864 690.311 73.3333 689.425 72.4463C688.539 71.5592 687.486 70.8556 686.328 70.3754C685.17 69.8953 683.928 69.6482 682.674 69.6482C681.421 69.6482 680.179 69.8953 679.021 70.3754C677.863 70.8556 676.81 71.5592 675.924 72.4463C675.038 73.3333 674.335 74.3864 673.856 75.5451C673.378 76.7039 673.132 77.9457 673.133 79.1996V112.305H657.318V52.9471H673.133V55.6989C677.647 53.871 682.592 53.3802 687.378 54.285C692.164 55.1898 696.588 57.4519 700.124 60.8018C703.72 57.3878 708.239 55.1036 713.12 54.2319C718.002 53.3601 723.032 53.9392 727.588 55.8973C732.144 57.8554 736.025 61.1065 738.752 65.2484C741.479 69.3902 742.931 74.2407 742.929 79.1995ZM0 89.4742L120.314 20.0109L120.489 42.2118L0 111.776V89.4742ZM86.8239 22.7753L86.6491 0L0 50.0269V72.9031L86.8239 22.7753ZM87.7809 77.6667L68.467 88.8175L134.025 126.667V104.366L87.7809 77.6667ZM134.025 87.7946V50.9677L102.132 69.3811L134.025 87.7946ZM120.314 135.322L54.1159 97.103L34.802 108.254L81.6782 135.318L67.3271 143.604L20.4509 116.54L0.814362 127.877L67.0124 166.096L120.314 135.322Z" fill="black"/>
</svg>
