<svg width="1061" height="111" viewBox="0 0 1061 111" fill="none" xmlns="http://www.w3.org/2000/svg">
<path d="M418.197 110.717H477.559V0.336343H418.197V110.717ZM373.575 0.30943H408.761V14.5569H376.22C370.849 14.5569 366.454 16.1108 363.035 19.2119C359.61 22.313 357.9 26.3895 357.9 31.4346C357.9 36.5874 359.61 40.7177 363.035 43.8188C366.454 46.9199 370.856 48.4738 376.22 48.4738H408.761V110.717H337.729V96.4431H374.968C380.756 96.4431 385.474 94.8152 389.102 91.5527C392.736 88.2968 394.554 84.1396 394.554 79.0945C394.554 74.0493 392.736 69.946 389.102 66.7911C385.468 63.6362 380.756 62.062 374.968 62.062L370.244 62.1428C355.046 62.1428 342.703 49.8932 342.609 34.7173L342.588 31.3876V31.2665C342.582 14.1668 356.46 0.30943 373.575 0.30943ZM520.956 0.30943H555.052V14.5569H523.608C518.237 14.5569 513.842 16.1108 510.423 19.2119C506.998 22.313 505.288 26.3895 505.288 31.4346C505.288 36.5874 506.998 40.7177 510.423 43.8188C513.842 46.9199 518.244 48.4738 523.608 48.4738H555.052V79.1752C555.052 96.5978 540.912 110.717 523.467 110.717H521.253H487.278V96.4431H521.253C527.041 96.4431 531.759 94.8152 535.386 91.5527C539.021 88.2968 540.838 84.1396 540.838 79.0945C540.838 74.0493 539.021 69.946 535.386 66.7911C531.752 63.6362 527.041 62.1428 521.253 62.1428H517.618H490.158L489.963 31.3876V31.2665C489.963 14.1668 503.841 0.30943 520.956 0.30943ZM55.2764 0.30943H95.0797V14.5569H56.3869C49.1249 14.5569 42.408 16.3732 36.2497 19.999C30.0914 23.6247 25.2186 28.569 21.6381 34.825C18.0575 41.081 16.2673 47.8885 16.2673 55.2477C16.2673 62.6069 18.0575 70.0401 21.6381 76.2423C25.2186 82.4512 30.0847 87.3618 36.2497 90.9876C42.408 94.6133 49.1249 96.4296 56.3869 96.4296H79.9162V62.136H41.6945V48.2585H95.0797V110.717H55.909H55.3168C24.7744 110.738 0 86.0164 0 55.5168C0 25.0239 24.7475 0.30943 55.2764 0.30943ZM211.017 51.5614V110.758H196.93V51.7498C196.93 31.2126 180.259 14.5637 159.691 14.5637C139.123 14.5637 122.452 31.2126 122.452 51.7498V110.758H108.244V0.376703H159.765C188.066 0.376703 211.017 23.2951 211.017 51.5614ZM467.053 33.6276C467.053 44.2157 458.465 52.7924 447.878 52.7924C437.291 52.7924 428.703 44.209 428.703 33.6276C428.703 23.0462 437.291 14.4628 447.878 14.4628C458.465 14.4628 467.053 23.0395 467.053 33.6276ZM593.422 55.4226V55.5504C593.422 86.0366 618.17 110.717 648.698 110.717H672.06V96.4431H649.075C626.138 96.4431 607.596 77.628 608.088 54.6087C608.565 32.2284 627.41 14.5637 649.829 14.5637H672.06V0.376703H648.544C618.102 0.376703 593.422 25.0239 593.422 55.4226ZM1009.75 0.376703H958.227V110.717H972.435V51.7498C972.435 31.2126 989.106 14.5637 1009.67 14.5637C1030.24 14.5637 1046.91 31.2126 1046.91 51.7498V110.717H1061V51.5614C1061.01 23.2951 1038.06 0.376703 1009.75 0.376703ZM752.581 37.3812C752.581 40.4284 751.498 43.0049 749.344 45.1104C747.184 47.2159 744.633 48.2652 741.685 48.2652H708.841C705.785 48.2652 703.208 47.2159 701.101 45.1104C698.994 43.0116 697.945 40.4352 697.945 37.3812V0.376703H683.737V110.717H697.945V73.0201C697.945 69.9729 698.994 67.3964 701.101 65.2909C703.208 63.1922 705.785 62.136 708.841 62.136H741.685C744.633 62.136 747.184 63.1854 749.344 65.2909C751.498 67.3964 752.581 69.9729 752.581 73.0201V110.717H766.634V0.376703H752.581V37.3812ZM887.189 0.376703V110.717H946.55V0.376703H887.189ZM916.87 52.7924C906.276 52.7924 897.695 44.209 897.695 33.6276C897.695 23.0395 906.283 14.4628 916.87 14.4628C927.463 14.4628 936.044 23.0462 936.044 33.6276C936.044 44.209 927.463 52.7924 916.87 52.7924ZM835.17 6.24924C833.292 2.09204 830.64 0.00671291 827.201 0.00671291C823.768 0.00671291 821.11 2.08531 819.232 6.24924L771.904 110.717H882.026L835.17 6.24924ZM827.208 92.6289C816.614 92.6289 808.033 84.0455 808.033 73.4641C808.033 62.8827 816.621 54.2993 827.208 54.2993C837.801 54.2993 846.382 62.8827 846.382 73.4641C846.382 84.0455 837.794 92.6289 827.208 92.6289ZM326.126 27.412C321.058 18.889 314.22 12.1891 305.625 7.3121C297.024 2.44185 287.655 0 277.519 0C267.686 0 258.398 2.44185 249.642 7.3121C240.886 12.1891 234.048 18.889 229.142 27.412C224.222 35.9416 221.772 45.2247 221.772 55.2747C221.772 65.3246 224.229 74.6144 229.142 83.1373C234.055 91.667 240.893 98.4409 249.642 103.466C258.398 108.491 267.68 111 277.519 111C287.655 111 297.017 108.491 305.625 103.466C314.22 98.4409 321.058 91.667 326.126 83.1373C331.194 74.6144 333.725 65.3179 333.725 55.2747C333.731 45.2315 331.194 35.9416 326.126 27.412ZM277.755 74.7556C267.134 74.7556 258.526 66.1453 258.526 55.5236C258.526 44.9018 267.134 36.2914 277.755 36.2914C288.375 36.2914 296.984 44.9018 296.984 55.5236C296.984 66.1453 288.375 74.7556 277.755 74.7556Z" fill="black"/>
</svg>
