<svg width="464" height="83" viewBox="0 0 464 83" fill="none" xmlns="http://www.w3.org/2000/svg">
<g clip-path="url(#clip0_8353_20293)">
<path d="M100.059 57.0625V23.9922H109.001V57.0625H100.059Z" fill="black"/>
<path d="M150.087 57.0625L127.794 34.3672V57.0625H118.852V23.9922H128.572L150.865 46.8172V23.9922H159.808V57.0625H150.087Z" fill="black"/>
<path d="M178.601 30.9953V36.7016H200.116V43.7047H178.601V57.0625H169.658V23.9922H201.283V30.9953H178.601Z" fill="black"/>
<path d="M238.87 33.3298C238.222 33.0704 237.444 32.6813 236.407 32.2923C235.37 31.9032 234.204 31.5143 232.908 31.2549C231.611 30.9955 230.186 30.6063 228.63 30.347C227.075 30.0876 225.52 29.958 223.965 29.958C222.668 29.958 221.632 29.9579 220.724 30.0876C219.817 30.2173 219.039 30.2173 218.391 30.347C217.743 30.4767 217.225 30.6063 216.966 30.736C216.577 30.8657 216.318 31.1252 216.188 31.2549C216.058 31.3846 215.929 31.6438 215.799 31.7735C215.799 31.9032 215.67 32.1626 215.67 32.2923C215.67 32.811 215.929 33.2001 216.447 33.5892C216.966 33.9782 217.614 34.2377 218.391 34.4971C219.169 34.7565 220.206 35.0157 221.243 35.2751C222.409 35.5345 223.576 35.7938 224.742 36.0532C225.909 36.3126 227.334 36.572 228.63 36.961C229.927 37.2204 231.223 37.6095 232.519 37.9985C233.815 38.3876 234.981 38.9063 236.018 39.4251C237.185 39.9438 238.092 40.5923 238.87 41.3704C239.647 42.1485 240.425 42.9267 240.814 43.9642C241.332 44.872 241.591 46.0392 241.591 47.2064C241.591 48.7626 241.332 50.1893 240.684 51.3565C240.166 52.5237 239.388 53.4313 238.481 54.2095C237.573 54.9876 236.407 55.636 235.241 56.1548C233.944 56.6735 232.648 56.933 231.352 57.1924C230.056 57.4518 228.63 57.5813 227.205 57.711C225.779 57.8407 224.483 57.8409 223.187 57.8409C219.947 57.8409 216.836 57.5813 214.114 57.0626C211.392 56.5438 208.93 55.8954 206.727 54.9876V47.0767C208.93 48.2438 211.392 49.2813 214.244 49.9298C217.095 50.5782 220.076 50.9673 223.317 50.9673C225.261 50.9673 226.816 50.8377 227.982 50.708C229.149 50.5784 230.056 50.1892 230.834 49.9298C231.611 49.6704 232 49.2813 232.26 48.8923C232.519 48.5032 232.648 48.1142 232.648 47.8548C232.648 47.336 232.389 46.8173 231.871 46.4282C231.352 46.0392 230.704 45.6501 229.927 45.3907C229.149 45.1313 228.112 44.872 227.075 44.6126C225.909 44.3532 224.742 44.0938 223.576 43.8345C222.28 43.5751 221.113 43.3157 219.687 43.0563C218.391 42.797 217.095 42.4079 215.799 42.0189C214.503 41.6298 213.337 41.111 212.3 40.5923C211.263 40.0735 210.226 39.4251 209.448 38.7767C208.671 37.9985 207.893 37.2204 207.504 36.3126C206.986 35.4048 206.727 34.2376 206.727 33.0704C206.727 31.6438 206.986 30.3471 207.504 29.3096C208.023 28.2721 208.671 27.3642 209.578 26.586C210.485 25.8079 211.522 25.2893 212.559 24.7705C213.725 24.2518 214.892 23.9923 216.188 23.7329C217.484 23.4735 218.78 23.3438 220.076 23.2142C221.372 23.0845 222.668 23.0845 223.835 23.0845C225.131 23.0845 226.427 23.0845 227.853 23.2142C229.149 23.3438 230.575 23.4735 231.871 23.7329C233.167 23.9923 234.463 24.2517 235.629 24.511C236.796 24.7704 237.962 25.1596 238.999 25.419V33.3298H238.87Z" fill="black"/>
<path d="M268.161 31.125V57.0625H259.218V31.125H245.221V23.8625H282.289V31.125H268.161Z" fill="black"/>
<path d="M329.985 40.4624C329.985 43.3155 329.466 45.7796 328.429 47.9843C327.393 50.189 325.837 52.0046 323.893 53.4312C321.949 54.8577 319.616 56.0249 316.765 56.803C314.043 57.5812 310.932 57.9702 307.433 57.9702C303.933 57.9702 300.823 57.5812 298.101 56.803C295.379 56.0249 292.917 54.9874 290.972 53.4312C289.028 52.0046 287.473 50.189 286.436 47.9843C285.399 45.7796 284.881 43.3155 284.881 40.4624C284.881 37.6093 285.399 35.1452 286.436 32.9405C287.473 30.7358 289.028 28.9202 290.972 27.4937C292.917 26.0671 295.25 24.8999 298.101 24.1218C300.952 23.3437 304.063 22.9546 307.433 22.9546C310.932 22.9546 314.043 23.3437 316.765 24.1218C319.486 24.8999 321.949 25.9374 323.893 27.4937C325.837 28.9202 327.393 30.7358 328.429 32.9405C329.466 35.1452 329.985 37.739 329.985 40.4624ZM320.912 40.4624C320.912 39.1655 320.653 37.9983 320.264 36.7015C319.875 35.5343 319.227 34.3671 318.19 33.3296C317.153 32.2921 315.857 31.514 314.043 30.9952C312.228 30.4765 310.155 30.0874 307.433 30.0874C305.618 30.0874 304.063 30.2171 302.637 30.4765C301.212 30.7358 300.045 31.1249 299.138 31.6437C298.101 32.1624 297.323 32.6812 296.675 33.3296C296.027 33.978 295.509 34.7562 295.12 35.5343C294.731 36.3124 294.472 37.0905 294.213 37.8687C294.083 38.6468 293.953 39.5546 293.953 40.3327C293.953 41.1108 294.083 42.0187 294.213 42.7968C294.342 43.5749 294.602 44.4827 295.12 45.1312C295.509 45.9093 296.027 46.5577 296.675 47.2062C297.323 47.8546 298.231 48.503 299.138 48.8921C300.175 49.4108 301.341 49.7999 302.637 50.0593C304.063 50.3186 305.618 50.4483 307.433 50.4483C310.155 50.4483 312.358 50.189 314.043 49.5405C315.728 48.8921 317.153 48.114 318.19 47.2062C319.227 46.1687 319.875 45.1312 320.264 43.8343C320.783 42.9265 320.912 41.7593 320.912 40.4624Z" fill="black"/>
<path d="M368.867 57.0625L346.574 34.3672V57.0625H337.631V23.9922H347.352L369.644 46.8172V23.9922H378.587V57.0625H368.867Z" fill="black"/>
<path d="M388.438 57.0625V23.9922H421.877V30.9953H397.51V36.4422H420.58V43.4453H397.51V49.9297H422.136V56.9328H388.438V57.0625Z" fill="black"/>
<path d="M461.018 33.3298C460.37 33.0704 459.592 32.6813 458.555 32.2923C457.519 31.9032 456.352 31.5143 455.056 31.2549C453.76 30.9955 452.334 30.6063 450.779 30.347C449.224 30.0876 447.668 29.958 446.113 29.958C444.817 29.958 443.78 29.9579 442.873 30.0876C441.966 30.2173 441.188 30.2173 440.54 30.347C439.892 30.4767 439.373 30.6063 439.114 30.736C438.725 30.8657 438.466 31.1252 438.336 31.2549C438.207 31.3846 438.077 31.6438 437.948 31.7735C437.948 31.9032 437.818 32.1626 437.818 32.2923C437.818 32.811 438.077 33.2001 438.596 33.5892C439.114 33.9782 439.762 34.2377 440.54 34.4971C441.317 34.7565 442.354 35.0157 443.391 35.2751C444.558 35.5345 445.724 35.7938 446.891 36.0532C448.187 36.3126 449.483 36.572 450.779 36.961C452.075 37.2204 453.371 37.6095 454.667 37.9985C455.963 38.3876 457.13 38.9063 458.167 39.4251C459.333 39.9438 460.24 40.5923 461.018 41.3704C461.796 42.1485 462.573 42.9267 462.962 43.9642C463.481 44.872 463.74 46.0392 463.74 47.2064C463.74 48.7626 463.481 50.1893 462.833 51.3565C462.314 52.5237 461.536 53.4313 460.629 54.2095C459.722 54.9876 458.555 55.636 457.389 56.1548C456.093 56.6735 454.797 56.933 453.501 57.1924C452.205 57.4518 450.779 57.5813 449.353 57.711C447.928 57.8407 446.631 57.8409 445.335 57.8409C442.095 57.8409 438.985 57.5813 436.263 57.0626C433.541 56.5438 431.078 55.8954 428.875 54.9876V47.0767C431.078 48.2438 433.541 49.2813 436.392 49.9298C439.244 50.5782 442.225 50.9673 445.465 50.9673C447.409 50.9673 448.964 50.8377 450.131 50.708C451.297 50.4487 452.205 50.1892 452.982 49.9298C453.63 49.6704 454.149 49.2813 454.408 48.8923C454.667 48.5032 454.797 48.1142 454.797 47.8548C454.797 47.336 454.538 46.8173 454.019 46.4282C453.501 46.0392 452.853 45.6501 452.075 45.3907C451.297 45.1313 450.26 44.872 449.224 44.6126C448.057 44.3532 446.891 44.0938 445.724 43.8345C444.428 43.5751 443.262 43.3157 441.836 43.0563C440.54 42.797 439.244 42.4079 437.948 42.0189C436.652 41.6298 435.485 41.111 434.448 40.5923C433.411 40.0735 432.374 39.4251 431.597 38.7767C430.819 37.9985 430.041 37.2204 429.653 36.3126C429.134 35.4048 428.875 34.2376 428.875 33.0704C428.875 31.6438 429.134 30.3471 429.653 29.3096C430.171 28.2721 430.819 27.3642 431.726 26.586C432.634 25.8079 433.671 25.2893 434.707 24.7705C435.744 24.2518 437.04 23.9923 438.336 23.7329C439.633 23.4735 440.929 23.3438 442.225 23.2142C443.521 23.0845 444.817 23.0845 445.983 23.0845C447.279 23.0845 448.576 23.0845 450.001 23.2142C451.297 23.3438 452.723 23.4735 454.019 23.7329C455.315 23.9923 456.611 24.2517 457.778 24.511C458.944 24.7704 460.111 25.1596 461.148 25.419V33.3298H461.018Z" fill="black"/>
<path d="M41.0857 0C30.717 0 22.4219 8.42967 22.4219 18.675C22.4219 22.9547 23.9772 27.2344 26.699 30.6063L28.3839 32.5516L47.3068 55.8953L48.9917 57.8406C50.547 59.6562 51.3247 61.8609 51.3247 64.325C51.3247 69.9016 46.7884 74.4406 41.2152 74.4406C35.642 74.4406 31.1057 69.9016 31.1057 64.325V62.8984C28.3839 64.1953 25.5325 64.9734 22.5515 65.2328C23.0699 75.0891 31.2353 83 41.2152 83C51.5839 83 59.879 74.5703 59.879 64.325C59.879 60.0453 58.3236 55.7656 55.6018 52.3938L54.0466 50.4484L35.1236 27.1047L33.4386 25.1594C31.8833 23.3438 31.1057 21.1391 31.1057 18.8047C31.1057 13.2281 35.642 8.68906 41.2152 8.68906C46.7884 8.68906 51.3247 13.2281 51.3247 18.8047V19.9719C53.9168 18.675 56.7684 17.8969 59.879 17.7672C59.2309 7.91094 51.0656 0 41.0857 0Z" fill="black"/>
<path d="M20.7374 61.8609C25.9218 61.8609 31.2358 59.6562 34.6056 56.1546C36.2905 54.4687 37.9754 52.6531 39.4011 50.7078L33.8279 43.8343C32.143 46.039 30.4581 47.9843 28.514 49.9296C26.9587 51.4859 23.848 53.1718 20.4782 53.1718C13.9978 53.1718 8.6838 47.8546 8.6838 41.3703C8.6838 34.8859 13.9978 29.5687 20.4782 29.5687C21.2559 29.5687 21.9039 29.6984 22.552 29.6984C20.9966 26.975 19.9598 23.9921 19.5709 20.8796C8.6838 21.2687 0 30.3468 0 41.2406C0 52.3937 9.07263 61.6015 20.219 61.7312H20.7374V61.8609Z" fill="black"/>
<path d="M62.6004 21.0093H60.0082C54.9535 21.2687 51.0652 23.0843 47.4362 26.7155C45.7512 28.4015 44.0663 30.2171 42.6406 32.1624L48.2138 39.0358C49.8987 36.8312 51.5836 34.8858 53.5278 32.9405C55.8607 30.6062 58.0641 29.6983 61.5635 29.6983C68.044 29.6983 73.3579 35.0155 73.3579 41.4999C73.3579 47.9843 68.044 53.3015 61.5635 53.3015C60.9155 53.3015 60.1378 53.1718 59.3602 53.0421C61.0451 55.7655 61.9524 58.7483 62.3412 61.8608C73.2283 61.4718 81.9121 52.3937 81.9121 41.4999C82.1714 30.4765 73.4876 21.528 62.6004 21.0093Z" fill="black"/>
</g>
<defs>
<clipPath id="clip0_8353_20293">
<rect width="464" height="83" fill="white"/>
</clipPath>
</defs>
</svg>
