<svg width="588" height="123" viewBox="0 0 588 123" fill="none" xmlns="http://www.w3.org/2000/svg">
<path d="M37.7421 91.2933C37.4687 91.5667 31.1784 98.4 31.4519 97.8533C29.264 100.313 24.8883 100.587 21.8799 98.1267C21.8799 98.1267 21.8799 98.1267 21.6065 97.8533C18.8716 95.3933 18.5981 91.02 21.0595 88.2867C21.0595 88.2867 21.0595 88.0133 21.333 88.0133H21.8799L25.9823 83.3667L27.3497 81.7267L20.239 75.1667L4.1032 92.9333C-1.36657 101.133 5.74414 115.347 5.74414 115.893C28.17 123.273 28.17 115.347 44.8528 98.1267L37.7421 91.2933Z" fill="black"/>
<path d="M26.8003 25.4205C27.0738 25.4205 27.0738 25.4205 26.8003 25.4205C27.0738 25.6939 40.2013 39.6339 39.3808 38.8139L28.7148 56.3072C28.9882 56.5805 61.5334 75.9872 61.2599 75.7139C117.051 42.6405 53.0552 80.6339 93.805 56.3072L83.1389 38.8139C82.8654 38.5405 78.7631 31.7072 79.0366 31.9805L61.5334 2.46053L43.4831 32.2539C43.2096 31.9805 31.9966 19.9539 32.5436 20.7739C32.8171 20.5005 33.0906 19.9539 33.3641 19.6805C35.552 15.0339 35.005 9.56721 31.4496 5.46721L26.8003 0.547195L25.1594 2.1872L17.7752 9.02054L10.391 15.8539L14.7668 20.5005C39.6543 -2.45947 13.1259 22.1405 29.5352 6.83388L25.7063 3.00721L29.5352 7.10721C32.2701 10.1139 32.8171 13.9405 31.4496 17.4939C30.3557 20.2272 27.8943 22.6872 24.8859 23.5072C21.3305 24.6005 17.5017 23.5072 14.7668 20.7739L10.391 15.8539L8.47656 17.4939L13.1259 22.4139C16.6812 26.2405 22.151 27.3339 26.8003 25.4205ZM57.1575 18.5872V38.5405C47.0385 43.1872 41.8422 45.3739 40.4748 46.1939C44.0301 40.1805 53.3287 24.8739 57.1575 18.5872Z" fill="black"/>
<path d="M117.874 92.9333L101.739 75.1667L94.628 81.7267L95.9954 83.3667L100.098 88.0133L100.372 88.2867C100.372 88.2867 100.371 88.2867 100.645 88.56C103.106 91.5667 102.833 95.6667 100.098 98.1267C100.098 98.1267 100.098 98.1267 99.8245 98.4C97.0896 100.86 93.2605 100.86 90.5257 98.4C90.5257 98.4 90.5259 98.4 90.2524 98.1267L89.7052 97.3067L84.2354 91.2933L77.125 97.8533L93.2605 115.347C99.5508 120.267 110.764 116.987 116.234 115.62C116.234 115.62 123.071 101.133 117.874 92.9333Z" fill="black"/>
<path d="M101.189 13.6672L105.565 8.74721L98.1805 1.91386L93.8047 6.83388C94.0782 7.10721 101.736 13.9405 101.189 13.6672Z" fill="black"/>
<path d="M83.6872 39.0869C83.9607 38.8136 97.0881 24.6003 96.2677 25.4203C101.19 27.3336 106.66 26.2403 110.216 22.1403L114.865 17.2203L112.95 15.5803L105.566 8.74694L101.19 13.6669C101.464 13.9403 109.122 21.0469 108.575 20.5003C105.84 23.2336 102.011 24.3269 98.4556 23.2336C97.0881 22.6869 95.7207 22.1403 94.6267 21.0469C93.5328 19.9536 92.7123 18.5869 92.1653 17.2203C90.7979 13.6669 91.3449 9.84028 94.0797 6.83361L98.4556 1.91361L96.5411 0.273605L91.8918 5.19361C88.3365 9.02028 87.7895 14.7603 89.9774 19.4069C90.2509 19.6803 90.5244 20.2269 90.7979 20.5003C90.5244 20.7736 79.0379 33.0736 79.8583 32.2536C79.5849 32.5269 83.9607 39.3603 83.6872 39.0869Z" fill="black"/>
<path d="M80.4055 82.2733C90.7981 93.48 92.986 95.94 92.7125 95.94C92.986 96.2133 93.2595 96.2133 93.8065 96.4867H94.08C94.6269 96.4867 94.9004 96.4867 95.1739 96.4867C96.2679 96.4867 97.0883 95.94 97.6353 95.3933C100.917 92.3867 96.5414 88.56 97.3618 89.6533C97.0883 89.38 84.2344 75.44 84.5079 75.7133C92.7125 64.2333 87.7897 71.34 93.8065 62.5933C90.7981 64.2333 63.9962 80.0867 61.2614 81.7267C60.9879 81.4533 28.4428 62.32 28.7162 62.5933C28.9897 62.8667 37.7414 75.44 37.7414 75.1667C33.3655 79.8133 24.614 89.38 24.3405 89.6533V90.2L24.067 90.4733C22.6996 92.1133 22.973 94.3 24.3405 95.6667C26.5284 97.3067 27.3489 96.4867 29.2632 95.6667L29.8102 95.12C30.0837 94.8467 42.3907 81.18 42.1172 81.7267C48.4074 90.7467 55.7916 101.133 61.5348 108.787C68.919 98.4 77.1237 86.6467 80.4055 82.2733ZM57.159 94.5733C56.8855 94.3 44.5786 76.8067 45.1255 77.6267C45.399 77.9 57.9795 85.28 57.159 84.7333V94.5733Z" fill="black"/>
<path d="M198.29 90.2H168.281V41.0563H175.223V84.7798H197.423L198.29 90.2ZM209.31 80.0823C209.31 81.4312 209.792 82.6839 210.756 83.8404C211.72 84.9966 213.191 85.5747 215.167 85.5747C216.951 85.5747 218.614 85.1412 220.157 84.2739C221.747 83.4066 223.145 82.2985 224.35 80.9493V73.867H215.818C213.697 73.867 212.082 74.4935 210.973 75.7459C209.864 76.9986 209.31 78.4442 209.31 80.0823ZM205.188 57.3172C206.538 56.4018 208.49 55.6551 211.045 55.0767C213.6 54.4986 215.625 54.2097 217.119 54.2097C221.169 54.2097 224.543 55.3418 227.243 57.6061C229.942 59.8707 231.292 62.8096 231.292 66.4233V90.2H227.388C227.05 89.67 226.737 89.116 226.448 88.5379C226.158 87.9598 225.869 87.4055 225.58 86.8755C224.375 87.9355 222.832 88.8992 220.952 89.7665C219.072 90.6335 217.192 91.0673 215.312 91.0673C211.166 91.0673 208.08 90.0314 206.056 87.9598C204.079 85.8879 203.091 83.262 203.091 80.0823C203.091 76.5651 204.272 73.891 206.634 72.0602C209.045 70.1811 212.154 69.2416 215.962 69.2416H224.278C224.278 66.8327 223.796 64.7609 222.832 63.0266C221.868 61.292 220.012 60.4247 217.264 60.4247C215.191 60.4247 213.311 60.6899 211.624 61.2198C209.937 61.7015 208.442 62.2315 207.14 62.8096L205.188 57.3172ZM264.903 86.5141C263.361 87.9598 261.505 89.14 259.335 90.0554C257.214 90.9227 255.214 91.3562 253.334 91.3562C249.043 91.3562 245.91 90.1279 243.933 87.6706C242.005 85.1652 241.041 82.0336 241.041 78.2756V55.1491H248.055V77.7696C248.055 80.0339 248.609 81.889 249.718 83.3344C250.875 84.7317 252.562 85.4301 254.78 85.4301C256.081 85.4301 257.576 85.0931 259.263 84.4185C260.95 83.6958 262.517 82.732 263.963 81.5277V55.1491H270.905V90.2H266.928L264.903 86.5141ZM287.517 59.7745C289.013 58.1361 290.941 56.7632 293.302 55.6551C295.664 54.5467 297.858 53.9926 299.882 53.9926C304.173 53.9926 307.282 55.2453 309.21 57.7507C311.188 60.208 312.175 63.3155 312.175 67.0736V90.2H305.234V67.7241C305.234 65.3633 304.654 63.4841 303.497 62.0869C302.39 60.6899 300.702 59.9672 298.438 59.9188C296.991 59.9188 295.303 60.3766 293.375 61.292C291.447 62.2074 289.784 63.412 288.384 64.9055V90.2H281.443V55.1491H285.348L287.517 59.7745ZM337.443 60.1358C334.163 60.1358 331.705 61.3401 330.067 63.7493C328.475 66.1101 327.654 69.0489 327.608 72.5662C327.608 76.2278 328.379 79.2631 329.922 81.672C331.464 84.0331 333.898 85.2133 337.224 85.2133C339.346 85.2133 341.009 84.9966 342.215 84.5631C343.468 84.1293 344.84 83.5512 346.336 82.8285L348.434 87.8152C346.889 88.8752 345.01 89.6941 342.792 90.2722C340.574 90.8506 338.72 91.1395 337.224 91.1395C331.825 91.1395 327.679 89.4292 324.788 86.0084C321.944 82.5877 320.522 78.131 320.522 72.6384C320.568 67.1941 322.04 62.7614 324.93 59.3407C327.873 55.9199 332.066 54.2097 337.514 54.2097C338.96 54.2097 340.768 54.5226 342.937 55.1491C345.155 55.7272 347.034 56.5464 348.576 57.6061L346.552 62.5206C345.059 61.8942 343.684 61.3401 342.431 60.8585C341.178 60.3766 339.516 60.1358 337.443 60.1358ZM363.81 58.9793C365.303 57.534 367.111 56.3534 369.233 55.438C371.402 54.4745 373.425 53.9926 375.307 53.9926C379.595 53.9926 382.705 55.2453 384.633 57.7507C386.61 60.208 387.598 63.3155 387.598 67.0736V90.2H380.656V67.7241C380.656 65.3633 380.079 63.4841 378.923 62.0869C377.812 60.6899 376.1 59.9672 373.786 59.9188C372.342 59.9188 370.655 60.3766 368.727 61.292C366.845 62.2074 365.207 63.412 363.81 64.9055V90.2H356.866V39.9723L363.81 39.1774V58.9793ZM403.824 59.7745C405.317 58.1361 407.245 56.7632 409.608 55.6551C411.968 54.5467 414.164 53.9926 416.188 53.9926C420.479 53.9926 423.589 55.2453 425.517 57.7507C427.491 60.208 428.481 63.3155 428.481 67.0736V90.2H421.538V67.7241C421.538 65.3633 420.96 63.4841 419.804 62.0869C418.693 60.6899 417.006 59.9672 414.741 59.9188C413.295 59.9188 411.607 60.3766 409.679 61.292C407.751 62.2074 406.088 63.412 404.691 64.9055V90.2H397.749V55.1491H401.652L403.824 59.7745ZM453.024 91.1395C447.721 91.0914 443.696 89.3568 440.947 85.936C438.198 82.4671 436.826 78.0104 436.826 72.5662C436.875 67.17 438.368 62.7855 441.308 59.4131C444.251 55.9921 448.372 54.2578 453.675 54.2097C459.169 54.2097 463.316 55.968 466.111 59.4853C468.955 62.9541 470.377 67.4349 470.377 72.9275C470.377 78.3718 468.835 82.7563 465.75 86.0806C462.665 89.4052 458.423 91.0914 453.024 91.1395ZM463.365 72.9275C463.365 69.1695 462.615 66.1101 461.122 63.7493C459.629 61.3401 457.217 60.1358 453.891 60.1358C450.566 60.1358 448.082 61.268 446.444 63.5322C444.803 65.7487 443.961 68.7357 443.912 72.4938C443.912 76.3964 444.612 79.5039 446.009 81.8166C447.456 84.0812 449.841 85.2133 453.169 85.2133C456.446 85.2133 458.953 84.1293 460.687 81.9612C462.424 79.7931 463.316 76.7818 463.365 72.9275ZM494.138 59.9188C490.522 59.9188 487.968 61.1955 486.475 63.7493C485.028 66.3028 484.306 69.2416 484.306 72.5662C484.306 76.0832 485.003 79.0704 486.401 81.5277C487.801 83.9847 490.38 85.2133 494.138 85.2133C495.44 85.2133 496.791 84.9244 498.188 84.346C499.635 83.7198 501.008 82.8766 502.31 81.8166V63.3155C501.008 62.2555 499.635 61.4366 498.188 60.8585C496.791 60.232 495.44 59.9188 494.138 59.9188ZM509.325 39.2496V90.2H505.348L503.466 86.9479C501.973 88.2487 500.212 89.2846 498.188 90.0554C496.211 90.7781 494.381 91.1395 492.694 91.1395C487.582 91.1395 483.726 89.3808 481.122 85.8639C478.519 82.3466 477.217 77.9383 477.217 72.6384C477.217 67.2903 478.543 62.8579 481.196 59.3407C483.896 55.7753 487.801 53.9926 492.91 53.9926C494.357 53.9926 495.924 54.3059 497.611 54.9324C499.298 55.5105 500.863 56.2813 502.31 57.2448V39.9723L509.325 39.2496ZM550.353 74.2283H525.477C525.717 77.4564 526.729 80.1064 528.515 82.178C530.298 84.2498 532.973 85.2858 536.542 85.2858C538.615 85.2858 540.349 85.0687 541.747 84.6352C543.193 84.1533 544.64 83.5752 546.087 82.9007L548.256 87.9598C546.713 89.0195 544.736 89.7906 542.326 90.2722C539.963 90.8022 538.035 91.0673 536.542 91.0673C530.659 91.0673 526.128 89.3808 522.947 86.0084C519.813 82.5877 518.246 78.131 518.246 72.6384C518.246 67.1941 519.717 62.7614 522.657 59.3407C525.646 55.9199 529.768 54.2097 535.022 54.2097C540.71 54.2097 544.687 56.2091 546.954 60.208C549.218 64.2068 550.353 68.8803 550.353 74.2283ZM543.628 69.5308C543.193 66.6401 542.277 64.3514 540.88 62.6652C539.482 60.9788 537.456 60.1358 534.805 60.1358C532.106 60.1358 529.984 61.0028 528.441 62.7374C526.899 64.4236 525.958 66.6882 525.622 69.5308H543.628ZM578.785 62.5206C577.434 61.8942 576.012 61.3401 574.519 60.8585C573.072 60.3766 571.409 60.1358 569.53 60.1358C567.698 60.1358 566.227 60.5212 565.119 61.292C564.058 62.0147 563.527 63.0025 563.527 64.2549C563.576 65.3149 564.203 66.2547 565.409 67.0736C566.661 67.8444 568.349 68.5914 570.468 69.3141C573.362 70.3741 576.061 71.8194 578.569 73.6502C581.074 75.4329 582.33 77.7696 582.33 80.6604C582.33 83.9366 581.099 86.5141 578.64 88.3933C576.231 90.2241 572.711 91.1395 568.084 91.1395C566.588 91.1395 564.659 90.8746 562.299 90.3446C559.936 89.8146 558.008 89.0195 556.512 87.9598L558.684 82.8285C560.177 83.5512 561.719 84.1293 563.311 84.5631C564.9 84.9966 566.492 85.2133 568.084 85.2133C570.397 85.2133 572.18 84.852 573.433 84.1293C574.735 83.4066 575.386 82.3707 575.386 81.0218C575.386 79.6726 574.688 78.5164 573.291 77.5529C571.94 76.541 570.132 75.6737 567.867 74.951C565.119 74.0356 562.515 72.7589 560.057 71.1208C557.598 69.4827 556.37 67.2422 556.37 64.3995C556.37 61.2198 557.549 58.7385 559.912 56.9558C562.321 55.1251 565.576 54.2097 569.675 54.2097C571.168 54.2097 573.047 54.4986 575.315 55.0767C577.579 55.6551 579.461 56.474 580.954 57.5339L578.785 62.5206Z" fill="black"/>
</svg>
