<svg width="1180" height="208" viewBox="0 0 1180 208" fill="none" xmlns="http://www.w3.org/2000/svg">
<path d="M99.163 156.302H100.42L100.472 155.026L105.244 37.5973L165.21 101.638L128.683 154.204L127.225 156.302H129.754H203.564H204.879L204.874 154.966L204.646 94.2081L249.777 155.766L250.17 156.302H250.827H269.42H272.029L270.47 154.176L198.765 56.3637L197.685 54.8922L196.644 56.3912L175.507 86.8134L99.0504 5.14883L97.9095 3.93024L97.0047 5.33854L1.32286 154.244L0 156.302H2.41966H99.163Z" fill="black"/>
<path d="M338.367 156V36.1974H362.657V135.726H418.943V156H338.367ZM505.499 156H483.556V145.947H483.053C479.926 150.191 476.464 153.319 472.667 155.33C468.982 157.34 464.235 158.346 458.428 158.346C449.047 158.346 441.732 155.553 436.484 149.968C431.235 144.383 428.61 136.843 428.61 127.348V70.0437H451.225V123.494C451.225 133.883 455.971 139.077 465.464 139.077C470.713 139.077 474.901 137.29 478.027 133.715C481.154 130.14 482.718 125.449 482.718 119.64V70.0437H505.499V156ZM558.096 185.322C546.48 185.322 537.156 182.977 530.119 178.285C523.194 173.593 519.122 167.003 517.894 158.513H540.507C542.741 164.881 548.491 168.064 557.762 168.064C570.491 168.064 576.855 162.088 576.855 150.135V140.753H576.357C570.437 147.455 562.951 150.806 553.908 150.806C543.742 150.806 534.868 147.064 527.271 139.58C519.789 132.095 516.051 122.154 516.051 109.754C516.051 97.0204 519.509 86.855 526.434 79.2591C533.359 71.5515 542.292 67.6982 553.236 67.6982C563.623 67.6982 571.555 71.4959 577.024 79.0917H577.358V70.0437H599.304V149.465C599.304 160.635 595.899 169.349 589.085 175.604C582.16 182.083 571.83 185.322 558.096 185.322ZM557.762 132.542C564.571 132.542 569.654 130.364 573.005 126.007C576.357 121.651 578.03 116.066 578.03 109.252C578.03 102.55 576.241 97.0204 572.667 92.664C569.209 88.1958 564.18 85.9615 557.593 85.9615C551.785 85.9615 547.094 88.0841 543.52 92.3288C540.057 96.5734 538.331 102.27 538.331 109.42C538.331 116.68 540.057 122.377 543.52 126.51C547.094 130.532 551.843 132.542 557.762 132.542ZM668.082 156C666.965 154.548 666.071 151.364 665.403 146.449H665.065C662.608 150.135 659.484 152.984 655.688 154.995C651.886 157.005 646.581 158.011 639.772 158.011C630.724 158.011 623.465 155.721 617.995 151.141C612.521 146.561 609.784 140.082 609.784 131.704C609.784 122.991 612.801 116.624 618.832 112.603C624.862 108.47 633.35 105.621 644.294 104.058C652.336 102.941 657.806 101.824 660.712 100.706C663.614 99.4777 665.065 97.3556 665.065 94.3396C665.065 91.2118 663.836 88.7541 661.38 86.9667C658.923 85.0681 655.349 84.1186 650.658 84.1186C640.275 84.1186 634.747 88.1397 634.075 96.1826H613.807C614.141 88.028 617.434 81.2699 623.692 75.9084C629.945 70.5463 638.989 67.8655 650.827 67.8655C674.95 67.8655 687.011 78.4213 687.011 99.5338V143.266C687.011 149.744 688.017 153.71 690.028 155.162V156H668.082ZM645.3 142.093C651.553 142.093 656.466 140.473 660.04 137.234C663.725 133.994 665.568 130.14 665.568 125.672V112.77C663.111 114.222 657.806 115.898 649.657 117.797C643.177 119.249 638.597 120.925 635.918 122.824C633.239 124.611 631.899 127.404 631.899 131.202C631.899 138.463 636.367 142.093 645.3 142.093ZM723.775 70.0437V81.7725H724.277C730.197 72.3893 738.684 67.6982 749.739 67.6982C758.56 67.6982 765.708 70.7142 771.182 76.7462C776.652 82.6664 779.389 90.374 779.389 99.8685V156H756.607V103.22C756.607 98.5281 755.267 94.7304 752.588 91.8262C750.02 88.9219 746.388 87.4698 741.697 87.4698C736.672 87.4698 732.484 89.3128 729.133 92.9987C725.898 96.6851 724.277 101.432 724.277 107.241V156H701.495V70.0437H723.775ZM866.467 145.612C858.091 154.213 847.317 158.513 834.138 158.513C820.96 158.513 810.185 154.213 801.809 145.612C793.433 136.899 789.245 126.063 789.245 113.106C789.245 100.148 793.433 89.3684 801.809 80.7673C810.185 72.0546 820.96 67.6982 834.138 67.6982C847.317 67.6982 858.091 72.0546 866.467 80.7673C874.844 89.3684 879.032 100.148 879.032 113.106C879.032 126.063 874.844 136.899 866.467 145.612ZM834.138 141.087C840.952 141.087 846.258 138.574 850.054 133.548C853.961 128.409 855.915 121.595 855.915 113.106C855.915 104.616 853.961 97.8021 850.054 92.664C846.258 87.5254 840.952 84.9564 834.138 84.9564C827.213 84.9564 821.855 87.5254 818.058 92.664C814.262 97.6903 812.362 104.504 812.362 113.106C812.362 121.595 814.262 128.409 818.058 133.548C821.855 138.574 827.213 141.087 834.138 141.087ZM921.787 158.513C910.954 158.513 902.187 154.436 895.489 146.282C888.786 138.016 885.435 126.957 885.435 113.106C885.435 99.7011 888.844 88.8102 895.653 80.4321C902.578 71.9428 911.399 67.6982 922.121 67.6982C932.842 67.6982 940.938 71.9428 946.412 80.4321H946.915V36.1974H969.698V156H947.752V144.774H947.418C941.833 153.934 933.287 158.513 921.787 158.513ZM926.812 139.412C933.515 139.412 938.593 137.122 942.055 132.542C945.629 127.962 947.418 121.651 947.418 113.608C947.418 95.2886 940.774 86.1289 927.484 86.1289C921.337 86.1289 916.651 88.5867 913.411 93.5018C910.171 98.4164 908.551 104.951 908.551 113.106C908.551 121.484 910.118 127.962 913.242 132.542C916.482 137.122 921.004 139.412 926.812 139.412ZM1024.88 158.513C1011.03 158.513 1000.14 154.269 992.21 145.779C984.284 137.178 980.318 126.231 980.318 112.938C980.318 100.092 984.284 89.3684 992.21 80.7673C1000.14 72.0546 1010.3 67.6982 1022.7 67.6982C1036.21 67.6982 1046.65 72.3893 1054.02 81.7725C1061.39 91.1557 1065.08 103.722 1065.08 119.473H1002.77C1003.66 126.287 1005.95 131.593 1009.63 135.391C1013.32 139.077 1018.34 140.92 1024.71 140.92C1033.08 140.92 1038.61 137.401 1041.3 130.364H1063.74C1062.07 138.407 1057.82 145.109 1051.01 150.471C1044.2 155.833 1035.49 158.513 1024.88 158.513ZM1023.04 85.2911C1011.98 85.2911 1005.34 91.4348 1003.1 103.722H1041.3C1040.96 98.249 1039.11 93.8365 1035.76 90.4858C1032.42 87.0228 1028.17 85.2911 1023.04 85.2911ZM1110.47 158.513C1098.18 158.513 1088.58 155.833 1081.66 150.471C1074.73 144.997 1070.94 137.569 1070.26 128.186H1091.37C1092.82 137.68 1099.08 142.428 1110.13 142.428C1115.16 142.428 1119.01 141.534 1121.69 139.747C1124.49 137.96 1125.88 135.558 1125.88 132.542C1125.88 131.425 1125.66 130.42 1125.21 129.526C1124.87 128.632 1124.21 127.85 1123.2 127.18C1122.31 126.398 1121.47 125.784 1120.69 125.337C1120.02 124.89 1118.79 124.443 1117 123.997C1115.22 123.55 1113.82 123.215 1112.81 122.991C1111.92 122.768 1110.3 122.489 1107.96 122.154C1105.72 121.707 1104.16 121.372 1103.27 121.148C1098.57 120.254 1094.72 119.361 1091.71 118.468C1088.81 117.462 1085.73 116.066 1082.49 114.279C1079.25 112.379 1076.8 109.866 1075.12 106.738C1073.56 103.499 1072.78 99.6455 1072.78 95.1769C1072.78 86.2406 1076.01 79.4269 1082.49 74.7353C1089.08 70.0437 1097.52 67.6982 1107.79 67.6982C1118.84 67.6982 1127.5 70.2672 1133.75 75.4053C1140.12 80.4321 1143.75 87.358 1144.64 96.1826H1124.04C1123.15 87.8045 1117.61 83.616 1107.45 83.616C1102.87 83.616 1099.25 84.4538 1096.56 86.1289C1093.99 87.8045 1092.71 90.1506 1092.71 93.1666C1092.71 94.1717 1092.88 95.1213 1093.22 96.0147C1093.66 96.7969 1094.33 97.5229 1095.22 98.1929C1096.23 98.7516 1097.18 99.2542 1098.07 99.7011C1098.97 100.036 1100.25 100.427 1101.93 100.874C1103.6 101.209 1105.05 101.544 1106.28 101.879C1107.51 102.103 1109.18 102.438 1111.31 102.885C1113.43 103.22 1115.1 103.499 1116.33 103.722C1119.91 104.504 1122.81 105.231 1125.04 105.901C1127.39 106.459 1130.07 107.464 1133.08 108.917C1136.1 110.257 1138.44 111.821 1140.12 113.608C1141.91 115.284 1143.41 117.63 1144.64 120.646C1145.98 123.55 1146.65 126.957 1146.65 130.867C1146.65 139.356 1143.3 146.114 1136.6 151.141C1130.01 156.056 1121.3 158.513 1110.47 158.513Z" fill="black"/>
</svg>
