<svg width="552" height="76" viewBox="0 0 552 76" fill="none" xmlns="http://www.w3.org/2000/svg">
<path d="M153.998 9.32031L138.448 45.6603L122.908 9.32031H111.738V58.1903H121.538V26.4003L134.698 58.1903H142.118L155.218 26.4003V58.1903H164.998V9.32031H153.998Z" fill="black"/>
<path d="M199.571 19.4003V24.9303C198.091 22.9463 196.153 21.3498 193.922 20.2771C191.692 19.2044 189.235 18.6874 186.761 18.7703C176.891 18.7703 169.051 26.5403 169.051 38.6603C169.051 50.7803 176.891 58.8203 186.691 58.8203C189.189 58.9031 191.67 58.372 193.915 57.2737C196.16 56.1754 198.102 54.5433 199.571 52.5203V58.1903H209.441V19.4003H199.571ZM189.281 50.2103C184.031 50.2103 179.061 46.0103 179.061 38.6603C179.061 31.3103 184.061 27.3803 189.281 27.3803C194.501 27.3803 199.571 31.4503 199.571 38.8003C199.571 46.1503 194.671 50.2103 189.281 50.2103Z" fill="black"/>
<path d="M233.999 27.4486V19.3986H225.319V9.80859H215.449V46.1486C215.449 55.0386 220.449 58.1486 227.839 58.1486H233.999V49.8886H229.449C226.369 49.8886 225.319 48.7686 225.319 46.1786V27.4486H233.999Z" fill="black"/>
<path d="M248.79 25.4204V19.4204H239V58.2103H248.8V38.8703C248.8 31.3703 252.3 29.1304 258.11 29.1304H260.7V18.8403C258.309 18.7791 255.945 19.3566 253.852 20.5132C251.758 21.6698 250.011 23.3637 248.79 25.4204Z" fill="black"/>
<path d="M265.172 19.3998V58.1898H275.002V19.3998H265.172ZM270.172 3.29979C269.046 3.34878 267.96 3.72746 267.047 4.38875C266.135 5.05004 265.437 5.96482 265.04 7.01943C264.643 8.07403 264.565 9.22198 264.815 10.3207C265.065 11.4193 265.633 12.4203 266.447 13.1993C267.261 13.9782 268.286 14.5007 269.395 14.7019C270.504 14.9031 271.647 14.7742 272.683 14.3311C273.719 13.888 274.602 13.1502 275.222 12.2095C275.843 11.2688 276.173 10.1666 276.172 9.03981C276.171 8.2614 276.013 7.49118 275.706 6.77583C275.399 6.06049 274.95 5.41488 274.386 4.87819C273.823 4.3415 273.156 3.92487 272.426 3.65355C271.696 3.38224 270.919 3.26189 270.142 3.29979H270.172Z" fill="black"/>
<path d="M354.281 37.9986C354.281 26.4386 346.371 18.8086 335.171 18.8086C323.691 18.8086 315.711 26.5786 315.711 38.8086C315.711 51.0386 323.901 58.8086 335.171 58.8086C344.761 58.8086 351.171 53.1386 353.301 45.9986H342.731C342.067 47.4706 340.974 48.7073 339.594 49.5462C338.214 50.385 336.613 50.7868 335.001 50.6986C330.101 50.6986 326.181 47.4786 325.691 41.6986H354.001C354.194 40.4749 354.288 39.2375 354.281 37.9986ZM325.721 35.1986C326.491 29.8686 330.201 26.8586 334.891 26.8586C339.891 26.8586 343.991 30.0786 344.131 35.1986H325.721Z" fill="black"/>
<path d="M387.251 9.37891V24.7889C385.737 22.8876 383.809 21.3582 381.612 20.3182C379.416 19.2781 377.011 18.755 374.581 18.7889C364.641 18.7889 356.801 26.5589 356.801 38.6789C356.801 50.7989 364.641 58.8389 374.511 58.8389C380.601 58.8389 384.941 56.0389 387.251 52.4689V58.2089H397.191V9.37891H387.251ZM377.001 50.2089C371.751 50.2089 366.781 46.0089 366.781 38.6589C366.781 31.3089 371.781 27.3789 377.001 27.3789C382.221 27.3789 387.291 31.4489 387.291 38.7989C387.291 46.1489 382.421 50.2089 377.001 50.2089Z" fill="black"/>
<path d="M413 33.1999C411.877 33.2508 410.794 33.6302 409.884 34.2911C408.975 34.952 408.28 35.8652 407.885 36.9175C407.491 37.9698 407.413 39.1148 407.663 40.2106C407.913 41.3064 408.479 42.3047 409.292 43.0817C410.104 43.8586 411.126 44.38 412.232 44.5812C413.338 44.7825 414.478 44.6546 415.512 44.2136C416.546 43.7725 417.427 43.0377 418.047 42.1002C418.667 41.1627 418.998 40.0638 419 38.9399C418.996 38.1649 418.837 37.3986 418.531 36.6867C418.225 35.9747 417.778 35.3317 417.218 34.796C416.658 34.2603 415.996 33.8428 415.271 33.5686C414.547 33.2944 413.774 33.169 413 33.1999Z" fill="black"/>
<path d="M437.581 50.4203V9.32031H427.781V58.1903H453.681V50.4203H437.581Z" fill="black"/>
<path d="M457.809 19.3998V58.1898H467.609V19.3998H457.809ZM462.809 3.29979C461.683 3.34878 460.596 3.72746 459.684 4.38875C458.772 5.05004 458.074 5.96482 457.677 7.01943C457.28 8.07403 457.202 9.22198 457.452 10.3207C457.702 11.4193 458.27 12.4203 459.084 13.1993C459.898 13.9782 460.923 14.5007 462.032 14.7019C463.14 14.9031 464.284 14.7742 465.32 14.3311C466.356 13.888 467.239 13.1502 467.859 12.2095C468.479 11.2688 468.809 10.1666 468.809 9.03981C468.808 8.2614 468.65 7.49118 468.343 6.77583C468.036 6.06049 467.587 5.41488 467.023 4.87819C466.459 4.3415 465.792 3.92487 465.063 3.65355C464.333 3.38224 463.556 3.26189 462.779 3.29979H462.809Z" fill="black"/>
<path d="M495.659 18.841C493.432 18.7819 491.221 19.2374 489.199 20.1723C487.176 21.1072 485.397 22.4961 483.999 24.2311V19.401H474.199V58.1911H483.999V36.771C483.999 30.541 487.429 27.1711 492.749 27.1711C498.069 27.1711 501.359 30.541 501.359 36.771V58.1911H511.159V35.4411C511.129 24.7211 504.689 18.841 495.659 18.841Z" fill="black"/>
<path d="M538.002 42.4703H531.282L551.902 19.4003H539.162L526.162 35.8603V9.32031H516.352V58.1903H526.162V41.6703L539.322 58.1903H552.002L538.002 42.4703Z" fill="black"/>
<path d="M288.898 58.1884L314.868 19.3984H304.368L278.398 58.1884H288.898Z" fill="black"/>
<path d="M304.368 58.1884L278.398 19.3984H288.898L314.868 58.1884H304.368Z" fill="black"/>
<path d="M64.89 0.859375L27.74 37.9994L43.1 53.3494L37.1 59.3494L15.75 37.9994L37.1 16.6494L40.62 20.1694L48.52 12.2694L37.1 0.859375L0 37.9994L37.14 75.1394L74.24 37.9994L58.89 22.6394L64.89 16.6394L86.23 37.9994L64.89 59.3494L61.08 55.5394L53.18 63.4394L64.89 75.1394L102 37.9994L64.89 0.859375ZM51 30.5394L58.46 37.9994L51 45.4594L43.54 37.9994L51 30.5394Z" fill="black"/>
</svg>
