<svg width="644" height="136" viewBox="0 0 644 136" fill="none" xmlns="http://www.w3.org/2000/svg">
<path d="M254.909 118.118V72.1681C254.909 61.7203 260.853 54.8192 270.172 54.8192C278.847 54.8192 284.307 61.7308 284.307 72.1681V118.118H306.805V72.1681C306.805 61.7203 312.748 54.8192 322.067 54.8192C330.742 54.8192 336.364 61.7308 336.364 72.1681V118.118H358.699V65.0956C358.699 48.8658 347.294 35.8594 329.624 35.8594C316.607 35.8594 306.492 42.7702 302.633 50.6384C298.775 40.9976 290.584 35.8594 277.89 35.8594C266.968 35.8594 259.251 41.1585 254.919 48.5529V37.1492H232.422V118.118H254.919H254.909Z" fill="black"/>
<path fill-rule="evenodd" clip-rule="evenodd" d="M411.318 35.1952C434.48 34.752 453.37 53.491 453.077 76.0679C453.077 78.5764 452.926 80.4905 452.785 81.528H390.966C391.702 93.9199 400.265 102.04 412.063 102.04C421.503 102.04 429.029 96.8715 430.954 88.1671H452.644C449.4 107.933 432.132 119.892 411.922 119.892C387.582 119.892 369.578 101.596 369.578 77.5486C369.134 54.0854 388.166 34.7625 411.338 35.2057L411.318 35.1952ZM411.761 52.4535C402.321 52.4535 394.936 58.3567 392.427 67.3531H430.641C428.868 57.9136 420.758 52.4535 411.751 52.4535H411.761Z" fill="black"/>
<path d="M514.473 36.9688H465.047V118.119H486.143V57.0372H514.473V36.9688Z" fill="black"/>
<path fill-rule="evenodd" clip-rule="evenodd" d="M536.195 0.375C543.873 0.375 549.626 5.54322 549.626 12.7665C549.626 19.9902 543.873 25.3095 536.195 25.3095C528.518 25.3095 522.766 20.2926 522.766 12.7665C522.766 5.24094 528.518 0.375 536.195 0.375ZM525.718 36.9655H546.815V118.116H525.718V36.9655Z" fill="black"/>
<path fill-rule="evenodd" clip-rule="evenodd" d="M596.42 35.1953C607.634 35.1953 616.338 40.2122 622.091 48.6247V36.9687H643.188V118.118H622.091V106.905C616.631 115.015 607.774 119.892 596.561 119.892C575.464 119.892 559.234 102.191 559.234 77.5487C559.234 52.9065 575.616 35.205 596.42 35.205V35.1953ZM586.386 61.4597C582.396 65.5903 580.482 70.8992 580.482 77.5383C580.482 84.1773 582.396 89.4869 586.386 93.6176C590.365 97.7474 595.382 99.8127 601.286 99.8127C613.235 99.8127 622.091 90.9579 622.091 77.5383C622.091 64.1194 613.235 55.2638 601.286 55.2638C595.382 55.2638 590.365 57.3291 586.386 61.4597Z" fill="black"/>
<path d="M131.333 5.27344H93.8114L75.0508 38.0758L93.5518 70.596L111.923 37.9456H149.704L131.333 5.27344Z" fill="black"/>
<path d="M56.681 5.27344H19.1593L0.398438 38.0758L18.8993 70.596L37.2702 37.9456H75.0518L56.681 5.27344Z" fill="black"/>
<path d="M168.661 135.12H131.14L112.379 102.34L130.88 69.7969L149.251 102.469H187.032L168.661 135.12Z" fill="black"/>
<path d="M94.0091 135.12H56.4872L37.7266 102.34L56.2277 69.7969L74.5985 102.469H112.38L94.0091 135.12Z" fill="black"/>
</svg>
