<svg width="640" height="125" viewBox="0 0 640 125" fill="none" xmlns="http://www.w3.org/2000/svg">
<g clip-path="url(#clip0_8353_20128)">
<path d="M116.223 41.6667C116.223 49.7069 109.694 56.2395 101.658 56.2395C93.6228 56.2395 87.0939 49.7069 87.0939 41.6667C87.0939 33.6265 93.6228 27.0938 101.658 27.0938C109.694 27.0938 116.223 33.6265 116.223 41.6667ZM149.663 48.0737V23.9112C149.663 8.58459 141.125 0 124.468 0H116.725V16.2898H119.111C125.64 16.2898 128.862 19.8911 128.862 26.1725V47.5293C128.862 56.742 131.666 60.5946 137.777 62.4791C131.624 64.3635 128.862 68.2161 128.862 77.4288V98.7856C128.862 105.067 125.681 108.668 119.111 108.668H116.725V124.958H124.468C141.125 124.958 149.663 116.415 149.663 101.089V76.9263C149.663 72.6549 151.923 70.6449 155.522 70.6449H159.916V54.3551H155.522C151.923 54.3551 149.663 52.3451 149.663 48.0737ZM101.658 68.593C93.6228 68.593 87.0939 75.1256 87.0939 83.1658C87.0939 91.206 93.6228 97.7387 101.658 97.7387C109.694 97.7387 116.223 91.206 116.223 83.1658C116.223 75.1256 109.694 68.593 101.658 68.593ZM10.2537 23.9112V48.0737C10.2537 52.3451 7.99372 54.3551 4.39445 54.3551H0V70.6449H4.39445C7.99372 70.6449 10.2537 72.6549 10.2537 76.9263V101.089C10.2537 116.415 18.7915 124.958 35.4486 124.958H43.1912V108.668H40.8057C34.2767 108.668 31.0541 105.067 31.0541 98.7856V77.4288C31.0541 68.2161 28.2501 64.3635 22.1397 62.4791C28.2919 60.5946 31.0541 56.742 31.0541 47.5293V26.1725C31.0541 19.8911 34.2349 16.2898 40.8057 16.2898H43.1912V0H35.4486C18.7915 0 10.2537 8.54271 10.2537 23.8693V23.9112ZM58.5927 68.7186C50.5572 68.7186 44.0283 75.2513 44.0283 83.2915C44.0283 91.3316 50.5572 97.8643 58.5927 97.8643C66.6283 97.8643 73.1572 91.3316 73.1572 83.2915C73.1572 75.2513 66.6283 68.7186 58.5927 68.7186ZM58.5927 27.0938C50.5572 27.0938 44.0283 33.6265 44.0283 41.6667C44.0283 49.7069 50.5572 56.2395 58.5927 56.2395C66.6283 56.2395 73.1572 49.7069 73.1572 41.6667C73.1572 33.6265 66.6283 27.0938 58.5927 27.0938ZM247.973 23.2412V66.6667L212.44 23.2412C210.808 22.7806 208.59 22.4037 205.995 22.3618C203.024 22.3199 200.513 22.7806 198.755 23.2412V94.7655C200.931 95.2261 203.652 95.603 206.749 95.603C210.013 95.603 212.859 95.2261 215.077 94.7655V51.34C226.963 65.8291 238.849 80.3183 250.735 94.7655C252.702 95.1005 255.046 95.3518 257.682 95.3518C260.319 95.3518 262.454 95.1005 264.295 94.7655V23.2412C262.077 22.8224 259.357 22.4456 256.218 22.4456C253.079 22.4456 250.191 22.7806 247.931 23.2412H247.973ZM333.351 67.2948C333.351 83.8358 320.67 95.603 303.217 95.603C285.765 95.603 273 83.8358 273 67.2948C273 50.7538 285.765 38.9866 303.217 38.9866C320.67 38.9866 333.351 50.7538 333.351 67.2948ZM317.196 67.2948C317.196 57.7889 311.169 52.0519 303.217 52.0519C295.266 52.0519 289.113 57.7889 289.113 67.2948C289.113 76.8007 295.224 82.5377 303.217 82.5377C311.211 82.5377 317.196 76.8007 317.196 67.2948ZM391.818 17.6298C395.292 17.6298 398.096 18.2998 399.937 18.928V94.7655C398.138 95.268 395.71 95.7705 392.781 95.8543C389.432 95.8543 386.67 95.3517 384.745 94.7655V88.4422C380.769 93.258 374.952 95.603 367.586 95.603C352.059 95.603 340.089 84.5477 340.089 67.2948C340.089 50.0419 352.059 38.9866 367.586 38.9866C374.324 38.9866 380.058 41.1223 384.034 45.6449V18.9698C385.833 18.3836 388.553 17.6717 391.86 17.6717H391.818V17.6298ZM384.285 67.2948C384.285 57.7889 378.174 52.0519 370.306 52.0519C362.438 52.0519 356.202 57.7889 356.202 67.2948C356.202 76.8007 362.312 82.5377 370.306 82.5377C378.3 82.5377 384.285 76.8007 384.285 67.2948ZM466.398 67.5042C466.398 68.3417 466.314 69.3886 466.231 70.4355C466.147 71.2311 465.519 71.8174 464.724 71.8174H424.546C426.095 78.6851 431.912 82.8727 440.283 82.8727C445.64 82.8727 449.615 81.407 453.173 78.3501C453.759 77.8476 454.554 77.8476 455.182 78.2663C456.354 79.062 457.735 80.1507 459.116 81.6583C460.33 82.9983 461.25 84.3384 461.878 85.5109C462.297 86.2228 462.129 87.1441 461.46 87.6466C458.111 90.3685 450.453 95.6449 439.822 95.6449C420.821 95.6449 408.475 83.6683 408.475 67.3367C408.475 51.005 421.031 39.0285 437.771 39.0285C454.512 39.0285 466.356 49.8744 466.356 67.5461L466.398 67.5042ZM451.373 62.4791C450.243 55.5276 445.054 51.0469 437.897 51.0469C430.74 51.0469 425.425 55.4439 424.295 62.4791H451.373ZM490.379 43.4673C490.379 38.9866 494.146 35.3015 503.981 35.3015C513.816 35.3015 520.68 38.861 523.066 40.3685C523.568 40.6616 524.196 40.6198 524.614 40.2429C525.619 39.3635 526.958 37.8978 527.92 35.7621C529.134 32.9983 529.134 30.4858 529.009 29.0201C529.009 28.5595 528.716 28.1826 528.339 27.9313C521.768 23.995 512.854 21.943 504.107 21.943C483.767 21.943 473.973 32.0771 473.973 44.2211C473.973 70.8124 515.532 61.5997 515.532 75C515.532 79.397 511.556 82.6633 501.763 82.6633C490.882 82.6633 482.595 78.2663 479.414 76.1307C478.661 75.6281 477.656 75.7956 477.154 76.5494C476.275 77.8057 475.354 79.3132 474.559 81.1139C473.639 83.1658 473.094 85.0502 472.76 86.5997C472.634 87.2697 472.885 87.9397 473.429 88.3166C479.916 92.8811 490.84 95.938 501.637 95.938C522.061 95.938 531.98 85.7203 531.98 73.7437C531.98 47.4874 490.421 56.5745 490.421 43.3836V43.4673H490.379ZM594.967 67.5042C594.967 68.3417 594.884 69.3886 594.8 70.4355C594.716 71.2311 594.088 71.8174 593.293 71.8174H553.115C554.664 78.6851 560.481 82.8727 568.852 82.8727C574.669 82.8727 578.854 81.1558 582.621 77.5544C583.96 78.3082 585.802 79.6064 587.643 81.5745C589.401 83.5008 590.489 85.3853 591.117 86.7672C588.564 88.9866 580.361 95.6449 568.433 95.6449C549.432 95.6449 537.086 83.6683 537.086 67.3367C537.086 51.005 549.642 39.0285 566.382 39.0285C583.123 39.0285 594.967 49.8744 594.967 67.5461V67.5042ZM579.943 62.4791C578.812 55.5276 573.623 51.0469 566.466 51.0469C559.31 51.0469 553.994 55.4439 552.864 62.4791H579.943ZM638.954 86.809C638.033 84.129 636.694 82.1189 635.689 80.9045C633.973 82.2446 631.588 82.9564 629.244 82.9564C624.933 82.9564 622.38 80.402 622.38 75.7119V53.3501H635.396C635.815 53.3501 636.191 53.0569 636.275 52.6801C636.568 51.5494 636.861 50.2094 636.945 48.7018C637.154 45.8961 636.736 43.4673 636.275 41.7504C636.15 41.3317 635.815 41.0804 635.396 41.0804H622.38V28.392C622.38 27.9732 622.129 27.5963 621.711 27.5126C619.953 27.0519 617.693 26.5913 615.014 26.5494C611.792 26.4657 609.113 26.9682 607.146 27.5126C606.728 27.6382 606.477 27.9732 606.477 28.392V41.0804H598.818C598.357 41.0804 597.981 41.4154 597.897 41.876C597.688 43.5511 597.52 45.4774 597.562 47.6131C597.562 49.4137 597.73 51.0888 597.897 52.5963C597.897 53.0569 598.357 53.392 598.818 53.392H606.477V75.9631C606.477 89.0285 614.052 95.6868 627.026 95.6868C631.923 95.6868 636.736 94.5561 640 92.2111C639.916 90.8291 639.665 88.9447 638.954 86.8928V86.809Z" fill="black"/>
</g>
<defs>
<clipPath id="clip0_8353_20128">
<rect width="640" height="125" fill="white"/>
</clipPath>
</defs>
</svg>
