<svg width="367" height="506" viewBox="0 0 367 506" fill="none" xmlns="http://www.w3.org/2000/svg">
<g clip-path="url(#clip0_8353_20240)">
<mask id="mask0_8353_20240" style="mask-type:luminance" maskUnits="userSpaceOnUse" x="0" y="0" width="367" height="506">
<path d="M366.789 0H0V505.842H366.789V0Z" fill="white"/>
</mask>
<g mask="url(#mask0_8353_20240)">
<path d="M7.331 398.789C6.70832 398.789 6.0882 398.709 5.486 398.551C3.91533 398.143 2.52451 397.225 1.53167 395.941C0.538825 394.658 0.000108368 393.081 0 391.458L0 114.032C0.000514881 112.668 0.381175 111.332 1.09924 110.172C1.8173 109.013 2.84433 108.077 4.065 107.469L218.332 0.76798C219.733 0.0722359 221.321 -0.156971 222.862 0.11387C224.403 0.384711 225.817 1.1414 226.897 2.2733C227.977 3.4052 228.667 4.85296 228.865 6.40492C229.064 7.95687 228.76 9.53164 228 10.899L13.733 395.027C13.0978 396.167 12.1697 397.117 11.0446 397.778C9.91944 398.44 8.63811 398.789 7.333 398.789M14.664 118.572V363.264L203.653 24.464L14.664 118.572Z" fill="black"/>
<path d="M359.459 332.401C358.792 332.401 358.128 332.31 357.485 332.131L84.9068 255.912C83.8388 255.614 82.8524 255.077 82.0219 254.342C81.1914 253.607 80.5384 252.694 80.1121 251.67C79.6858 250.646 79.4974 249.539 79.5609 248.432C79.6244 247.325 79.9382 246.247 80.4788 245.279L215.198 3.76194C215.863 2.56753 216.85 1.58309 218.046 0.919855C219.241 0.256622 220.599 -0.0589648 221.965 0.00875336C223.33 0.0764715 224.65 0.524795 225.774 1.30307C226.898 2.08134 227.783 3.15854 228.327 4.41294L366.186 322.147C366.67 323.263 366.869 324.481 366.765 325.693C366.66 326.904 366.257 328.071 365.589 329.088C364.922 330.104 364.012 330.939 362.942 331.516C361.872 332.094 360.675 332.396 359.459 332.396M97.8158 244.301L346.605 313.864L220.778 23.8639L97.8158 244.301Z" fill="black"/>
<path d="M223.17 505.842C222.039 505.842 220.924 505.581 219.912 505.079L4.07566 398.024C3.18656 397.583 2.39627 396.966 1.75266 396.21C1.10904 395.455 0.625516 394.577 0.331369 393.629C0.0372228 392.681 -0.0614186 391.683 0.0414221 390.696C0.144263 389.709 0.446444 388.753 0.929657 387.886L80.4777 245.279C81.2794 243.842 82.5414 242.716 84.0605 242.083C85.5796 241.45 87.2675 241.346 88.8527 241.789L225.144 279.895C226.685 280.326 228.044 281.25 229.011 282.526C229.978 283.802 230.502 285.359 230.501 286.96V498.511C230.501 499.474 230.312 500.427 229.944 501.317C229.575 502.207 229.035 503.015 228.355 503.696C227.674 504.377 226.865 504.917 225.976 505.285C225.086 505.653 224.133 505.842 223.17 505.842ZM17.4837 388.308L215.839 486.69V292.519L90.4687 257.466L17.4837 388.308Z" fill="black"/>
<path d="M223.171 505.843C222.208 505.843 221.255 505.654 220.365 505.285C219.476 504.917 218.667 504.377 217.986 503.696C217.306 503.016 216.766 502.207 216.397 501.318C216.029 500.428 215.84 499.475 215.84 498.512V286.957C215.84 285.826 216.101 284.711 216.604 283.697C217.106 282.684 217.836 281.801 218.737 281.118C219.638 280.434 220.684 279.967 221.795 279.755C222.906 279.543 224.051 279.591 225.14 279.895L361.439 318.004C362.6 318.329 363.664 318.935 364.535 319.769C365.406 320.602 366.058 321.638 366.433 322.785C366.808 323.931 366.895 325.152 366.685 326.339C366.475 327.527 365.976 328.645 365.231 329.593L228.939 503.042C228.253 503.915 227.377 504.62 226.379 505.105C225.38 505.59 224.284 505.842 223.174 505.842M230.505 296.619V477.319L346.914 329.172L230.505 296.619Z" fill="black"/>
</g>
</g>
<defs>
<clipPath id="clip0_8353_20240">
<rect width="366.789" height="505.842" fill="white"/>
</clipPath>
</defs>
</svg>
