<svg width="528" height="108" viewBox="0 0 528 108" fill="none" xmlns="http://www.w3.org/2000/svg">
<path fill-rule="evenodd" clip-rule="evenodd" d="M2 0C0.895 0 0 0.895 0 2V62C0 63.105 0.895 64 2 64H158C159.105 64 160 63.105 160 62V2C160 0.895 159.105 0 158 0H2ZM139 44C139.552 44 140 43.552 140 43V21C140 20.448 139.552 20 139 20H21C20.448 20 20 20.448 20 21V43C20 43.552 20.448 44 21 44H139Z" fill="black"/>
<path d="M20 90C20 88.895 19.105 88 18 88H2C0.895 88 0 88.895 0 90V106C0 107.105 0.895 108 2 108H18C19.105 108 20 107.105 20 106V90Z" fill="black"/>
<path d="M388 90C388 88.895 387.105 88 386 88H370C368.895 88 368 88.895 368 90V106C368 107.105 368.895 108 370 108H386C387.105 108 388 107.105 388 106V90Z" fill="black"/>
<path d="M184 90C184 88.895 184.895 88 186 88H342C343.105 88 344 88.895 344 90V106C344 107.105 343.105 108 342 108H186C184.895 108 184 107.105 184 106V90Z" fill="black"/>
<path fill-rule="evenodd" clip-rule="evenodd" d="M368 2C368 0.895 368.895 0 370 0H526C527.105 0 528 0.895 528 2V62C528 63.105 527.105 64 526 64H370C368.895 64 368 63.105 368 62V2ZM507 20C507.552 20 508 20.448 508 21V43C508 43.552 507.552 44 507 44H389C388.448 44 388 43.552 388 43V21C388 20.448 388.448 20 389 20H507Z" fill="black"/>
<path d="M186 0C184.895 0 184 0.895 184 2V18C184 19.105 184.895 20 186 20H323C323.552 20 324 20.448 324 21V43C324 43.552 323.552 44 323 44H186C184.895 44 184 44.895 184 46V62C184 63.105 184.895 64 186 64H342C343.105 64 344 63.105 344 62V2C344 0.895 343.105 0 342 0H186Z" fill="black"/>
</svg>
