<svg width="373" height="336" viewBox="0 0 373 336" fill="none" xmlns="http://www.w3.org/2000/svg">
<g clip-path="url(#clip0_8353_19966)">
<path d="M36.3183 283.159C39.8911 284.777 42.625 287.08 44.5512 290.036C46.4774 293.024 47.4405 296.54 47.4405 300.617C47.4405 304.694 46.4774 308.148 44.5512 311.135C42.625 314.123 39.86 316.426 36.3183 318.013C32.7455 319.6 28.5513 320.409 23.7047 320.409H12.6757V335.533H0V280.731H23.6737C28.5202 280.731 32.7455 281.54 36.3183 283.159ZM31.6581 307.619C33.6464 305.969 34.6406 303.635 34.6406 300.617C34.6406 297.598 33.6464 295.171 31.6581 293.522C29.6698 291.872 26.7804 291.063 22.9902 291.063H12.6757V310.077H22.9902C26.7804 310.077 29.6698 309.268 31.6581 307.619Z" fill="black"/>
<path d="M55.582 280.731H68.2577V335.533H55.582V280.731Z" fill="black"/>
<path d="M122.779 325.357V335.533H80.4023V280.731H121.754V290.907H92.9848V302.795H118.398V312.66H92.9848V325.357H122.779Z" fill="black"/>
<path d="M167.424 335.533L156.861 320.253H145.211V335.533H132.535V280.731H156.209C161.055 280.731 165.25 281.54 168.822 283.159C172.395 284.777 175.129 287.08 177.055 290.036C178.982 293.024 179.945 296.54 179.945 300.617C179.945 304.694 178.982 308.21 177.024 311.135C175.067 314.092 172.302 316.332 168.698 317.919L180.97 335.533H167.424ZM164.224 293.522C162.236 291.872 159.347 291.063 155.556 291.063H145.242V310.171H155.556C159.347 310.171 162.236 309.33 164.224 307.65C166.213 305.969 167.207 303.635 167.207 300.617C167.176 297.536 166.182 295.171 164.224 293.522Z" fill="black"/>
<path d="M200.883 285.742H181.652V280.731H225.893V285.742H206.662V335.533H200.883V285.742Z" fill="black"/>
<path d="M312.137 280.731L293.683 335.533H287.594L271.563 288.791L255.47 335.533H249.443L230.988 280.731H236.922L252.705 327.878L269.046 280.731H274.452L290.545 328.096L306.576 280.731H312.137Z" fill="black"/>
<path d="M329.566 332.359C325.154 329.932 321.737 326.602 319.252 322.37C316.766 318.137 315.523 313.407 315.523 308.117C315.523 302.826 316.766 298.096 319.252 293.864C321.737 289.632 325.154 286.302 329.566 283.874C333.978 281.447 338.886 280.233 344.292 280.233C349.698 280.233 354.607 281.447 358.956 283.843C363.306 286.24 366.723 289.569 369.24 293.833C371.756 298.096 372.999 302.857 372.999 308.117C372.999 313.376 371.756 318.137 369.24 322.401C366.754 326.664 363.306 329.994 358.956 332.39C354.607 334.786 349.729 336 344.292 336C338.855 336 333.978 334.786 329.566 332.359ZM356.036 327.878C359.515 325.917 362.249 323.21 364.238 319.724C366.226 316.239 367.22 312.38 367.22 308.086C367.22 303.791 366.226 299.932 364.238 296.447C362.249 292.961 359.515 290.254 356.036 288.293C352.556 286.333 348.642 285.368 344.323 285.368C340.005 285.368 336.09 286.333 332.549 288.293C329.038 290.254 326.273 292.961 324.253 296.447C322.234 299.932 321.24 303.791 321.24 308.086C321.24 312.38 322.234 316.239 324.253 319.724C326.273 323.21 329.007 325.917 332.549 327.878C336.059 329.838 339.974 330.803 344.323 330.803C348.611 330.834 352.525 329.838 356.036 327.878Z" fill="black"/>
<path d="M163.819 76.4612H209.085C212.565 76.4612 215.299 73.2248 214.491 69.8327C211.508 57.1047 200.075 47.6132 186.437 47.6132C172.798 47.6132 161.396 57.1047 158.382 69.8327C157.637 73.2248 160.34 76.4612 163.819 76.4612Z" fill="black"/>
<path d="M291.603 163.41C291.603 163.223 291.572 163.036 291.541 162.85V105.247C291.541 95.1331 287.595 85.6105 280.481 78.4529L213.219 11.0787C198.462 -3.70322 174.478 -3.70322 159.751 11.0787L92.4586 78.4529C85.313 85.6416 81.3984 95.1331 81.3984 105.216V163.379C81.3984 163.846 81.4916 164.312 81.6159 164.748C81.647 164.81 81.647 164.904 81.678 164.966C81.9266 165.713 82.3305 166.397 82.8897 166.958L118.618 202.714L159.782 243.948C166.897 251.105 176.373 255.058 186.47 255.058H186.501C196.598 255.058 206.105 251.105 213.219 243.948L254.415 202.714L289.894 167.144C290.92 166.242 291.603 164.904 291.603 163.41ZM248.73 194.094H124.272L98.6721 168.451H274.298L248.73 194.094ZM124.365 132.57H248.605L274.329 158.337H98.6721L124.365 132.57ZM238.508 122.456H134.462L155.899 100.984C158.633 98.2451 162.33 96.6891 166.214 96.6891H206.726C210.578 96.6891 214.306 98.214 217.04 100.953L238.508 122.456ZM91.5265 105.247C91.5265 97.8405 94.4158 90.8697 99.6352 85.6105L166.897 18.2362C177.709 7.40653 195.262 7.40653 206.074 18.2362L273.304 85.6105C278.524 90.8386 281.413 97.8094 281.413 105.247V122.456H261.436C255.906 122.456 250.625 120.247 246.71 116.357L222.042 91.6788C218.78 88.4113 214.369 86.5752 209.74 86.5752H163.2C158.602 86.5752 154.159 88.4113 150.897 91.6788L126.26 116.357C122.346 120.278 117.064 122.456 111.534 122.456H91.4955V105.247H91.5265ZM206.074 236.79C200.823 242.018 193.895 244.913 186.501 244.913C179.107 244.913 172.179 242.018 166.959 236.79L134.4 204.208H238.633L206.074 236.79Z" fill="black"/>
</g>
<defs>
<clipPath id="clip0_8353_19966">
<rect width="373" height="336" fill="white"/>
</clipPath>
</defs>
</svg>
