<svg width="1034" height="191" viewBox="0 0 1034 191" fill="none" xmlns="http://www.w3.org/2000/svg">
<path fill-rule="evenodd" clip-rule="evenodd" d="M608.833 144.081C602.528 141.497 597.489 137.672 593.715 132.607C589.941 127.542 587.951 121.443 587.746 114.31H615.964C616.381 118.342 617.777 121.417 620.154 123.536C622.532 125.655 625.633 126.715 629.458 126.715C633.386 126.715 636.487 125.81 638.761 124.001C641.036 122.193 642.17 119.685 642.17 116.481C642.17 113.793 641.264 111.571 639.457 109.814C637.65 108.056 635.427 106.609 632.787 105.472C630.153 104.335 626.408 103.043 621.545 101.595C614.516 99.4246 608.782 97.2538 604.335 95.083C599.889 92.9122 596.069 89.7078 592.86 85.4694C589.656 81.2309 588.054 75.7007 588.054 68.8782C588.054 58.7475 591.725 50.8139 599.062 45.0767C606.404 39.3395 615.964 36.4709 627.748 36.4709C639.742 36.4709 649.405 39.3395 656.747 45.0767C664.084 50.8139 668.012 58.7994 668.53 69.0332H639.845C639.639 65.5187 638.345 62.7533 635.968 60.7376C633.591 58.7218 630.541 57.7139 626.819 57.7139C623.615 57.7139 621.032 58.5668 619.066 60.2724C617.105 61.9781 616.118 64.4333 616.118 67.6377C616.118 71.1521 617.777 73.8919 621.084 75.8558C624.39 77.8197 629.561 79.9392 636.589 82.2132C643.618 84.5909 649.33 86.8649 653.72 89.0357C658.115 91.2066 661.912 94.3596 665.121 98.4943C668.325 102.629 669.927 107.953 669.927 114.465C669.927 120.668 668.348 126.302 665.195 131.367C662.043 136.432 657.471 140.463 651.474 143.461C645.477 146.459 638.397 147.958 630.233 147.958C622.269 147.958 615.138 146.666 608.833 144.081ZM734.43 124.389V146.873H720.942C711.325 146.873 703.835 144.521 698.459 139.817C693.083 135.114 690.392 127.438 690.392 116.791V82.3682H679.852V60.3499H690.392V39.262H716.906V60.3499H734.276V82.3682H716.906V117.101C716.906 119.685 717.528 121.546 718.77 122.683C720.007 123.821 722.077 124.389 724.973 124.389H734.43ZM765.676 142.686C758.903 139.068 753.579 133.899 749.702 127.18C745.826 120.461 743.888 112.605 743.888 103.611C743.888 94.721 745.854 86.8906 749.782 80.1199C753.71 73.3492 759.086 68.1547 765.909 64.5365C772.727 60.9183 780.378 59.1095 788.855 59.1095C797.331 59.1095 804.982 60.9183 811.805 64.5365C818.629 68.1547 824.005 73.3492 827.933 80.1199C831.86 86.8906 833.821 94.721 833.821 103.611C833.821 112.501 831.832 120.332 827.853 127.103C823.874 133.873 818.447 139.068 811.572 142.686C804.697 146.304 797.024 148.113 788.547 148.113C780.07 148.113 772.448 146.304 765.676 142.686ZM801.493 119.582C805.062 115.861 806.84 110.537 806.84 103.611C806.84 96.6855 805.113 91.3616 801.647 87.6402C798.187 83.9188 793.922 82.0581 788.855 82.0581C783.69 82.0581 779.397 83.8932 775.988 87.5627C772.573 91.2322 770.869 96.5817 770.869 103.611C770.869 110.537 772.551 115.861 775.908 119.582C779.266 123.304 783.479 125.164 788.547 125.164C793.609 125.164 797.924 123.304 801.493 119.582ZM924.918 69.2658C930.967 75.8301 933.988 84.8492 933.988 96.3235V146.873H907.628V99.8898C907.628 94.1008 906.129 89.6041 903.136 86.3998C900.137 83.1954 896.107 81.5929 891.039 81.5929C885.971 81.5929 881.941 83.1954 878.942 86.3998C875.949 89.6041 874.45 94.1008 874.45 99.8898V146.873H847.931V60.3499H874.45V71.8243C877.135 67.9997 880.755 64.976 885.304 62.7533C889.848 60.5307 894.967 59.4196 900.651 59.4196C910.781 59.4196 918.87 62.7015 924.918 69.2658ZM1033.54 109.969H973.528C973.944 115.344 975.677 119.453 978.727 122.296C981.777 125.139 985.522 126.56 989.969 126.56C996.581 126.56 1001.18 123.769 1003.76 118.187H1031.99C1030.54 123.872 1027.93 128.989 1024.16 133.537C1020.38 138.086 1015.66 141.652 1009.97 144.237C1004.28 146.821 997.927 148.113 990.898 148.113C982.421 148.113 974.873 146.304 968.26 142.686C961.642 139.068 956.472 133.899 952.755 127.18C949.032 120.461 947.168 112.605 947.168 103.611C947.168 94.6178 949.004 86.7617 952.675 80.0424C956.346 73.323 961.488 68.1547 968.101 64.5365C974.719 60.9183 982.318 59.1095 990.898 59.1095C999.272 59.1095 1006.71 60.867 1013.23 64.3815C1019.74 67.8959 1024.83 72.9097 1028.5 79.4221C1032.17 85.9346 1034 93.5324 1034 102.216C1034 104.697 1033.85 107.281 1033.54 109.969ZM1006.87 95.2381C1006.87 90.6895 1005.31 87.0719 1002.21 84.384C999.113 81.6961 995.236 80.3525 990.584 80.3525C986.144 80.3525 982.392 81.6448 979.343 84.2289C976.293 86.813 974.412 90.4831 973.688 95.2381H1006.87Z" fill="black"/>
<path fill-rule="evenodd" clip-rule="evenodd" d="M321.818 105.781L344.456 146.872H374.382L349.263 103.766C357.223 101.388 363.244 97.3562 367.327 91.671C371.411 85.9857 373.452 79.5245 373.452 72.2887C373.452 65.8794 371.953 60.0647 368.955 54.8446C365.957 49.6245 361.435 45.5154 355.388 42.5174C349.341 39.5195 342.027 38.0208 333.447 38.0208H288.945V146.872H315.46V105.781H321.818ZM331.896 87.0192H315.46V60.039H331.896C336.755 60.039 340.399 61.2276 342.828 63.6054C345.257 65.9831 346.472 69.2394 346.472 73.3741C346.472 77.7157 345.257 81.0751 342.828 83.4529C340.399 85.8306 336.755 87.0192 331.896 87.0192Z" fill="black"/>
<path fill-rule="evenodd" clip-rule="evenodd" d="M411.133 109.968H471.141C471.451 107.28 471.606 104.696 471.606 102.215C471.606 93.5318 469.771 85.934 466.102 79.4215C462.432 72.9091 457.341 67.8953 450.828 64.3809C444.316 60.8664 436.873 59.1089 428.5 59.1089C419.92 59.1089 412.322 60.9177 405.706 64.5359C399.091 68.1541 393.948 73.3224 390.278 80.0418C386.608 86.7612 384.773 94.6173 384.773 103.611C384.773 112.604 386.634 120.46 390.356 127.18C394.077 133.899 399.246 139.067 405.861 142.685C412.477 146.304 420.024 148.112 428.5 148.112C435.529 148.112 441.887 146.82 447.572 144.236C453.257 141.652 457.987 138.085 461.76 133.537C465.533 128.988 468.143 123.871 469.59 118.186H441.37C438.786 123.768 434.185 126.559 427.57 126.559C423.125 126.559 419.377 125.138 416.328 122.295C413.279 119.452 411.547 115.343 411.133 109.968ZM439.819 84.3834C442.92 87.0713 444.471 90.6889 444.471 95.2375H411.288C412.012 90.4826 413.899 86.8125 416.948 84.2283C419.997 81.6442 423.745 80.3519 428.19 80.3519C432.842 80.3519 436.718 81.6955 439.819 84.3834Z" fill="black"/>
<path fill-rule="evenodd" clip-rule="evenodd" d="M499.051 64.5359C493.262 68.1541 488.688 73.3223 485.328 80.0417C481.969 86.7611 480.289 94.5653 480.289 103.456C480.289 112.346 481.969 120.176 485.328 126.947C488.688 133.718 493.262 138.938 499.051 142.608C504.84 146.277 511.301 148.112 518.431 148.112C524.531 148.112 529.884 146.872 534.484 144.391C539.085 141.91 542.625 138.602 545.105 134.467V146.872H571.618V32.1287H545.105V72.2888C542.414 68.2573 538.72 65.0529 534.017 62.6752C529.314 60.2974 524.12 59.1088 518.431 59.1088C511.301 59.1088 504.84 60.9176 499.051 64.5359ZM526.184 82.2125C531.457 82.2125 535.927 84.1251 539.598 87.9497C543.269 91.7743 545.105 96.9949 545.105 103.611C545.105 110.226 543.269 115.447 539.598 119.271C535.927 123.096 531.457 125.009 526.184 125.009C520.917 125.009 516.443 123.07 512.774 119.194C509.104 115.317 507.269 110.071 507.269 103.456C507.269 96.8399 509.104 91.6454 512.774 87.8722C516.443 84.0989 520.917 82.2125 526.184 82.2125Z" fill="black"/>
<path fill-rule="evenodd" clip-rule="evenodd" d="M181.803 88.8319L153.486 42.2203L168.153 18.3305L210.984 88.8319H181.803ZM85.4115 154.339H142.662L156.954 177.655H71.377L85.4115 154.339ZM142.642 35.9125H85.3425L71.3371 12.5415H156.99L142.642 35.9125ZM142.598 141.797H85.3265L56.9714 95.126L85.3265 48.454H142.598L170.952 95.126L142.598 141.797ZM60.215 18.3807L74.4707 42.1685L46.1298 88.8171H17.4241L60.215 18.3807ZM17.4109 101.359H46.0831L74.5043 148.139L60.235 171.848L17.4109 101.359ZM168.134 171.897L153.496 148.015L181.832 101.373H210.979L168.134 171.897ZM173.523 3.01509C172.386 1.14299 170.354 0 168.164 0H60.235C58.0442 0 56.0125 1.14299 54.8758 3.01509L0.911823 91.8425C-0.303561 93.8428 -0.304131 96.3534 0.911253 98.3538L54.8758 187.181C56.0125 189.054 58.0442 190.197 60.235 190.197H168.164C170.354 190.197 172.386 189.054 173.523 187.181L227.487 98.3538C228.703 96.3534 228.703 93.8428 227.487 91.8425L173.523 3.01509Z" fill="black"/>
<path fill-rule="evenodd" clip-rule="evenodd" d="M146.417 104.895C143.492 103.043 139.617 103.911 137.764 106.838L126.665 124.361C124.812 127.286 125.682 131.161 128.607 133.014C129.648 133.673 130.81 133.988 131.957 133.988C134.034 133.988 136.067 132.956 137.26 131.072L148.359 113.548C150.212 110.623 149.342 106.749 146.417 104.895Z" fill="black"/>
<path fill-rule="evenodd" clip-rule="evenodd" d="M155.541 88.7596C152.557 87.0038 148.712 87.9997 146.956 90.9852L146.14 92.3733C144.384 95.3582 145.381 99.2015 148.366 100.957C149.364 101.545 150.459 101.824 151.539 101.824C153.688 101.824 155.782 100.719 156.95 98.7318L157.767 97.3443C159.522 94.3588 158.526 90.516 155.541 88.7596Z" fill="black"/>
</svg>
