<svg width="511" height="85" viewBox="0 0 511 85" fill="none" xmlns="http://www.w3.org/2000/svg">
<mask id="mask0_8353_20223" style="mask-type:luminance" maskUnits="userSpaceOnUse" x="0" y="0" width="511" height="85">
<path d="M511 0H0V85H511V0Z" fill="white"/>
</mask>
<g mask="url(#mask0_8353_20223)">
<path d="M59.9775 58.1202C51.8339 48.5918 38.0484 31.8001 29.9178 22.2587C29.8225 22.083 29.6845 21.9339 29.5167 21.825C29.3489 21.7162 29.1566 21.651 28.9571 21.6355C28.7576 21.6199 28.5573 21.6545 28.3747 21.7361C28.192 21.8177 28.0326 21.9437 27.9112 22.1025C26.3215 23.5084 24.745 24.8751 23.1033 26.2419C21.7091 27.4395 21.6962 27.6737 22.8819 29.0405L46.218 56.9096C47.2474 58.1071 47.2342 58.3414 46.0745 59.3307C41.5923 63.1924 37.0973 67.0454 32.589 70.8897C31.4945 71.8399 31.0773 71.7878 30.1262 70.6554C26.8948 66.8414 23.6114 63.0145 20.4321 59.2005C17.2529 55.3866 14.0866 51.807 10.9073 48.1232L5.5914 41.9402C5.48959 41.833 5.3585 41.758 5.21444 41.7246C5.07038 41.6911 4.91958 41.7005 4.78086 41.7518C4.64214 41.8031 4.52167 41.8939 4.43412 42.013C4.34657 42.1321 4.29588 42.2743 4.28843 42.4218L4.11887 54.6316C4.11223 54.7223 4.12527 54.8134 4.15673 54.8987C4.18819 54.984 4.23753 55.0616 4.30147 55.1263L4.50983 55.3736C12.7316 64.8889 20.7319 74.4042 28.9797 83.9326C30.1394 85.2342 30.465 85.2342 31.794 84.1538C41.1494 76.1789 50.5135 68.2256 59.8862 60.294C60.6549 59.565 60.7071 58.9793 59.9775 58.1202Z" fill="black"/>
<path d="M30.2161 61.7124C30.3235 61.8912 30.4726 62.0416 30.6503 62.1509C30.8281 62.2602 31.0294 62.3252 31.2375 62.3405C31.4457 62.3558 31.6545 62.321 31.8464 62.2388C32.0383 62.1567 32.2076 62.0298 32.3401 61.8686C33.9297 60.4498 35.6105 59.07 37.1871 57.6121C38.3207 56.6879 38.3466 56.3104 37.3824 55.1389L14.2677 28.155C13.3165 27.0095 13.3425 26.5409 14.4761 25.5516C18.8714 21.7768 23.2757 18.0062 27.6884 14.24C28.9914 13.1336 29.3303 13.1596 30.4117 14.4483L46.5815 33.4659C47.3503 34.3901 48.1321 35.3013 48.9139 36.2124C48.9415 36.3023 48.9855 36.3861 49.044 36.4598L54.5686 42.864C54.6668 42.977 54.7971 43.0576 54.942 43.0953C55.087 43.133 55.2398 43.126 55.3807 43.0754C55.5216 43.0247 55.644 42.9326 55.7316 42.8113C55.8192 42.69 55.8679 42.545 55.8716 42.3954L56.0411 30.1856C56.0404 30.0005 55.9758 29.8213 55.8585 29.678L54.8813 28.5325C46.881 19.2124 39.4541 10.2438 31.4278 0.923771C30.3724 -0.286796 30.3333 -0.247744 29.1476 0.741536L1.05569 24.5624C-0.169107 25.6167 -0.247539 25.864 0.79484 27.0876L17.5512 46.9253L30.2161 61.7124Z" fill="black"/>
<path d="M80.6953 51.989H88.7606C89.3209 58.8879 92.7609 62.025 100.644 62.025C106.742 62.025 110.508 59.9293 110.508 55.5166C110.195 50.5832 106.99 49.4117 98.3115 47.5112C87.4056 45.4806 82.5454 42.3045 82.5454 35.015C82.5454 26.9576 89.3209 22.4668 100.787 22.4668C112.254 22.4668 119.316 28.7409 120.189 37.6054H112.111C111.628 32.1904 107.811 29.0533 100.657 29.0533C93.9466 29.0533 90.5589 30.9538 90.5589 34.7677C90.5589 38.5816 93.5164 39.7532 100.475 41.0548C113.348 43.6582 118.208 46.0403 118.521 55.1391C118.521 63.4438 110.821 68.5594 100.41 68.5594C88.0833 68.6115 81.3989 63.0012 80.6953 51.989Z" fill="black"/>
<path d="M136.435 30.0302V41.3548H159.784V47.8633H136.435V61.1014H162.182V67.6098H128.617V23.3525H162.182V29.9391L136.435 30.0302Z" fill="black"/>
<path d="M209.362 23.4434V67.7006H199.968L180.293 34.0911L180.176 67.7397H172.605V23.4824H182.091L201.636 56.9617L201.766 23.4824L209.362 23.4434Z" fill="black"/>
<path d="M217.688 51.989H225.753C226.3 58.8879 229.753 62.025 237.636 62.025C243.734 62.025 247.499 59.9293 247.499 55.5166C247.187 50.5832 243.981 49.4117 235.304 47.5112C224.398 45.4806 219.525 42.3045 219.525 35.015C219.525 26.9576 226.3 22.4668 237.766 22.4668C249.232 22.4668 256.308 28.7409 257.168 37.6054H249.102C248.607 32.1904 244.789 29.0533 237.649 29.0533C230.938 29.0533 227.551 30.9538 227.551 34.7677C227.551 38.5816 230.509 39.7532 237.466 41.0548C250.34 43.6582 255.2 46.0403 255.512 55.1391C255.512 63.4438 247.812 68.5594 237.401 68.5594C225.075 68.6115 218.365 63.0012 217.688 51.989Z" fill="black"/>
<path d="M273.429 30.0302V41.3548H296.779V47.8633H273.429V61.1014H299.111V67.6098H265.547V23.3525H299.111V29.9391L273.429 30.0302Z" fill="black"/>
<path d="M317.47 23.4434V67.7006H309.652V23.4434H317.47Z" fill="black"/>
<path d="M378.332 23.4434V67.7006H372.729L349.132 27.778L349.015 67.7006H345.184V23.4434H350.8L374.384 63.314L374.514 23.4434H378.332Z" fill="black"/>
<path d="M387.257 45.7156C387.14 32.3604 395.883 22.2853 408.013 22.5196C420.157 22.3374 429.017 32.4905 428.861 45.7156C429.043 59.0709 420.183 68.7945 408.013 68.6643C395.818 68.7945 387.075 58.8887 387.257 45.7156ZM424.705 45.7156C424.705 34.0916 417.929 25.9691 408.013 25.9691C398.098 25.9691 391.387 34.1437 391.387 45.7156C391.387 57.2876 398.033 65.2409 408.013 65.2409C417.994 65.2409 424.705 57.2225 424.705 45.7156Z" fill="black"/>
<path d="M451.936 23.4434C458.281 23.4434 463.141 25.4089 466.529 29.4051C469.917 33.4012 471.519 38.8813 471.519 45.7152C471.519 59.1356 464.379 67.7397 451.506 67.7397H437.773V23.4824L451.936 23.4434ZM451.441 64.3032C462.099 64.3032 467.467 57.4694 467.467 45.7152C467.467 33.7137 462.255 26.8928 451.832 26.8928H441.668V64.3032H451.441Z" fill="black"/>
<path d="M484.34 26.8932V42.8258H508.419V46.2622H484.34V64.2906H511.012V67.727H480.457V23.4697H511.012V26.9192L484.34 26.8932Z" fill="black"/>
</g>
</svg>
