<svg width="971" height="331" viewBox="0 0 971 331" fill="none" xmlns="http://www.w3.org/2000/svg">
<path d="M330.089 165.201C330.089 209.014 312.701 251.033 281.749 282.015C250.797 312.995 208.817 330.4 165.045 330.4C121.272 330.4 79.2925 312.995 48.3409 282.015C17.3886 251.033 0 209.014 0 165.201C0 121.387 17.3886 79.3673 48.3409 48.3864C79.2925 17.405 121.272 0 165.045 0C208.817 0 250.797 17.405 281.749 48.3864C312.701 79.3673 330.089 121.387 330.089 165.201Z" fill="black" fill-opacity="0.4"/>
<path d="M311.228 165.199C311.228 204.005 295.826 241.223 268.412 268.663C240.998 296.103 203.816 311.519 165.046 311.519C126.276 311.519 89.0934 296.103 61.6794 268.663C34.2647 241.223 18.8633 204.005 18.8633 165.199C18.8633 126.392 34.2647 89.1752 61.6794 61.7354C89.0934 34.2948 126.276 18.8789 165.046 18.8789C203.816 18.8789 240.998 34.2948 268.412 61.7354C295.826 89.1752 311.228 126.392 311.228 165.199Z" fill="black"/>
<path d="M301.795 165.2C301.795 201.503 287.387 236.319 261.741 261.989C236.096 287.659 201.313 302.08 165.044 302.08C128.775 302.08 93.9919 287.659 68.346 261.989C42.7002 236.319 28.293 201.503 28.293 165.2C28.293 128.897 42.7002 94.0811 68.346 68.4111C93.9919 42.7411 128.775 28.3203 165.044 28.3203C201.313 28.3203 236.096 42.7411 261.741 68.4111C287.387 94.0811 301.795 128.897 301.795 165.2Z" fill="white" fill-opacity="0.9"/>
<path d="M48.7797 83.0013C48.9727 83.0592 48.6049 84.9448 47.7815 88.4435C47.1356 91.1864 45.4818 97.8033 44.5467 103.61C43.7325 108.72 42.9748 115.624 44.3706 122.241C44.9418 124.98 45.9003 127.786 47.3546 130.426C48.8018 133.063 50.7525 135.551 53.1315 137.79C55.7769 140.284 58.9026 142.419 62.4019 144.303C66.5217 146.517 71.0127 148.283 75.8733 149.805C81.593 151.592 87.5441 152.952 93.9182 154.183C100.922 155.534 108.081 156.634 115.635 157.652C131.791 159.83 147.399 161.342 165.172 163.132C165.176 163.132 165.308 163.145 165.312 163.145C182.914 164.917 198.734 166.52 214.837 168.82C222.422 169.903 229.656 171.089 236.742 172.545C243.178 173.865 249.261 175.351 255.143 177.294C264.476 180.348 272.626 184.42 279.012 190.376C281.541 192.746 283.665 195.372 285.31 198.183C286.851 200.821 287.935 203.582 288.611 206.318C289.977 211.906 289.687 217.391 288.9 221.91C288.085 226.613 286.575 231.185 285.469 234.418C283.476 240.252 282.123 244.016 281.22 246.152C280.919 246.861 280.72 247.28 280.553 247.514C280.466 247.559 280.415 247.62 280.39 247.641C280.382 247.639 280.375 247.637 280.372 247.631C280.361 247.613 280.375 247.609 280.386 247.609C280.394 247.609 280.411 247.616 280.401 247.622C280.399 247.623 280.399 247.617 280.396 247.608C280.406 247.566 280.388 247.548 280.347 247.443C280.359 247.218 280.45 246.654 280.599 245.956C281.021 243.971 282.155 239.547 283.706 233.876C284.593 230.626 285.863 225.995 286.433 221.537C286.983 217.215 287.077 212.072 285.667 207.093C284.981 204.649 283.934 202.198 282.494 199.88C280.959 197.404 278.978 195.089 276.627 192.98C270.664 187.603 262.956 184.016 253.904 181.149C248.198 179.361 242.26 178.001 235.902 176.771C228.907 175.419 221.758 174.318 214.216 173.3C198.115 171.127 182.545 169.617 164.841 167.834C164.842 167.834 164.701 167.82 164.701 167.82C147.033 166.042 131.17 164.436 115.014 162.131C107.417 161.047 100.174 159.86 93.0799 158.405C86.6285 157.084 80.5325 155.597 74.6393 153.655C69.6227 152.005 64.9271 150.051 60.585 147.614C56.8894 145.541 53.55 143.135 50.6921 140.326C48.1155 137.791 46.0199 134.959 44.4733 131.958C42.928 128.948 41.9604 125.819 41.4354 122.8C40.1851 115.507 41.2463 108.39 42.3575 103.2C43.6812 96.974 45.6209 91.1012 46.6599 88.1164C47.8446 84.7133 48.5867 82.9441 48.7797 83.0013Z" fill="black"/>
<path d="M83.9304 48.1048C84.0922 48.2244 83.1019 49.8707 81.133 52.8764C79.589 55.2329 75.7739 60.8845 72.9114 66.0216C70.3999 70.5434 67.3288 76.772 66.3801 83.4676C65.9804 86.2371 65.9226 89.2018 66.3872 92.1808C66.8453 95.1546 67.8285 98.1602 69.2984 101.079C70.9327 104.328 73.1402 107.404 75.7849 110.372C78.8995 113.864 82.5164 117.061 86.5642 120.155C91.328 123.792 96.4557 127.107 102.025 130.446C108.144 134.113 114.495 137.597 121.245 141.14C135.684 148.718 149.833 155.481 165.924 163.248C165.928 163.25 166.047 163.308 166.05 163.309C181.985 171 196.303 177.922 210.65 185.595C217.408 189.21 223.799 192.802 229.961 196.595C235.557 200.039 240.766 203.518 245.629 207.358C253.356 213.422 259.623 220.038 263.589 227.822C265.155 230.914 266.254 234.109 266.84 237.314C267.385 240.32 267.461 243.286 267.161 246.089C266.535 251.808 264.389 256.862 262.106 260.84C259.733 264.98 256.752 268.759 254.607 271.419C250.742 276.218 248.183 279.292 246.604 280.989C246.08 281.553 245.75 281.878 245.512 282.042C245.416 282.054 245.346 282.094 245.316 282.105C245.309 282.1 245.303 282.096 245.302 282.089C245.299 282.069 245.313 282.069 245.323 282.073C245.331 282.076 245.344 282.089 245.333 282.091C245.331 282.091 245.333 282.086 245.333 282.076C245.357 282.04 245.346 282.017 245.344 281.904C245.431 281.697 245.71 281.198 246.088 280.593C247.162 278.872 249.741 275.104 253.136 270.305C255.08 267.555 257.855 263.638 259.915 259.643C261.909 255.771 263.754 250.971 264.13 245.809C264.321 243.277 264.174 240.615 263.613 237.945C263.017 235.093 261.946 232.239 260.457 229.452C256.691 222.359 250.673 216.349 243.147 210.556C238.397 206.921 233.282 203.611 227.727 200.278C221.617 196.613 215.274 193.132 208.534 189.594C194.147 182.04 180.033 175.29 164.005 167.554C164.006 167.554 163.879 167.493 163.879 167.493C147.884 159.773 133.526 152.834 119.132 145.137C112.363 141.518 105.963 137.923 99.7939 134.127C94.1833 130.676 88.9633 127.192 84.0883 123.35C79.9379 120.082 76.1937 116.638 72.9465 112.861C70.1815 109.648 67.8656 106.245 66.1403 102.627C64.5853 99.3616 63.5839 95.9839 63.1556 92.6348C62.732 89.2772 62.8918 86.0056 63.4305 82.9888C64.7471 75.7079 68.1762 69.3831 70.9938 64.8866C74.3657 59.4893 78.1951 54.6338 80.1914 52.1849C82.467 49.3926 83.7686 47.9844 83.9304 48.1048Z" fill="black"/>
<path d="M469.365 133.962C466.959 132.797 464.01 131.709 460.517 130.7C457.024 129.689 453.53 129.183 450.037 129.183C444.602 129.183 440.254 130.543 436.994 133.262C433.732 135.982 432.102 139.402 432.102 143.521C432.102 146.629 433.033 149.213 434.896 151.272C436.76 153.331 439.206 155.079 442.234 156.517C445.261 157.955 448.482 159.334 451.898 160.653C454.615 161.665 457.313 162.792 459.992 164.036C462.671 165.278 465.097 166.793 467.27 168.581C469.443 170.368 471.17 172.582 472.45 175.223C473.732 177.865 474.374 181.128 474.374 185.013C474.374 189.6 473.286 193.66 471.112 197.195C468.939 200.73 465.911 203.469 462.03 205.411C458.148 207.354 453.645 208.325 448.521 208.325C444.407 208.325 440.662 207.82 437.285 206.811C433.907 205.801 430.957 204.617 428.434 203.257C425.911 201.897 423.912 200.751 422.438 199.817L425.115 195.155C426.823 196.399 428.9 197.642 431.345 198.886C433.79 200.128 436.449 201.177 439.322 202.031C442.195 202.887 445.068 203.314 447.939 203.314C451.278 203.314 454.519 202.655 457.663 201.334C460.806 200.012 463.406 198.012 465.463 195.332C467.522 192.651 468.551 189.25 468.551 185.131C468.551 181.167 467.581 177.962 465.64 175.515C463.699 173.068 461.214 171.067 458.185 169.512C455.158 167.958 451.937 166.559 448.521 165.316C445.882 164.306 443.243 163.239 440.604 162.113C437.964 160.986 435.557 159.626 433.383 158.033C431.21 156.44 429.482 154.516 428.2 152.263C426.919 150.008 426.279 147.288 426.279 144.104C426.279 140.141 427.288 136.683 429.307 133.731C431.326 130.777 434.062 128.465 437.516 126.794C440.971 125.124 444.912 124.25 449.338 124.172C453.219 124.172 457.159 124.678 461.156 125.689C465.154 126.698 468.628 127.98 471.58 129.534L469.365 133.962Z" fill="black"/>
<path d="M495.684 124.637H546.689V130.116H501.392V162.984H542.148V168.463H501.392V201.913H548.319V207.393H495.684V124.637Z" fill="black"/>
<path d="M588.959 124.637C592.064 124.637 595.15 125.084 598.215 125.977C601.283 126.87 604.077 128.269 606.601 130.173C609.123 132.078 611.161 134.506 612.714 137.458C614.267 140.41 615.043 143.946 615.043 148.065C615.043 151.174 614.577 154.185 613.645 157.099C612.714 160.013 611.2 162.635 609.104 164.966C607.009 167.297 604.291 169.163 600.952 170.563C597.615 171.961 593.501 172.66 588.611 172.66H575.802V207.393H570.094V124.637H588.959ZM588.26 167.18C592.375 167.18 595.792 166.598 598.509 165.432C601.226 164.266 603.361 162.751 604.914 160.887C606.466 159.023 607.572 156.983 608.23 154.767C608.891 152.553 609.221 150.396 609.221 148.297C609.221 145.812 608.774 143.481 607.882 141.306C606.989 139.13 605.689 137.206 603.981 135.535C602.274 133.865 600.217 132.545 597.81 131.573C595.403 130.602 592.724 130.116 589.776 130.116H575.802V167.18H588.26ZM600.139 169.746L623.078 207.393H616.442L593.383 169.86L600.139 169.746Z" fill="black"/>
<path d="M643.805 124.637H694.81V130.116H649.513V162.984H690.27V168.463H649.513V201.913H696.44V207.393H643.805V124.637Z" fill="black"/>
<path d="M787.387 209.374L722.176 135.825L723.689 134.66L723.806 207.391H718.215V122.887H718.566L783.777 197.015L782.261 197.481L782.147 124.635H787.618V209.374H787.387Z" fill="black"/>
<path d="M813.934 124.637H819.642V207.393H813.934V124.637Z" fill="black"/>
<path d="M839.324 124.637H893.473V130.116H869.135V207.393H863.427V130.116H839.324V124.637Z" fill="black"/>
<path d="M899.758 207.393L934.692 121.023H935.157L970.092 207.393H963.687L933.294 130.117L937.253 127.9L905.463 207.393H899.758ZM916.643 174.64H953.324L954.954 180.002H915.244L916.643 174.64Z" fill="black"/>
</svg>
