<svg width="402" height="87" viewBox="0 0 402 87" fill="none" xmlns="http://www.w3.org/2000/svg">
<path fill-rule="evenodd" clip-rule="evenodd" d="M54.5 11C54.5 11 54.5 43.9 54.5 50.2C54.5 56.5 54.5 69.6 70.6 70.6C79.8 71.1 85.8 68.2 85.8 68.2L83.9 57.5C79.4 58.9 68.4 61.4 68.1 53.2C67.7 45.6 67.9 34 67.9 34L83.8 33.9V22.6H67.9V8.90002L54.5 11Z" fill="black"/>
<path fill-rule="evenodd" clip-rule="evenodd" d="M129.597 40.9C129.597 31.1 127.197 15.5 93.5966 23.5L95.2966 34.4C108.497 30.5 117.097 31.8 116.697 40.8C110.897 39.5 96.8966 39.2 91.9966 46.2C86.9966 53.2 89.5966 61.9 91.9966 64.3C94.5966 66.9 96.8966 71.6 116.697 70.3C124.297 69.8 129.697 68.1 129.697 68.1C129.697 68.1 129.597 50.7 129.597 40.9ZM116.697 59.5C116.697 59.5 110.697 60.4 106.697 59.5C101.297 58.3 101.097 51.4 106.697 49.9C110.497 48.9 114.997 49.3 116.697 49.8V59.5Z" fill="black"/>
<path fill-rule="evenodd" clip-rule="evenodd" d="M141.398 2.69998V69.6H154.898V49.2C154.898 49.2 163.698 57.7 170.598 69.5H186.398C186.398 69.5 175.598 50.6 166.598 43L185.498 22.5H169.098L154.898 38.9V0.599976L141.398 2.69998Z" fill="black"/>
<path fill-rule="evenodd" clip-rule="evenodd" d="M209.8 21.3C187.6 21.3 187.3 45.4001 187.3 45.4001C187.3 45.4001 185.8 65 203.8 69.6C216.1 72.7 228.6 67.8001 228.6 67.8001L226.8 56.7001C211.8 61.7001 202.3 58.3 201.2 50.7001H231C232 42.5 232 21.3 209.8 21.3ZM201.2 41.3C201.2 41.3 201.7 32.4001 209.8 32.4001C218.6 32.4001 218.4 41.3 218.4 41.3H201.2Z" fill="black"/>
<path fill-rule="evenodd" clip-rule="evenodd" d="M241.199 2.7L254.699 0.5V40.3C254.699 40.3 254.799 47.2 254.699 51.5C254.599 55 256.599 58.1 262.099 58.1L260.299 70.6C260.299 70.6 241.199 73 241.199 51.5V2.7Z" fill="black"/>
<path fill-rule="evenodd" clip-rule="evenodd" d="M263.597 22.6H277.397L287.197 52.6L296.097 22.6H310.097C310.097 22.6 298.097 64.1 289.397 76.4C280.697 88.7 270.997 85.9 262.797 83.6L265.097 73.1C265.097 73.1 270.897 75 274.797 73.8C278.697 72.6 280.497 67.3 280.497 67.3C280.497 67.3 266.897 37.8 263.597 22.6Z" fill="black"/>
<path d="M316.598 70.6999C321.292 70.6999 325.098 66.8944 325.098 62.2C325.098 57.5055 321.292 53.7 316.598 53.7C311.903 53.7 308.098 57.5055 308.098 62.2C308.098 66.8944 311.903 70.6999 316.598 70.6999Z" fill="black"/>
<path d="M338.898 17.1C343.317 17.1 346.898 13.5183 346.898 9.09998C346.898 4.6817 343.317 1.09998 338.898 1.09998C334.48 1.09998 330.898 4.6817 330.898 9.09998C330.898 13.5183 334.48 17.1 338.898 17.1Z" fill="black"/>
<path d="M345.699 22.6H332.199V69.5H345.699V22.6Z" fill="black"/>
<path fill-rule="evenodd" clip-rule="evenodd" d="M377.297 21.3C361.897 21.3 354.297 33.2001 354.297 45.9001C354.297 58.6001 361.897 70.6 377.297 70.6C392.797 70.6 400.297 58.6001 400.297 45.9001C400.297 33.2001 392.797 21.3 377.297 21.3ZM377.297 58.9001C369.197 58.9001 367.997 49.4001 367.997 45.9001C367.997 42.4001 369.097 32.9001 377.297 32.9001C385.497 32.9001 386.597 42.3001 386.597 45.9001C386.597 49.5001 385.397 58.9001 377.297 58.9001Z" fill="black"/>
<path fill-rule="evenodd" clip-rule="evenodd" d="M42.5974 10.4999L38.4974 21.9999C30.1974 17.4999 19.4974 16.9999 16.9974 20.6999C14.9974 23.5999 15.3974 28.3999 23.2974 30.8999C24.2974 31.1999 24.6974 32.4999 23.8974 33.2999L18.3974 39.2999C16.5974 41.2999 13.5974 41.7999 11.1974 40.4999C7.09739 38.2999 1.69739 33.7999 1.29739 25.1999C0.59739 7.09995 22.7974 1.99995 42.5974 10.4999Z" fill="black"/>
<path fill-rule="evenodd" clip-rule="evenodd" d="M20.6984 41.8C19.8984 42.6 20.1984 43.9 21.2984 44.3C25.5984 45.9 31.8984 48.3 30.5984 54C28.9984 60.8 13.2984 58.9 4.29844 54.7L0.398438 66.1C0.398438 66.1 14.4984 73.4 32.0984 69.3C49.7984 65.1 45.1984 47 43.5984 43.7C42.1984 40.8 38.6984 36.6 31.9984 33.9C30.2984 33.2 28.3984 33.6 27.1984 34.9L20.6984 41.8Z" fill="black"/>
</svg>
