<svg width="425" height="93" viewBox="0 0 425 93" fill="none" xmlns="http://www.w3.org/2000/svg">
<path d="M104.688 0C90.7875 0 78.2875 6.09999 69.7875 15.9C79.1875 17.6 88.0875 21.7 95.3875 28C100.488 32.2 104.987 37 108.787 42.4L110.987 45.6C111.287 46.1 111.288 46.7 110.888 47.2L108.688 50.4C104.888 55.8 100.387 60.6 95.2875 64.8C87.9875 71.1 79.0875 75.3 69.6875 76.9C78.1875 86.6 90.6875 92.8 104.688 92.8C130.388 92.8 151.188 72 151.188 46.3C151.188 20.6 130.288 0 104.688 0Z" fill="black"/>
<path d="M99.5875 45.5969C94.1875 38.7969 81.7875 26.0969 64.1875 24.7969C63.9875 24.7969 63.6875 24.7969 63.4875 24.7969C60.0875 31.1969 58.1875 38.5969 58.1875 46.3969C58.1875 54.1969 60.0875 61.4969 63.4875 67.9969C63.6875 67.9969 63.9875 67.9969 64.1875 67.9969C81.7875 66.7969 94.1875 53.9969 99.5875 47.2969C99.9875 46.7969 99.9875 46.0969 99.5875 45.5969ZM82.1875 51.2969C79.4875 51.0969 77.4875 48.8969 77.5875 46.1969C77.6875 43.6969 79.6875 41.7969 82.1875 41.5969C82.3875 41.5969 82.5875 41.5969 82.6875 41.5969C85.3875 41.7969 87.3875 43.9969 87.2875 46.6969C87.1875 49.3969 84.7875 51.3969 82.1875 51.2969Z" fill="black"/>
<path d="M358.887 27.4992C360.087 27.4992 361.287 27.0992 362.188 26.2992C363.087 25.4992 363.487 24.3992 363.487 23.1992C363.487 22.0992 363.087 20.9992 362.188 20.1992C360.188 18.6992 357.487 18.6992 355.487 20.1992C354.687 20.9992 354.188 22.0992 354.188 23.1992C354.188 24.3992 354.587 25.4992 355.487 26.2992C356.387 27.0992 357.687 27.4992 358.887 27.4992Z" fill="black"/>
<path d="M359.188 32.3969H342.888V31.3969C342.788 29.9969 343.188 28.6969 343.988 27.4969C344.988 26.4969 346.188 25.9969 347.588 25.9969L348.888 25.8969C349.688 25.8969 350.488 25.4969 350.988 24.9969C351.588 24.3969 351.788 23.5969 351.788 22.7969C351.788 21.3969 351.188 19.7969 348.388 19.7969C348.088 19.7969 347.788 19.7969 347.488 19.8969L346.188 19.9969C343.088 20.0969 340.088 21.4969 337.988 23.6969C335.988 26.0969 334.888 29.1969 335.088 32.2969H332.588C329.588 32.2969 328.988 33.9969 328.988 35.3969C328.988 36.7969 329.588 38.4969 332.588 38.4969H335.088V57.7969C334.988 58.8969 335.488 59.8969 336.288 60.5969C337.088 61.1969 338.088 61.5969 339.088 61.5969C340.088 61.5969 341.088 61.2969 341.888 60.5969C342.688 59.8969 343.088 58.8969 342.988 57.7969V38.5969H354.888V57.7969C354.788 58.8969 355.288 59.8969 356.088 60.5969C356.888 61.2969 357.888 61.5969 358.888 61.5969C359.888 61.5969 360.888 61.2969 361.688 60.5969C362.488 59.8969 362.888 58.7969 362.788 57.7969V35.5969C362.788 34.0969 362.188 32.3969 359.188 32.3969Z" fill="black"/>
<path d="M391.288 48.4992C390.488 47.2992 389.288 46.2992 387.988 45.7992C385.988 44.9992 383.988 44.2992 381.888 43.8992C380.288 43.5992 378.688 43.1992 377.088 42.4992C376.388 42.0992 375.988 41.3992 375.988 40.5992C375.988 39.7992 376.388 38.9992 377.088 38.5992C377.988 37.9992 379.088 37.7992 380.188 37.7992C381.188 37.7992 382.088 37.8992 383.088 38.1992C384.088 38.5992 384.988 38.9992 385.888 39.4992C386.388 39.7992 386.888 40.0992 387.488 40.2992C387.888 40.4992 388.388 40.5992 388.888 40.5992C389.588 40.5992 390.288 40.2992 390.688 39.6992C391.188 39.0992 391.388 38.2992 391.388 37.4992C391.388 36.0992 390.588 34.7992 389.388 34.0992C388.088 33.2992 386.688 32.6992 385.288 32.2992C383.788 31.8992 382.188 31.6992 380.588 31.6992C378.488 31.6992 376.388 32.0992 374.488 32.7992C372.788 33.4992 371.288 34.5992 370.188 36.0992C369.188 37.4992 368.588 39.1992 368.588 40.8992C368.488 42.9992 369.388 44.9992 370.888 46.3992C372.388 47.6992 374.888 48.6992 378.388 49.3992C379.788 49.6992 381.188 50.0992 382.588 50.4992C383.288 50.6992 383.888 50.9992 384.388 51.4992C384.688 51.8992 384.888 52.2992 384.788 52.7992C384.788 53.5992 384.388 54.2992 383.588 54.6992C382.488 55.2992 381.288 55.4992 379.988 55.4992C378.688 55.4992 377.488 55.3992 376.188 55.0992C375.088 54.6992 373.988 54.2992 372.888 53.7992C371.988 53.2992 370.988 52.8992 369.988 52.7992C369.288 52.7992 368.588 53.0992 368.188 53.6992C367.688 54.2992 367.388 54.9992 367.488 55.7992C367.488 57.1992 368.188 58.4992 369.488 59.1992C372.088 60.8992 375.588 61.6992 379.788 61.6992C382.888 61.8992 385.988 60.9992 388.688 59.2992C390.888 57.7992 392.188 55.3992 392.088 52.6992C392.288 51.1992 391.988 49.7992 391.288 48.4992Z" fill="black"/>
<path d="M413.885 31.6972C411.985 31.6972 410.085 32.0972 408.285 32.8972C406.985 33.4972 405.885 34.3972 404.985 35.4972V23.2972C404.985 22.2972 404.585 21.2972 403.885 20.6972C402.185 19.3972 399.885 19.3972 398.185 20.7972C397.485 21.4972 396.985 22.4972 397.085 23.4972V57.7972C396.985 58.7972 397.385 59.8972 398.185 60.5972C398.985 61.2972 399.985 61.6972 401.085 61.5972C402.185 61.6972 403.185 61.2972 403.985 60.5972C404.685 59.8972 405.085 58.7972 405.085 57.7972V44.9972C404.985 43.1972 405.585 41.3972 406.885 40.0972C408.085 38.8972 409.785 38.1972 411.585 38.2972C412.885 38.1972 414.185 38.6972 415.185 39.5972C416.085 40.7972 416.485 42.2972 416.285 43.7972V57.8972C416.185 58.8972 416.585 59.9972 417.385 60.6972C418.185 61.3972 419.185 61.7972 420.285 61.6972C421.385 61.7972 422.385 61.3972 423.185 60.6972C423.885 59.9972 424.285 58.8972 424.285 57.8972V43.7972C424.085 35.6972 420.585 31.6972 413.885 31.6972Z" fill="black"/>
<path d="M187.088 48.4992C186.288 47.2992 185.188 46.2992 183.788 45.7992C181.788 44.9992 179.788 44.2992 177.688 43.8992C176.088 43.5992 174.488 43.1992 172.888 42.4992C172.188 42.0992 171.788 41.3992 171.788 40.5992C171.788 39.7992 172.188 38.9992 172.888 38.5992C173.788 37.9992 174.888 37.7992 175.988 37.7992C176.988 37.7992 177.888 37.8992 178.888 38.1992C179.888 38.5992 180.788 38.9992 181.688 39.4992C182.188 39.7992 182.688 40.0992 183.288 40.2992C183.688 40.4992 184.188 40.5992 184.688 40.5992C185.388 40.5992 186.088 40.2992 186.588 39.6992C187.088 39.0992 187.288 38.2992 187.288 37.4992C187.288 36.0992 186.488 34.7992 185.288 34.0992C183.988 33.2992 182.588 32.6992 181.188 32.2992C179.688 31.8992 178.088 31.6992 176.488 31.6992C174.388 31.6992 172.288 32.0992 170.388 32.7992C168.688 33.4992 167.188 34.5992 166.188 36.0992C165.188 37.4992 164.588 39.1992 164.588 40.8992C164.488 42.9992 165.388 44.9992 166.888 46.3992C168.388 47.6992 170.888 48.6992 174.388 49.3992C175.788 49.6992 177.188 50.0992 178.588 50.4992C179.288 50.6992 179.888 50.9992 180.388 51.4992C180.688 51.8992 180.888 52.2992 180.788 52.7992C180.788 53.5992 180.388 54.2992 179.588 54.6992C178.488 55.2992 177.288 55.4992 175.988 55.4992C174.688 55.4992 173.488 55.3992 172.188 55.0992C171.088 54.6992 169.988 54.2992 168.888 53.7992C167.988 53.2992 166.988 52.8992 165.988 52.7992C165.288 52.7992 164.588 53.0992 164.188 53.6992C163.688 54.2992 163.388 54.9992 163.488 55.7992C163.488 57.1992 164.188 58.5992 165.488 59.1992C168.088 60.8992 171.588 61.6992 175.788 61.6992C178.888 61.7992 181.988 60.9992 184.688 59.2992C186.888 57.7992 188.088 55.3992 188.088 52.6992C188.188 51.1992 187.888 49.7992 187.088 48.4992Z" fill="black"/>
<path d="M208.588 55.3988L206.988 55.2988C204.588 55.0988 203.488 53.7988 203.488 51.0988V38.4988H207.988C208.888 38.5988 209.888 38.2988 210.588 37.6988C211.888 36.4988 211.888 34.3988 210.688 33.1988C210.688 33.1988 210.688 33.1988 210.588 33.0988C209.788 32.4988 208.888 32.2988 207.988 32.2988H203.488V27.3988C203.488 26.3988 203.088 25.3988 202.388 24.6988C201.588 23.9988 200.588 23.6988 199.588 23.6988C198.488 23.5988 197.488 23.9988 196.688 24.6988C195.988 25.3988 195.588 26.3988 195.588 27.3988V32.2988H193.088C192.188 32.1988 191.188 32.4988 190.488 33.0988C189.188 34.2988 189.188 36.3988 190.388 37.5988C190.388 37.5988 190.388 37.5988 190.488 37.6988C191.288 38.2988 192.188 38.4988 193.088 38.4988H195.588V50.5988C195.588 57.1988 198.988 60.7988 205.588 61.2988L207.188 61.3988H207.788C208.788 61.3988 209.788 61.1988 210.688 60.6988C211.488 60.1988 211.988 59.2988 211.988 58.2988C211.788 57.0988 211.288 55.5988 208.588 55.3988Z" fill="black"/>
<path d="M237.088 34.6992C235.088 32.6992 232.088 31.6992 228.088 31.6992C226.188 31.6992 224.388 31.8992 222.488 32.2992C220.788 32.6992 219.188 33.1992 217.588 34.0992C216.888 34.3992 216.288 34.9992 215.788 35.5992C215.388 36.1992 215.188 36.7992 215.188 37.4992C215.188 38.2992 215.388 39.0992 215.988 39.6992C216.488 40.2992 217.188 40.5992 217.988 40.5992C218.788 40.4992 219.588 40.1992 220.288 39.7992C221.788 39.1992 223.188 38.6992 224.288 38.3992C225.388 38.0992 226.488 37.8992 227.588 37.8992C228.888 37.7992 230.188 38.1992 231.188 39.0992C231.988 40.1992 232.388 41.5992 232.288 42.8992V43.7992H231.188C227.888 43.6992 224.588 43.9992 221.288 44.5992C219.288 44.8992 217.388 45.8992 215.988 47.2992C214.788 48.6992 214.188 50.5992 214.288 52.3992C214.288 54.0992 214.788 55.6992 215.688 57.0992C216.588 58.4992 217.888 59.5992 219.488 60.3992C221.088 61.1992 222.888 61.5992 224.788 61.5992C226.588 61.5992 228.288 61.1992 229.788 60.2992C230.788 59.6992 231.588 58.8992 232.288 57.8992C232.288 58.7992 232.688 59.6992 233.388 60.3992C234.088 61.0992 235.088 61.3992 236.088 61.3992C237.088 61.4992 238.088 61.0992 238.888 60.3992C239.588 59.6992 239.988 58.6992 239.888 57.6992V43.6992C239.988 39.6992 238.988 36.6992 237.088 34.6992ZM232.488 48.3992V49.1992C232.588 50.8992 231.988 52.5992 230.788 53.8992C229.688 55.0992 228.088 55.7992 226.388 55.6992C225.288 55.6992 224.288 55.3992 223.488 54.5992C222.688 53.8992 222.288 52.8992 222.288 51.8992C222.288 51.0992 222.488 50.3992 223.088 49.7992C223.888 49.1992 224.888 48.7992 225.888 48.6992C227.888 48.3992 229.788 48.2992 231.788 48.3992H232.488Z" fill="black"/>
<path d="M272.088 54.9974L262.388 46.2973L271.088 38.1974C271.888 37.4974 272.288 36.4974 272.288 35.4974C272.288 34.4974 271.888 33.5973 271.188 32.8973C270.488 32.1973 269.588 31.7973 268.588 31.7973C267.588 31.7973 266.688 32.1973 265.988 32.8973L254.388 43.9974V23.2973C254.488 22.1973 253.988 21.1974 253.188 20.4974C252.388 19.8974 251.388 19.4973 250.388 19.5973C249.388 19.5973 248.388 19.8974 247.588 20.4974C246.788 21.1974 246.388 22.1973 246.488 23.2973V57.4974C246.388 58.5974 246.888 59.5973 247.588 60.2973C248.388 60.8973 249.388 61.2973 250.388 61.2973C251.388 61.2973 252.388 60.9973 253.188 60.2973C253.988 59.5973 254.388 58.5974 254.388 57.4974V48.4974L267.188 60.0974C267.888 60.7974 268.788 61.1973 269.788 61.1973C270.788 61.1973 271.688 60.7974 272.288 60.0974C273.688 58.5974 273.688 56.2973 272.188 54.8973C272.188 54.9973 272.188 54.9974 272.088 54.9974Z" fill="black"/>
<path d="M299.987 52.699C298.987 52.799 298.087 53.099 297.287 53.699C296.287 54.199 295.187 54.599 294.187 54.899C293.187 55.199 292.087 55.399 291.087 55.299C289.187 55.399 287.287 54.799 285.887 53.499C284.587 52.099 283.887 50.199 283.787 48.299H300.287C301.487 48.299 302.887 47.799 302.887 45.399C302.987 42.899 302.387 40.299 301.287 38.099C300.287 36.099 298.687 34.399 296.787 33.199C294.687 31.999 292.387 31.399 289.987 31.499C287.387 31.499 284.887 32.099 282.687 33.399C280.587 34.699 278.787 36.499 277.687 38.699C276.487 41.099 275.887 43.799 275.887 46.499C275.887 51.099 277.287 54.799 279.987 57.399C282.687 59.999 286.387 61.399 290.987 61.399C292.587 61.399 294.187 61.199 295.787 60.699C297.387 60.299 298.887 59.699 300.287 58.899C301.587 58.299 302.487 56.999 302.587 55.599C302.587 54.799 302.387 53.999 301.887 53.399C301.487 52.999 300.787 52.699 299.987 52.699ZM295.887 43.799H283.787C283.887 42.099 284.587 40.499 285.687 39.199C286.887 37.999 288.487 37.399 290.087 37.499C291.687 37.399 293.187 37.999 294.287 39.199C295.287 40.499 295.887 42.099 295.887 43.799Z" fill="black"/>
<path fill-rule="evenodd" clip-rule="evenodd" d="M317.588 41.5977C320.288 41.7977 322.288 43.9977 322.188 46.6977C321.988 49.3977 319.788 51.3977 317.088 51.2977C314.388 51.0977 312.388 48.8977 312.488 46.1977C312.588 43.6977 314.588 41.7977 317.088 41.5977C317.188 41.5977 317.388 41.5977 317.588 41.5977Z" fill="black"/>
<path fill-rule="evenodd" clip-rule="evenodd" d="M63.4869 67.9977C48.1869 68.7977 33.0869 60.7977 22.1869 47.0977C21.8869 46.6977 21.8869 46.0977 22.1869 45.6977C33.0869 32.0977 48.1869 23.9977 63.4869 24.7977C65.1869 21.4977 67.2869 18.4977 69.6869 15.7977C68.0869 15.4977 66.3869 15.2977 64.7869 15.1977C50.4869 14.5977 36.3869 19.4977 25.5869 28.8977C22.2869 31.5977 19.2869 34.5977 16.5869 37.8977H16.4869C16.2869 37.9977 16.0869 37.9977 15.9869 37.7977C12.8869 32.3977 10.4869 26.5977 8.78692 20.4977V20.3977C8.28692 19.0977 7.28692 18.0977 5.98692 17.5977C4.88692 17.1977 3.68692 17.1977 2.68692 17.6977C0.686916 18.7977 -0.313082 20.9977 0.0869178 23.1977V23.2977C2.28692 31.1977 5.58692 38.6977 9.98692 45.6977C10.1869 46.0977 10.1869 46.4977 9.98692 46.8977C5.68692 53.8977 2.28692 61.3977 0.0869178 69.2977V69.4977C0.0869178 71.4977 1.28692 73.2977 3.08692 74.0977C5.08692 74.9977 7.58692 74.2977 8.68692 72.2977L8.78692 72.1977V72.0977C10.4869 66.0977 12.9869 60.1977 16.0869 54.7977C16.2869 54.5977 16.4869 54.5977 16.5869 54.7977C19.2869 58.0977 22.2869 61.0977 25.5869 63.7977C35.5869 72.4977 48.2869 77.3977 61.4869 77.5977C62.5869 77.5977 63.6869 77.5977 64.7869 77.4977C66.4869 77.3977 68.0869 77.0977 69.7869 76.8977C67.2869 74.1977 65.1869 71.1977 63.4869 67.9977Z" fill="black"/>
</svg>
