<svg width="469" height="49" viewBox="0 0 469 49" fill="none" xmlns="http://www.w3.org/2000/svg">
<g clip-path="url(#clip0_8353_20119)">
<path d="M33 41H16V28H0V0H17V14H33V41ZM58 41H41V0H75V15H58V41ZM95.68 25.768L102.496 24.28C102.912 26.904 103.592 28.8 104.536 29.968C105.48 31.136 107.024 31.72 109.168 31.72C110.992 31.72 112.448 31.392 113.536 30.736C114.624 30.08 115.168 29.112 115.168 27.832C115.168 26.488 114.648 25.456 113.608 24.736C112.568 24.016 110.192 23.08 106.48 21.928C102.992 20.84 100.52 19.52 99.064 17.968C97.608 16.416 96.88 14.504 96.88 12.232C96.88 9.608 97.896 7.36 99.928 5.488C101.96 3.616 104.72 2.68 108.208 2.68C111.376 2.68 114.104 3.448 116.392 4.984C118.68 6.52 120.112 8.808 120.688 11.848L114.4 13.432C113.408 10.264 111.344 8.68 108.208 8.68C106.544 8.68 105.304 9 104.488 9.64C103.672 10.28 103.264 11.128 103.264 12.184C103.264 13.176 103.728 13.936 104.656 14.464C105.584 14.992 107.968 15.912 111.808 17.224C115.52 18.504 118.064 19.888 119.44 21.376C120.816 22.864 121.504 24.872 121.504 27.4C121.504 30.376 120.384 32.84 118.144 34.792C115.904 36.744 112.912 37.72 109.168 37.72C105.36 37.72 102.28 36.72 99.928 34.72C97.576 32.72 96.16 29.736 95.68 25.768ZM127.36 27.928V16.84H123.424V11.56H127.504V5.32H133.408V11.56H139.84V16.84H133.504V27.352C133.504 28.696 133.728 29.64 134.176 30.184C134.624 30.728 135.536 31 136.912 31H138.976V37H136.336C132.912 37 130.56 36.28 129.28 34.84C128 33.4 127.36 31.096 127.36 27.928ZM158.656 37V34.552H158.56C158.496 34.648 158.416 34.768 158.32 34.912C158.224 35.056 157.984 35.304 157.6 35.656C157.216 36.008 156.784 36.328 156.304 36.616C155.824 36.904 155.168 37.16 154.336 37.384C153.504 37.608 152.608 37.72 151.648 37.72C148.576 37.72 146.28 36.992 144.76 35.536C143.24 34.08 142.48 32.296 142.48 30.184C142.48 27.976 143.136 26.296 144.448 25.144C145.76 23.992 147.984 23.032 151.12 22.264C154.032 21.56 155.856 21 156.592 20.584C157.328 20.168 157.696 19.576 157.696 18.808C157.696 18.04 157.336 17.4 156.616 16.888C155.896 16.376 154.816 16.12 153.376 16.12C151.68 16.12 150.464 16.496 149.728 17.248C148.992 18 148.416 19.016 148 20.296L142.816 18.136C143.424 15.992 144.608 14.24 146.368 12.88C148.128 11.52 150.432 10.84 153.28 10.84C156.384 10.84 158.928 11.656 160.912 13.288C162.896 14.92 163.888 17.448 163.888 20.872V37H158.656ZM152.368 26.584C150.768 26.968 149.72 27.424 149.224 27.952C148.728 28.48 148.48 29.08 148.48 29.752C148.48 31.48 149.728 32.344 152.224 32.344C154.112 32.344 155.528 31.984 156.472 31.264C157.416 30.544 157.888 29.656 157.888 28.6V24.184H157.792C157.664 24.44 157.528 24.64 157.384 24.784C157.24 24.928 156.752 25.168 155.92 25.504C155.088 25.84 153.904 26.2 152.368 26.584ZM170.128 37V1.96H176.368V22.072H176.464L185.728 11.56H193.552L184.384 21.88L194.368 37H187.456L179.68 25.384H179.584L176.368 29.032V37H170.128ZM197.728 37V11.56H203.968V37H197.728ZM197.728 7.864V1.96H203.968V7.864H197.728ZM210.688 37V11.56H216.688V14.008H216.784C217.488 13.112 218.448 12.36 219.664 11.752C220.88 11.144 222.16 10.84 223.504 10.84C226.32 10.84 228.528 11.68 230.128 13.36C231.728 15.04 232.528 17.368 232.528 20.344V37H226.288V21.88C226.288 20.12 225.952 18.8 225.28 17.92C224.608 17.04 223.456 16.6 221.824 16.6C220.288 16.6 219.088 17.04 218.224 17.92C217.36 18.8 216.928 19.976 216.928 21.448V37H210.688ZM255.28 26.872V21.64C255.28 20.2 254.784 18.976 253.792 17.968C252.8 16.96 251.472 16.456 249.808 16.456C247.952 16.456 246.448 17.128 245.296 18.472C244.144 19.816 243.568 21.752 243.568 24.28C243.568 26.808 244.152 28.744 245.32 30.088C246.488 31.432 247.984 32.104 249.808 32.104C251.472 32.104 252.8 31.6 253.792 30.592C254.784 29.584 255.28 28.344 255.28 26.872ZM239.152 42.184L243.808 38.968C244.544 40.408 245.376 41.456 246.304 42.112C247.232 42.768 248.432 43.096 249.904 43.096C251.536 43.096 252.84 42.672 253.816 41.824C254.792 40.976 255.28 39.624 255.28 37.768V34.552H255.184C254.704 35.416 253.872 36.16 252.688 36.784C251.504 37.408 250.224 37.72 248.848 37.72C245.584 37.72 242.848 36.528 240.64 34.144C238.432 31.76 237.328 28.472 237.328 24.28C237.328 20.152 238.464 16.88 240.736 14.464C243.008 12.048 245.68 10.84 248.752 10.84C251.664 10.84 253.904 11.896 255.472 14.008H255.568V11.56H261.52V37C261.52 40.712 260.44 43.56 258.28 45.544C256.12 47.528 253.328 48.52 249.904 48.52C247.248 48.52 245 47.944 243.16 46.792C241.32 45.64 239.984 44.104 239.152 42.184ZM280.48 37V3.4H294.112C297.568 3.4 300.36 4.368 302.488 6.304C304.616 8.24 305.68 10.84 305.68 14.104C305.68 16.536 305.048 18.6 303.784 20.296C302.52 21.992 300.784 23.192 298.576 23.896L305.728 37H298.72L291.952 24.52H286.96V37H280.48ZM286.96 18.904H293.584C297.264 18.904 299.104 17.304 299.104 14.104C299.104 10.872 297.264 9.256 293.584 9.256H286.96V18.904ZM327.04 28.216L331.408 32.056C328.816 35.832 325.312 37.72 320.896 37.72C317.344 37.72 314.448 36.496 312.208 34.048C309.968 31.6 308.848 28.344 308.848 24.28C308.848 20.216 309.96 16.96 312.184 14.512C314.408 12.064 317.216 10.84 320.608 10.84C324 10.84 326.792 12.064 328.984 14.512C331.176 16.96 332.272 20.216 332.272 24.28V26.152H315.184C315.28 28.104 315.816 29.6 316.792 30.64C317.768 31.68 319.104 32.2 320.8 32.2C322.24 32.2 323.432 31.84 324.376 31.12C325.32 30.4 326.208 29.432 327.04 28.216ZM315.184 21.496H326.224C326.064 19.864 325.504 18.592 324.544 17.68C323.584 16.768 322.272 16.312 320.608 16.312C319.072 16.312 317.816 16.808 316.84 17.8C315.864 18.792 315.312 20.024 315.184 21.496ZM341.008 37L335.392 11.56H341.488L344.848 28.552H344.992L350.656 11.56H356.32L361.552 28.504H361.648L365.488 11.56H371.488L365.392 37H359.248L353.44 18.712H353.344L347.056 37H341.008ZM390.304 37V34.552H390.208C390.144 34.648 390.064 34.768 389.968 34.912C389.872 35.056 389.632 35.304 389.248 35.656C388.864 36.008 388.432 36.328 387.952 36.616C387.472 36.904 386.816 37.16 385.984 37.384C385.152 37.608 384.256 37.72 383.296 37.72C380.224 37.72 377.928 36.992 376.408 35.536C374.888 34.08 374.128 32.296 374.128 30.184C374.128 27.976 374.784 26.296 376.096 25.144C377.408 23.992 379.632 23.032 382.768 22.264C385.68 21.56 387.504 21 388.24 20.584C388.976 20.168 389.344 19.576 389.344 18.808C389.344 18.04 388.984 17.4 388.264 16.888C387.544 16.376 386.464 16.12 385.024 16.12C383.328 16.12 382.112 16.496 381.376 17.248C380.64 18 380.064 19.016 379.648 20.296L374.464 18.136C375.072 15.992 376.256 14.24 378.016 12.88C379.776 11.52 382.08 10.84 384.928 10.84C388.032 10.84 390.576 11.656 392.56 13.288C394.544 14.92 395.536 17.448 395.536 20.872V37H390.304ZM384.016 26.584C382.416 26.968 381.368 27.424 380.872 27.952C380.376 28.48 380.128 29.08 380.128 29.752C380.128 31.48 381.376 32.344 383.872 32.344C385.76 32.344 387.176 31.984 388.12 31.264C389.064 30.544 389.536 29.656 389.536 28.6V24.184H389.44C389.312 24.44 389.176 24.64 389.032 24.784C388.888 24.928 388.4 25.168 387.568 25.504C386.736 25.84 385.552 26.2 384.016 26.584ZM401.776 37V11.56H407.68V14.248H407.776C408.256 13.288 408.968 12.52 409.912 11.944C410.856 11.368 411.888 11.08 413.008 11.08C413.808 11.08 414.576 11.24 415.312 11.56L414.352 17.608C413.648 17.352 412.992 17.224 412.384 17.224C409.472 17.224 408.016 19.16 408.016 23.032V37H401.776ZM435.184 26.584V21.928C435.184 20.392 434.696 19.096 433.72 18.04C432.744 16.984 431.408 16.456 429.712 16.456C427.888 16.456 426.472 17.112 425.464 18.424C424.456 19.736 423.952 21.688 423.952 24.28C423.952 26.84 424.456 28.784 425.464 30.112C426.472 31.44 427.888 32.104 429.712 32.104C431.408 32.104 432.744 31.568 433.72 30.496C434.696 29.424 435.184 28.12 435.184 26.584ZM435.568 37V34.552H435.472C435.312 34.776 435.08 35.064 434.776 35.416C434.472 35.768 433.736 36.24 432.568 36.832C431.4 37.424 430.128 37.72 428.752 37.72C425.392 37.72 422.712 36.504 420.712 34.072C418.712 31.64 417.712 28.376 417.712 24.28C417.712 20.152 418.8 16.88 420.976 14.464C423.152 12.048 425.712 10.84 428.656 10.84C430 10.84 431.208 11.104 432.28 11.632C433.352 12.16 434.08 12.68 434.464 13.192L435.088 14.008H435.184V1.96H441.424V37H435.568ZM446.224 28.6L451.84 27.16C452.288 30.712 454.192 32.488 457.552 32.488C459.088 32.488 460.312 32.24 461.224 31.744C462.136 31.248 462.592 30.552 462.592 29.656C462.592 28.92 462.24 28.368 461.536 28C460.832 27.632 459.36 27.128 457.12 26.488C456.512 26.328 456.048 26.2 455.728 26.104C452.784 25.272 450.624 24.288 449.248 23.152C447.872 22.016 447.184 20.504 447.184 18.616C447.184 16.504 448.04 14.68 449.752 13.144C451.464 11.608 453.808 10.84 456.784 10.84C462.48 10.84 466.048 13.336 467.488 18.328L462.304 19.912C461.856 18.696 461.224 17.736 460.408 17.032C459.592 16.328 458.4 15.976 456.832 15.976C455.616 15.976 454.648 16.208 453.928 16.672C453.208 17.136 452.848 17.688 452.848 18.328C452.848 19.032 453.272 19.584 454.12 19.984C454.968 20.384 457.088 21.064 460.48 22.024C463.456 22.824 465.48 23.84 466.552 25.072C467.624 26.304 468.16 27.88 468.16 29.8C468.16 31.848 467.272 33.68 465.496 35.296C463.72 36.912 461.152 37.72 457.792 37.72C454.272 37.72 451.56 36.832 449.656 35.056C447.752 33.28 446.608 31.128 446.224 28.6Z" fill="black"/>
</g>
<defs>
<clipPath id="clip0_8353_20119">
<rect width="468.16" height="48.52" fill="white"/>
</clipPath>
</defs>
</svg>
