<svg width="25" height="24" viewBox="0 0 25 24" fill="none" xmlns="http://www.w3.org/2000/svg">
<path d="M24 4.36805C23.1542 4.76905 22.2456 5.03999 21.2904 5.16246C22.2648 4.5382 23.0124 3.54763 23.3649 2.36848C22.4532 2.94722 21.4433 3.36773 20.3686 3.59315C19.5076 2.61342 18.2819 2 16.9246 2C14.3193 2 12.2062 4.26076 12.2062 7.0504C12.2062 7.44489 12.2488 7.82855 12.3278 8.1992C8.40465 7.98786 4.92923 5.97746 2.60147 2.92338C2.19629 3.67118 1.96331 4.5382 1.96331 5.46158C1.96331 7.21296 2.79697 8.75951 4.06214 9.66446C3.28825 9.63737 2.56095 9.41086 1.92482 9.03262V9.09765C1.92482 11.5437 3.5506 13.5845 5.71021 14.0483C5.31313 14.1632 4.89681 14.2239 4.46732 14.2239C4.16344 14.2239 3.86664 14.1936 3.57897 14.135C4.17964 16.14 5.92192 17.601 7.98732 17.64C6.37166 18.9947 4.33665 19.8021 2.1264 19.8021C1.74553 19.8021 1.36973 19.7783 1 19.7317C3.0887 21.1655 5.5684 22 8.23245 22C16.9134 22 21.6591 14.3074 21.6591 7.63563C21.6591 7.41888 21.654 7.19996 21.6449 6.9832C22.5667 6.27008 23.3669 5.38246 23.998 4.3713L24 4.36805Z" fill="black" fill-opacity="0.5" />
</svg>
