<svg width="793" height="171" viewBox="0 0 793 171" fill="none" xmlns="http://www.w3.org/2000/svg">
<path d="M51.9656 128.88H36.2344L0.234375 38.5703H16.6219L44.4844 111.977L72.6094 38.5703H88.4813L51.9656 128.88Z" fill="black"/>
<path d="M167.824 52.2484H118.539V76.6328H162.658V90.3016H118.539V115.202H169.371V128.88H103.314V38.5703H167.824V52.2484Z" fill="black"/>
<path d="M247.805 128.88L231.286 101.533C230.428 101.615 229.055 101.655 227.161 101.655H205.748V128.88H190.523V38.5703H227.161C238.685 38.5703 247.629 41.2586 253.992 46.6328C260.36 52.0094 263.545 59.5984 263.545 69.4047C263.545 76.6305 261.933 82.7359 258.708 87.7234C255.483 92.7109 250.856 96.3672 244.833 98.6922L265.092 128.88H247.805ZM205.748 87.9859H227.161C241.786 87.9859 249.098 81.9203 249.098 69.7891C249.098 58.0961 241.786 52.2484 227.161 52.2484H205.748V87.9859Z" fill="black"/>
<path d="M301.6 128.88H286.375V38.5703H301.6V128.88Z" fill="black"/>
<path d="M343.141 115.08H382.225V128.88H327.916V38.5703H343.141V115.08Z" fill="black"/>
<path d="M405.706 51.2844C414.913 42.5539 426.266 38.1875 439.766 38.1875C453.27 38.1875 464.623 42.5539 473.825 51.2844C483.031 60.0102 487.634 70.8266 487.634 83.7313C487.634 96.6313 483.031 107.492 473.825 116.309C464.623 125.122 453.27 129.528 439.766 129.528C426.266 129.528 414.913 125.122 405.706 116.309C396.505 107.492 391.906 96.6313 391.906 83.7313C391.906 70.8266 396.505 60.0102 405.706 51.2844ZM439.897 51.8656C430.953 51.8656 423.296 54.9406 416.928 61.0906C410.565 67.2406 407.384 74.7875 407.384 83.7313C407.384 92.675 410.586 100.266 416.994 106.503C423.406 112.735 431.04 115.85 439.897 115.85C448.752 115.85 456.317 112.735 462.594 106.503C468.875 100.266 472.016 92.675 472.016 83.7313C472.016 74.7875 468.875 67.2406 462.594 61.0906C456.317 54.9406 448.752 51.8656 439.897 51.8656Z" fill="black"/>
<path d="M568.262 84.5H581.546V117.791C576.901 121.316 571.416 124.154 565.093 126.303C558.774 128.455 552.561 129.528 546.455 129.528C533.124 129.528 521.877 125.122 512.715 116.309C503.558 107.492 498.98 96.6313 498.98 83.7313C498.98 70.8266 503.623 60.0102 512.912 51.2844C522.198 42.5539 533.68 38.1875 547.355 38.1875C553.723 38.1875 559.979 39.3289 566.124 41.6094C572.274 43.8852 577.585 46.9602 582.062 50.8344L573.418 62.0563C566.023 55.175 557.335 51.7344 547.355 51.7344C538.154 51.7344 530.37 54.8328 524.002 61.025C517.639 67.2195 514.459 74.7875 514.459 83.7313C514.459 92.7641 517.66 100.377 524.068 106.569C530.48 112.756 538.285 115.85 547.487 115.85C554.455 115.85 561.38 113.788 568.262 109.663V84.5Z" fill="black"/>
<path fill-rule="evenodd" clip-rule="evenodd" d="M708.022 0.703125C754.759 0.703125 792.704 38.6484 792.704 85.3875C792.704 132.124 754.759 170.07 708.022 170.07C661.285 170.07 623.34 132.124 623.34 85.3875C623.34 38.6484 661.285 0.703125 708.022 0.703125ZM682.208 51.4688H671.764L699.725 125.21H710.171L682.208 51.4688ZM715.29 119.815L710.068 106.045L730.766 51.4688H741.209L715.29 119.815Z" fill="black"/>
</svg>
